<svg width="117" height="60" viewBox="0 0 117 60" fill="none" xmlns="http://www.w3.org/2000/svg">
<rect x="0.208984" width="151.725" height="60" rx="10" fill="white"/>
<g clip-path="url(#clip0_1180_54087)">
<path d="M40.8318 33.0248C39.1623 39.7212 32.38 43.7965 25.6828 42.1266C18.9884 40.4571 14.9131 33.6744 16.5834 26.9784C18.2521 20.2812 25.0344 16.2055 31.7296 17.875C38.4264 19.5445 42.5013 26.328 40.8318 33.0248Z" fill="#F7931A"/>
<path d="M34.2182 28.22C34.467 26.5568 33.2006 25.6626 31.469 25.0662L32.0307 22.8131L30.6592 22.4713L30.1124 24.665C29.7518 24.5752 29.3815 24.4904 29.0136 24.4064L29.5643 22.1982L28.1937 21.8564L27.6316 24.1088C27.3331 24.0408 27.0402 23.9736 26.7558 23.9029L26.7573 23.8959L24.866 23.4236L24.5011 24.8884C24.5011 24.8884 25.5187 25.1216 25.4972 25.1361C26.0527 25.2747 26.1531 25.6423 26.1363 25.9337L25.4964 28.5005C25.5347 28.5102 25.5843 28.5243 25.639 28.5462C25.5933 28.5349 25.5445 28.5224 25.4941 28.5102L24.5972 32.1059C24.5293 32.2746 24.357 32.5278 23.9687 32.4317C23.9824 32.4516 22.9719 32.1828 22.9719 32.1828L22.291 33.7528L24.0758 34.1977C24.4078 34.2809 24.7332 34.368 25.0535 34.45L24.4859 36.7289L25.8558 37.0707L26.4179 34.816C26.7921 34.9176 27.1554 35.0113 27.5109 35.0996L26.9507 37.3437L28.3222 37.6855L28.8897 35.4109C31.2284 35.8535 32.9869 35.675 33.7272 33.5598C34.3236 31.8567 33.6975 30.8743 32.467 30.2337C33.3631 30.027 34.0381 29.4376 34.2182 28.22ZM31.0846 32.6141C30.6608 34.3172 27.7933 33.3965 26.8636 33.1656L27.6167 30.1465C28.5464 30.3786 31.5276 30.8379 31.0846 32.6141ZM31.5088 28.1954C31.1221 29.7446 28.7354 28.9575 27.9612 28.7645L28.644 26.0263C29.4183 26.2193 31.9116 26.5794 31.5088 28.1954Z" fill="white"/>
<path d="M52.8385 25.0641C53.8522 25.0641 54.7279 25.2458 55.4638 25.6024C56.2033 25.9626 56.8134 26.4477 57.3029 27.0579C57.7857 27.6711 58.145 28.3879 58.3771 29.2094C58.6075 30.0332 58.7232 30.9187 58.7232 31.8668C58.7232 33.323 58.4564 34.6988 57.9177 35.9956C57.379 37.2944 56.6482 38.421 55.7185 39.3819C54.7896 40.3416 53.6928 41.0983 52.428 41.6572C51.1651 42.2166 49.7921 42.4963 48.3179 42.4963C48.1272 42.4963 47.7921 42.4908 47.3187 42.4811C46.8452 42.4713 46.3011 42.4225 45.6917 42.34C45.0785 42.2545 44.43 42.1279 43.7453 41.9584C43.0609 41.792 42.4109 41.5588 41.7988 41.2627L47.2722 18.2646L52.1744 17.5049L50.2147 25.6661C50.6342 25.477 51.0569 25.3305 51.4787 25.2239C51.901 25.1188 52.3541 25.0641 52.8385 25.0641ZM48.7264 38.6073C49.4647 38.6073 50.1604 38.4256 50.8139 38.069C51.4694 37.712 52.035 37.23 52.5088 36.6296C52.9826 36.0265 53.3576 35.3472 53.6311 34.5882C53.9045 33.8292 54.0428 33.0375 54.0428 32.2136C54.0428 31.2015 53.8736 30.4121 53.5365 29.8414C53.1994 29.2731 52.5756 28.9871 51.6698 28.9871C51.3729 28.9871 50.9905 29.0438 50.5163 29.1449C50.0405 29.2523 49.6147 29.4754 49.2331 29.8109L47.1464 38.478C47.2722 38.5003 47.3835 38.5214 47.4784 38.5413C47.5714 38.5628 47.6741 38.578 47.7765 38.5885C47.8847 38.6006 48.0085 38.6069 48.1581 38.6069C48.3077 38.6069 48.4948 38.6073 48.7264 38.6073Z" fill="#4D4D4D"/>
<path d="M63.8093 42.0561H59.127L63.0812 25.4169H67.7956L63.8093 42.0561ZM66.0878 23.3896C65.4343 23.3896 64.8417 23.195 64.3159 22.8052C63.7859 22.4177 63.5234 21.8212 63.5234 21.0173C63.5234 20.5752 63.6132 20.1603 63.7913 19.7689C63.9722 19.3783 64.2085 19.042 64.5046 18.756C64.8003 18.4725 65.1429 18.2459 65.5319 18.0752C65.9233 17.9072 66.3397 17.8232 66.7835 17.8232C67.4366 17.8232 68.026 18.0178 68.5538 18.4076C69.0795 18.7994 69.344 19.3959 69.344 20.1955C69.344 20.6392 69.2545 21.0556 69.0748 21.4462C68.8963 21.8368 68.66 22.1732 68.3639 22.4591C68.0706 22.7431 67.7249 22.9689 67.3366 23.138C66.9448 23.3087 66.53 23.3896 66.0878 23.3896Z" fill="#4D4D4D"/>
<path d="M71.897 21.2715L76.8013 20.5117L75.597 25.4163H80.8492L79.9008 29.2749H74.6802L73.2896 35.0951C73.1615 35.5802 73.0888 36.0333 73.0685 36.4544C73.0455 36.8775 73.099 37.2408 73.2255 37.5466C73.3513 37.8533 73.5775 38.0896 73.9056 38.2568C74.2322 38.4267 74.6997 38.5122 75.313 38.5122C75.8181 38.5122 76.3102 38.4642 76.786 38.3689C77.2591 38.2751 77.7383 38.1447 78.2235 37.974L78.5727 41.5817C77.9399 41.8137 77.2548 42.0133 76.5165 42.1813C75.777 42.3516 74.9017 42.4336 73.89 42.4336C72.4353 42.4336 71.3076 42.2176 70.5041 41.7876C69.7018 41.3544 69.1346 40.7626 68.7951 40.0134C68.4604 39.2669 68.3108 38.4064 68.3526 37.4368C68.3959 36.465 68.5424 35.4435 68.7951 34.3678L71.897 21.2715Z" fill="#4D4D4D"/>
<path d="M80.6426 35.4114C80.6426 33.9782 80.8746 32.6266 81.3383 31.3614C81.8012 30.095 82.4679 28.9876 83.3332 28.0373C84.1953 27.0916 85.2456 26.3424 86.4819 25.7924C87.7124 25.2455 89.0901 24.9697 90.6084 24.9697C91.5588 24.9697 92.4076 25.0596 93.1545 25.2396C93.9045 25.4213 94.583 25.6561 95.1966 25.9506L93.5818 29.6224C93.16 29.4513 92.7221 29.3005 92.2694 29.1638C91.8162 29.0244 91.2631 28.9572 90.6088 28.9572C89.046 28.9572 87.8104 29.4958 86.8909 30.5696C85.9749 31.6442 85.5136 33.0907 85.5136 34.9051C85.5136 35.9805 85.7456 36.85 86.2112 37.5152C86.6745 38.1805 87.5304 38.5113 88.7729 38.5113C89.3862 38.5113 89.978 38.4473 90.5448 38.3223C91.1159 38.1957 91.6201 38.0363 92.0643 37.848L92.4139 41.612C91.8217 41.8417 91.1686 42.0491 90.4522 42.2308C89.7342 42.4062 88.8796 42.4972 87.8886 42.4972C86.5804 42.4972 85.473 42.3058 84.5671 41.9288C83.6609 41.546 82.9121 41.0378 82.3222 40.3941C81.7293 39.7488 81.3035 38.9953 81.0402 38.1305C80.777 37.2664 80.6426 36.3586 80.6426 35.4114Z" fill="#4D4D4D"/>
<path d="M101.443 42.4972C100.325 42.4972 99.3546 42.3269 98.5312 41.9898C97.7101 41.6527 97.03 41.1796 96.4922 40.5664C95.9535 39.9562 95.5504 39.2332 95.2742 38.4C94.998 37.5672 94.8652 36.6449 94.8652 35.6344C94.8652 34.3668 95.0687 33.0997 95.4801 31.836C95.8894 30.5696 96.4968 29.4318 97.3007 28.4205C98.0984 27.4076 99.0824 26.5795 100.241 25.9338C101.398 25.2924 102.73 24.9697 104.225 24.9697C105.322 24.9697 106.288 25.1404 107.122 25.4775C107.953 25.8138 108.638 26.2908 109.179 26.9009C109.714 27.5142 110.12 28.2341 110.394 29.0685C110.669 29.8997 110.805 30.8243 110.805 31.8356C110.805 33.0993 110.604 34.3665 110.206 35.634C109.807 36.8953 109.215 38.0359 108.434 39.0496C107.654 40.0609 106.68 40.8886 105.508 41.5316C104.339 42.1745 102.983 42.4972 101.443 42.4972ZM103.783 28.9576C103.089 28.9576 102.475 29.1591 101.95 29.5572C101.423 29.9599 100.98 30.4661 100.623 31.0767C100.262 31.6899 99.9941 32.3587 99.8132 33.0856C99.6339 33.8141 99.546 34.5028 99.546 35.1571C99.546 36.2129 99.7163 37.0352 100.051 37.627C100.391 38.2156 101 38.5117 101.887 38.5117C102.583 38.5117 103.194 38.3117 103.722 37.9094C104.246 37.5098 104.69 37.0031 105.049 36.3914C105.408 35.7813 105.678 35.1106 105.859 34.3825C106.036 33.6563 106.126 32.9637 106.126 32.3106C106.126 31.2575 105.956 30.4333 105.619 29.8423C105.281 29.2536 104.669 28.9576 103.783 28.9576Z" fill="#4D4D4D"/>
<path d="M115.907 42.0561H111.221L115.175 25.4169H119.892L115.907 42.0561ZM118.182 23.3896C117.529 23.3896 116.937 23.195 116.412 22.8052C115.884 22.4177 115.619 21.8212 115.619 21.0173C115.619 20.5752 115.71 20.1603 115.889 19.7689C116.067 19.3783 116.305 19.042 116.601 18.756C116.896 18.4725 117.241 18.2459 117.63 18.0752C118.019 17.9072 118.435 17.8232 118.877 17.8232C119.532 17.8232 120.123 18.0178 120.65 18.4076C121.177 18.7994 121.443 19.3959 121.443 20.1955C121.443 20.6392 121.348 21.0556 121.171 21.4462C120.994 21.8368 120.756 22.1732 120.462 22.4591C120.165 22.7431 119.823 22.9689 119.434 23.138C119.042 23.3087 118.626 23.3896 118.182 23.3896Z" fill="#4D4D4D"/>
</g>
<defs>
<clipPath id="clip0_1180_54087">
<rect width="119.725" height="25" fill="white" transform="translate(16.209 17.5)"/>
</clipPath>
</defs>
</svg>
