<svg width="68" height="60" viewBox="0 0 68 60" fill="none" xmlns="http://www.w3.org/2000/svg">
<rect x="-25" width="92.8944" height="60" rx="10" fill="white"/>
<g clip-path="url(#clip0_1180_54070)">
<path d="M2.13309 20.7231C1.41949 21.5676 0.277717 22.2336 -0.864054 22.1384C-1.00677 20.9967 -0.447783 19.7835 0.206356 19.0343C0.919962 18.166 2.16877 17.5476 3.17971 17.5C3.29865 18.6893 2.8348 19.8549 2.13309 20.7231ZM3.16782 22.3644C1.51463 22.2693 0.0993147 23.304 -0.685652 23.304C-1.48251 23.304 -2.68375 22.412 -3.99203 22.4358C-5.69279 22.4596 -7.27462 23.4229 -8.14284 24.9572C-9.92685 28.0257 -8.60668 32.569 -6.88213 35.0666C-6.0377 36.3035 -5.02676 37.6594 -3.69469 37.6118C-2.43399 37.5642 -1.93446 36.7912 -0.412104 36.7912C1.12215 36.7912 1.56221 37.6118 2.89427 37.588C4.27391 37.5642 5.14213 36.3511 5.98657 35.1142C6.94993 33.7108 7.34242 32.343 7.36621 32.2716C7.34242 32.2479 4.70207 31.2369 4.67829 28.1922C4.6545 25.647 6.75964 24.4339 6.85479 24.3625C5.66544 22.6023 3.81007 22.412 3.16782 22.3644ZM12.7183 18.9153V37.4572H15.5965V31.118H19.5808C23.2202 31.118 25.7772 28.6204 25.7772 25.0048C25.7772 21.3892 23.2677 18.9153 19.6759 18.9153H12.7183ZM15.5965 21.3416H18.9147C21.4124 21.3416 22.8396 22.6736 22.8396 25.0167C22.8396 27.3597 21.4124 28.7036 18.9028 28.7036H15.5965V21.3416ZM31.0341 37.5999C32.8419 37.5999 34.5189 36.6841 35.2801 35.2331H35.3396V37.4572H38.0037V28.2279C38.0037 25.5519 35.8629 23.8273 32.5684 23.8273C29.5118 23.8273 27.252 25.5756 27.1688 27.9781H29.7615C29.9756 26.8363 31.0341 26.0871 32.4851 26.0871C34.2454 26.0871 35.2325 26.9077 35.2325 28.4182V29.441L31.6407 29.6551C28.2987 29.8573 26.4908 31.225 26.4908 33.6037C26.4908 36.0062 28.3581 37.5999 31.0341 37.5999ZM31.8072 35.3996C30.273 35.3996 29.2977 34.6622 29.2977 33.5324C29.2977 32.3668 30.2373 31.6889 32.0332 31.5818L35.2325 31.3796V32.4263C35.2325 34.1627 33.7577 35.3996 31.8072 35.3996ZM41.5598 42.5C44.3667 42.5 45.6869 41.4296 46.8405 38.1827L51.8952 24.0057H48.9694L45.5798 34.9596H45.5203L42.1307 24.0057H39.1217L43.998 37.5048L43.7363 38.3254C43.2963 39.7169 42.5827 40.2521 41.3101 40.2521C41.0841 40.2521 40.644 40.2284 40.4656 40.2046V42.4286C40.6321 42.4762 41.3457 42.5 41.5598 42.5Z" fill="black"/>
</g>
<defs>
<clipPath id="clip0_1180_54070">
<rect width="60.8944" height="25" fill="white" transform="translate(-9 17.5)"/>
</clipPath>
</defs>
</svg>
