<svg width="164" height="60" viewBox="0 0 164 60" fill="none" xmlns="http://www.w3.org/2000/svg">
<rect x="0.894531" width="162.316" height="60" rx="10" fill="white"/>
<g clip-path="url(#clip0_1180_54073)">
<path fill-rule="evenodd" clip-rule="evenodd" d="M68.3152 37.0556C63.4995 40.6097 56.5177 42.4996 50.5052 42.4996C42.0794 42.4996 34.4915 39.3849 28.7492 34.2C28.2989 33.7925 28.7005 33.2366 29.2424 33.5518C35.4372 37.1568 43.0989 39.328 51.011 39.328C56.3486 39.328 62.2164 38.2199 67.6154 35.9298C68.4297 35.585 69.1126 36.4665 68.3152 37.0556Z" fill="#F79C34"/>
<path fill-rule="evenodd" clip-rule="evenodd" d="M70.32 34.7671C69.7035 33.9786 66.2484 34.3935 64.6958 34.5796C64.2255 34.6364 64.1525 34.2252 64.5762 33.9277C67.3329 31.9912 71.8504 32.5501 72.3753 33.199C72.9039 33.8524 72.2358 38.3817 69.6533 40.5426C69.2554 40.8748 68.8774 40.6976 69.0538 40.2591C69.6356 38.8069 70.9364 35.5571 70.32 34.7671Z" fill="#F79C34"/>
<path fill-rule="evenodd" clip-rule="evenodd" d="M64.8048 20.2496V18.3685C64.8063 18.0821 65.0219 17.8916 65.2818 17.8923L73.7143 17.8916C73.9837 17.8916 74.2008 18.0872 74.2008 18.3663V19.9794C74.1978 20.2504 73.9697 20.6033 73.5659 21.1636L69.1975 27.4005C70.8188 27.3629 72.5338 27.6057 74.0074 28.4333C74.3396 28.6201 74.4289 28.897 74.4547 29.1679V31.1753C74.4547 31.4521 74.1521 31.7718 73.8331 31.6057C71.2381 30.2458 67.7941 30.0974 64.9237 31.6219C64.6306 31.7784 64.3242 31.4625 64.3242 31.1856V29.2772C64.3242 28.9723 64.3301 28.4496 64.638 27.9845L69.6981 20.7243L65.2921 20.7236C65.0226 20.7236 64.8063 20.5317 64.8048 20.2496Z" fill="#333E47"/>
<path fill-rule="evenodd" clip-rule="evenodd" d="M34.0481 32.0004H31.4826C31.2383 31.9849 31.0434 31.8018 31.0234 31.567L31.0257 18.4C31.0257 18.1372 31.2471 17.9268 31.521 17.9268L33.9101 17.926C34.1596 17.9386 34.3604 18.1276 34.3759 18.3682V20.0869H34.4246C35.047 18.4244 36.2201 17.6484 37.8007 17.6484C39.405 17.6484 40.4113 18.4244 41.1296 20.0869C41.752 18.4244 43.165 17.6484 44.6733 17.6484C45.7512 17.6484 46.9243 18.0921 47.6426 19.0895C48.4569 20.1984 48.2901 21.8049 48.2901 23.2179L48.2871 31.5272C48.2871 31.7892 48.0664 32.0004 47.7925 32.0004H45.2307C44.9723 31.9841 44.77 31.7804 44.77 31.5279L44.7693 24.5476C44.7693 23.9939 44.8173 22.6089 44.6969 22.0825C44.5057 21.1951 43.9313 20.9455 43.1894 20.9455C42.5663 20.9455 41.9195 21.3612 41.656 22.0256C41.3924 22.6916 41.4168 23.799 41.4168 24.5476V31.5272C41.4168 31.7892 41.1953 32.0004 40.9221 32.0004H38.3596C38.102 31.9841 37.8989 31.7804 37.8989 31.5279L37.896 24.5476C37.896 23.0791 38.1359 20.919 36.3161 20.919C34.4719 20.919 34.5442 23.0238 34.5442 24.5476L34.5428 31.5272C34.5428 31.7892 34.3213 32.0004 34.0481 32.0004Z" fill="#333E47"/>
<path fill-rule="evenodd" clip-rule="evenodd" d="M81.4861 20.3365C79.5946 20.3365 79.475 22.9123 79.475 24.5195C79.475 26.1267 79.4514 29.5626 81.4632 29.5626C83.4506 29.5626 83.5466 26.7919 83.5466 25.102C83.5466 23.9939 83.4979 22.6635 83.1627 21.6107C82.8755 20.696 82.3004 20.3365 81.4861 20.3365ZM81.4632 17.6484C85.2704 17.6484 87.3295 20.919 87.3295 25.0747C87.3295 29.0909 85.0549 32.278 81.4632 32.278C77.7268 32.278 75.6914 29.0082 75.6914 24.9359C75.6914 20.8348 77.7504 17.6484 81.4632 17.6484Z" fill="#333E47"/>
<path fill-rule="evenodd" clip-rule="evenodd" d="M92.2671 32.0004H89.7105C89.4543 31.9841 89.2505 31.7804 89.2505 31.5279L89.2461 18.3564C89.2682 18.115 89.4809 17.9268 89.7393 17.9268L92.1187 17.926C92.3431 17.9378 92.5277 18.0899 92.575 18.2944V20.3084H92.6229C93.342 18.507 94.3468 17.6484 96.1186 17.6484C97.2681 17.6484 98.394 18.0641 99.1123 19.2003C99.7827 20.2531 99.7827 22.0256 99.7827 23.3006V31.5862C99.7546 31.8195 99.5449 32.0004 99.291 32.0004H96.7196C96.4819 31.9856 96.2907 31.8107 96.2626 31.5862V24.4376C96.2626 22.9965 96.4309 20.8902 94.6583 20.8902C94.036 20.8902 93.4609 21.3058 93.1737 21.9429C92.8141 22.7469 92.7662 23.5502 92.7662 24.4376V31.5272C92.7617 31.7892 92.5403 32.0004 92.2671 32.0004Z" fill="#333E47"/>
<path fill-rule="evenodd" clip-rule="evenodd" d="M60.6687 31.9682C60.4997 32.1203 60.2553 32.1306 60.0633 32.028C59.2114 31.32 59.0586 30.9929 58.5927 30.3181C57.1848 31.7526 56.1874 32.183 54.3632 32.183C52.2037 32.183 50.5234 30.8497 50.5234 28.1845C50.5234 26.1019 51.6523 24.6859 53.2595 23.9919C54.6511 23.3806 56.595 23.2699 58.0833 23.103V22.7701C58.0833 22.1581 58.1313 21.4375 57.771 20.9096C57.4587 20.4371 56.8593 20.243 56.3314 20.243C55.3525 20.243 54.4835 20.7443 54.2694 21.783C54.2244 22.0141 54.0561 22.2437 53.8242 22.2555L51.337 21.986C51.1273 21.938 50.894 21.7697 50.9538 21.4493C51.5186 18.4748 54.1749 17.5476 56.5891 17.5225H56.7795C58.0154 17.538 59.5938 17.8768 60.555 18.7989C61.8034 19.9654 61.6824 21.5202 61.6824 23.2145V27.2108C61.6824 28.4134 62.1822 28.9405 62.651 29.588C62.8156 29.822 62.8518 30.0989 62.6429 30.2702C62.1187 30.7094 61.1877 31.5178 60.6761 31.9741L60.6687 31.9682ZM58.0833 25.7136C58.0833 26.7132 58.1069 27.5459 57.6034 28.4348C57.1952 29.1561 56.547 29.6005 55.8272 29.6005C54.8438 29.6005 54.2679 28.8512 54.2679 27.7401C54.2679 25.5548 56.2273 25.1576 58.0833 25.1576V25.7136Z" fill="#333E47"/>
<path fill-rule="evenodd" clip-rule="evenodd" d="M27.0406 31.9682C26.8708 32.1203 26.6257 32.1306 26.4344 32.028C25.5817 31.32 25.4289 30.9929 24.9638 30.3181C23.5552 31.7526 22.5585 32.183 20.7343 32.183C18.5748 32.183 16.8945 30.8497 16.8945 28.1845C16.8945 26.1019 18.0219 24.6859 19.6306 23.9919C21.0222 23.3806 22.9661 23.2699 24.4537 23.103V22.7701C24.4537 22.1581 24.5024 21.4375 24.1421 20.9096C23.8298 20.4371 23.2296 20.243 22.7025 20.243C21.7235 20.243 20.8531 20.7443 20.6405 21.783C20.5962 22.0141 20.4271 22.2437 20.1946 22.2555L17.7081 21.986C17.4977 21.938 17.2644 21.7697 17.3249 21.4493C17.8882 18.4748 20.5453 17.5476 22.9601 17.5225H23.1506C24.3865 17.538 25.9649 17.8768 26.9261 18.7989C28.1738 19.9654 28.0535 21.5202 28.0535 23.2145V27.2108C28.0535 28.4134 28.5533 28.9405 29.0221 29.588C29.1852 29.822 29.2229 30.0989 29.014 30.2702C28.4898 30.7094 27.5581 31.5178 27.0465 31.9741L27.0406 31.9682ZM24.4537 25.7136C24.4537 26.7132 24.478 27.5459 23.9738 28.4348C23.5663 29.1561 22.9181 29.6005 22.1975 29.6005C21.2141 29.6005 20.6383 28.8512 20.6383 27.7401C20.6383 25.5548 22.5984 25.1576 24.4537 25.1576V25.7136Z" fill="#333E47"/>
<path fill-rule="evenodd" clip-rule="evenodd" d="M134.85 36.7242C134.85 36.3905 134.85 36.0907 134.85 35.757C134.85 35.4816 134.985 35.2919 135.273 35.3089C135.809 35.3849 136.567 35.461 137.105 35.3502C137.808 35.2041 138.312 34.7057 138.61 34.0228C139.03 33.0616 139.309 32.2864 139.484 31.7778L134.147 18.5568C134.057 18.3324 134.031 17.916 134.479 17.916H136.345C136.7 17.916 136.845 18.1419 136.925 18.3634L140.794 29.1023L144.488 18.3634C144.563 18.1434 144.714 17.916 145.067 17.916H146.826C147.272 17.916 147.247 18.3317 147.158 18.5568L141.864 32.1904C141.179 34.0051 140.266 36.8954 138.211 37.3975C137.18 37.6669 135.88 37.5695 135.117 37.2498C134.924 37.1531 134.85 36.8947 134.85 36.7242Z" fill="#333E47"/>
<path fill-rule="evenodd" clip-rule="evenodd" d="M132.36 31.1949C132.36 31.4407 132.159 31.6423 131.912 31.6423H130.596C130.312 31.6423 130.118 31.437 130.081 31.1949L129.949 30.2994C129.345 30.811 128.603 31.2606 127.798 31.5736C126.251 32.1746 124.467 32.2742 122.955 31.3455C121.862 30.6744 121.281 29.3625 121.281 28.0093C121.281 26.9624 121.604 25.9244 122.319 25.1706C123.274 24.1407 124.657 23.635 126.328 23.635C127.337 23.635 128.781 23.7539 129.832 24.0972V22.2951C129.832 20.4627 129.06 19.6698 127.026 19.6698C125.472 19.6698 124.282 19.9045 122.627 20.4191C122.362 20.428 122.207 20.2264 122.207 19.9806V18.9529C122.207 18.7063 122.417 18.4679 122.646 18.3955C123.828 17.8802 125.502 17.5591 127.282 17.5C129.602 17.5 132.36 18.0234 132.36 21.5922V31.1949ZM129.832 28.5637V25.8447C128.949 25.6032 127.488 25.5028 126.922 25.5028C126.029 25.5028 125.051 25.714 124.54 26.264C124.158 26.6671 123.986 27.2459 123.986 27.8055C123.986 28.529 124.236 29.2547 124.821 29.6135C125.5 30.0749 126.553 30.0188 127.543 29.7375C128.495 29.4673 129.388 28.9897 129.832 28.5637Z" fill="#333E47"/>
<path fill-rule="evenodd" clip-rule="evenodd" d="M112.965 19.7101C115.884 19.7101 116.679 22.0053 116.679 24.6336C116.696 26.4054 116.37 27.9853 115.452 28.8897C114.766 29.5667 113.999 29.7513 112.844 29.7513C111.816 29.7513 110.465 29.2153 109.455 28.4689V20.9541C110.506 20.1464 111.847 19.7101 112.965 19.7101ZM109.007 37.1952H107.245C106.998 37.1952 106.797 36.9937 106.797 36.7478C106.797 30.6276 106.797 24.5066 106.797 18.3864C106.797 18.1405 106.998 17.939 107.245 17.939H108.594C108.877 17.939 109.071 18.1442 109.108 18.3864L109.249 19.3483C110.513 18.2269 112.139 17.5078 113.689 17.5078C118.029 17.5078 119.456 21.084 119.456 24.8026C119.456 28.7812 117.273 31.9779 113.581 31.9779C112.026 31.9779 110.572 31.4042 109.455 30.4076V36.7478C109.455 36.9937 109.253 37.1952 109.007 37.1952Z" fill="#333E47"/>
</g>
<defs>
<clipPath id="clip0_1180_54073">
<rect width="130.316" height="25" fill="white" transform="translate(16.8945 17.5)"/>
</clipPath>
</defs>
</svg>
