<svg width="139" height="60" viewBox="0 0 139 60" fill="none" xmlns="http://www.w3.org/2000/svg">
<rect x="0.544922" width="137.738" height="60" rx="10" fill="white"/>
<g clip-path="url(#clip0_1180_54022)">
<path d="M39.3527 20.682C39.3322 20.533 39.2021 20.4503 39.094 20.4413C38.9868 20.4323 36.8861 20.4004 36.8861 20.4004C36.8861 20.4004 35.1292 18.6943 34.9557 18.5207C34.7822 18.3472 34.4432 18.3996 34.3114 18.4389C34.3098 18.4397 33.9815 18.5412 33.4289 18.7123C33.3364 18.4127 33.2005 18.0443 33.0065 17.6743C32.381 16.4807 31.465 15.8495 30.3581 15.8478C30.3565 15.8478 30.3556 15.8478 30.354 15.8478C30.2771 15.8478 30.2009 15.8552 30.124 15.8617C30.0912 15.8225 30.0585 15.784 30.0241 15.7463C29.5419 15.2306 28.9239 14.9792 28.183 15.0013C26.7536 15.0423 25.33 16.0746 24.1756 17.9084C23.3635 19.1986 22.7454 20.8196 22.5702 22.0745C20.9288 22.5829 19.7811 22.9382 19.7557 22.9464C18.9272 23.2067 18.901 23.2321 18.793 24.0131C18.7127 24.6033 16.5449 41.3662 16.5449 41.3662L34.7117 44.5082L42.5856 42.5508C42.5856 42.5508 39.3732 20.831 39.3527 20.682ZM32.5194 18.9939C32.1011 19.1233 31.6254 19.2706 31.1096 19.4303C31.099 18.7066 31.013 17.6996 30.6758 16.8294C31.7605 17.0349 32.2942 18.2621 32.5194 18.9939ZM30.1592 19.725C29.2071 20.0197 28.1682 20.3414 27.1261 20.664C27.4191 19.5416 27.975 18.4241 28.6578 17.6914C28.9116 17.4188 29.2668 17.1151 29.6876 16.9416C30.083 17.7668 30.169 18.935 30.1592 19.725ZM28.2116 15.9526C28.5472 15.9453 28.8297 16.0189 29.0712 16.1778C28.6848 16.3783 28.3115 16.6665 27.9611 17.0423C27.0532 18.0165 26.3573 19.5285 26.0798 20.9874C25.2145 21.255 24.368 21.5179 23.5886 21.7586C24.0807 19.4622 26.0053 16.0165 28.2116 15.9526Z" fill="#95BF47"/>
<path d="M39.0952 20.4419C38.9879 20.4329 36.8873 20.401 36.8873 20.401C36.8873 20.401 35.1304 18.6949 34.9569 18.5213C34.8922 18.4567 34.8046 18.4231 34.7129 18.4092L34.7137 44.5072L42.5868 42.5506C42.5868 42.5506 39.3743 20.8316 39.3539 20.6826C39.3334 20.5336 39.2024 20.4509 39.0952 20.4419Z" fill="#5E8E3E"/>
<path d="M30.3482 24.4906L29.4338 27.9117C29.4338 27.9117 28.4138 27.4475 27.2046 27.5237C25.4314 27.6359 25.4125 28.7541 25.4306 29.0349C25.5272 30.565 29.5525 30.899 29.7785 34.4831C29.9561 37.3025 28.2828 39.2313 25.8718 39.3836C22.9779 39.5661 21.3848 37.8592 21.3848 37.8592L21.998 35.251C21.998 35.251 23.6017 36.461 24.8853 36.3799C25.7237 36.3267 26.0233 35.6448 25.993 35.1626C25.8669 33.1667 22.589 33.2846 22.3819 30.005C22.2075 27.2454 24.02 24.4488 28.0191 24.1967C29.5599 24.0976 30.3482 24.4906 30.3482 24.4906Z" fill="white"/>
<path d="M52.9552 31.6546C52.0499 31.1634 51.5846 30.7493 51.5846 30.1801C51.5846 29.4558 52.2309 28.9905 53.2402 28.9905C54.4152 28.9905 55.4642 29.4817 55.4642 29.4817L56.2916 26.9467C56.2916 26.9467 55.5308 26.3516 53.2914 26.3516C50.175 26.3516 48.0151 28.1363 48.0151 30.6453C48.0151 32.0679 49.0236 33.1543 50.369 33.9298C51.4555 34.5501 51.8436 34.9902 51.8436 35.6366C51.8436 36.3089 51.3004 36.8521 50.2919 36.8521C48.7889 36.8521 47.3696 36.0758 47.3696 36.0758L46.4902 38.6108C46.4902 38.6108 47.8016 39.4902 50.0077 39.4902C53.2151 39.4902 55.517 37.9125 55.517 35.0673C55.5162 33.5425 54.3526 32.456 52.9552 31.6546Z" fill="black"/>
<path d="M65.7324 26.3257C64.1546 26.3257 62.9131 27.076 61.9566 28.2136L61.9046 28.1875L63.2752 21.0234H59.7058L56.2402 39.2573H59.8097L60.9993 33.0245C61.4645 30.6706 62.6801 29.2228 63.8185 29.2228C64.6199 29.2228 64.9309 29.766 64.9309 30.5423C64.9309 31.0336 64.8789 31.6287 64.7758 32.12L63.4311 39.2581H67.0008L68.397 31.8869C68.5524 31.1107 68.6562 30.1802 68.6562 29.559C68.6547 27.5412 67.5944 26.3257 65.7324 26.3257Z" fill="black"/>
<path d="M76.722 26.3262C72.4281 26.3262 69.584 30.2059 69.584 34.5248C69.584 37.292 71.2905 39.516 74.4981 39.516C78.7138 39.516 81.5589 35.7403 81.5589 31.3174C81.5589 28.7573 80.0584 26.3262 76.722 26.3262ZM74.9633 36.7756C73.7476 36.7756 73.2302 35.7411 73.2302 34.4476C73.2302 32.4047 74.291 29.0683 76.2307 29.0683C77.4981 29.0683 77.9112 30.1547 77.9112 31.2151C77.9112 33.4132 76.8519 36.7756 74.9633 36.7756Z" fill="black"/>
<path d="M90.6921 26.3262C88.2828 26.3262 86.9155 28.4471 86.9155 28.4471H86.8644L87.0714 26.5332H83.916C83.7611 27.8267 83.4759 29.7917 83.1921 31.2663L80.709 44.327H84.2785L85.2606 39.0507H85.3388C85.3388 39.0507 86.0711 39.516 87.4339 39.516C91.6236 39.516 94.3649 35.2231 94.3649 30.8774C94.3649 28.4731 93.3041 26.3262 90.6921 26.3262ZM87.278 36.8267C86.3514 36.8267 85.8031 36.3095 85.8031 36.3095L86.3982 32.9731C86.8123 30.7491 87.9759 29.2745 89.2177 29.2745C90.3041 29.2745 90.64 30.283 90.64 31.2403C90.64 33.5423 89.2693 36.8267 87.278 36.8267Z" fill="black"/>
<path d="M99.459 21.2051C98.3214 21.2051 97.416 22.1104 97.416 23.274C97.416 24.3345 98.0883 25.0588 99.097 25.0588H99.1486C100.261 25.0588 101.218 24.3085 101.244 22.9898C101.244 21.9553 100.545 21.2051 99.459 21.2051Z" fill="black"/>
<path d="M94.4668 39.2579H98.0353L100.467 26.6113H96.8717L94.4668 39.2579Z" fill="black"/>
<path d="M109.545 26.5851H107.061L107.19 25.9899C107.397 24.7744 108.122 23.6879 109.311 23.6879C109.946 23.6879 110.449 23.869 110.449 23.869L111.147 21.0758C111.147 21.0758 110.527 20.7656 109.207 20.7656C107.94 20.7656 106.673 21.1277 105.716 21.9552C104.5 22.9897 103.931 24.4894 103.647 25.9899L103.544 26.5851H101.888L101.371 29.2752H103.027L101.139 39.2585H104.708L106.596 29.2752H109.053L109.545 26.5851Z" fill="black"/>
<path d="M118.132 26.6112C118.132 26.6112 115.901 32.2325 114.899 35.301H114.847C114.779 34.3128 113.968 26.6112 113.968 26.6112H110.217L112.365 38.2233C112.417 38.4815 112.391 38.6374 112.287 38.8185C111.873 39.6199 111.175 40.3962 110.347 40.9654C109.675 41.4566 108.925 41.7668 108.33 41.9738L109.313 45.0001C110.037 44.845 111.537 44.2499 112.804 43.0603C114.434 41.5346 115.933 39.1806 117.485 35.9733L121.856 26.6104H118.132V26.6112Z" fill="black"/>
</g>
<defs>
<clipPath id="clip0_1180_54022">
<rect width="105.738" height="30" fill="white" transform="translate(16.5449 15)"/>
</clipPath>
</defs>
</svg>
