<svg width="127" height="60" viewBox="0 0 127 60" fill="none" xmlns="http://www.w3.org/2000/svg">
<rect x="-4.85156" width="131.397" height="60" rx="10" fill="white"/>
<g clip-path="url(#clip0_1180_54019)">
<path d="M43.2439 27.2762C43.2439 25.4931 41.51 23.5994 38.5095 23.5994C35.1401 23.5994 31.4386 26.0711 30.873 31.0022C30.295 35.9825 33.3939 38.196 36.5174 38.196C39.6408 38.196 41.2763 36.9786 42.9487 35.3554C41.51 33.5477 39.6531 34.3839 39.2965 34.5684C38.903 34.7651 38.3988 35.0357 37.3659 35.0357C36.1607 35.0357 34.931 34.4946 34.931 32.2442C42.6536 31.4818 43.2439 29.0593 43.2439 27.2762ZM39.4195 27.5713C39.3703 28.1247 39.1489 29.0716 35.2385 29.6003C36.0624 26.6736 37.6364 26.4523 38.3619 26.4523C39.0383 26.4523 39.4687 26.9811 39.4195 27.5713ZM26.3354 28.0509C26.3354 28.0509 24.6752 33.2649 24.54 33.6953C24.4908 33.2526 23.2734 23.8945 23.2734 23.8945C20.445 23.8945 18.9325 25.9112 18.1332 28.0386C18.1332 28.0386 16.1165 33.2649 15.9443 33.7076C15.932 33.3018 15.6369 28.1001 15.6369 28.1001C15.4647 25.4931 13.0791 23.9068 11.1484 23.9068L13.4849 38.0853C16.4485 38.073 18.0471 36.0686 18.8833 33.9412C18.8833 33.9412 20.6664 29.3298 20.7402 29.1208C20.7525 29.3175 22.0191 38.0853 22.0191 38.0853C24.995 38.0853 26.5936 36.2039 27.4544 34.1503L31.6231 23.9068C28.6841 23.9068 27.1347 25.9112 26.3354 28.0509ZM54.1637 23.5748C52.3314 23.5748 50.9296 24.5708 49.749 26.0342V26.0219L50.8066 17.5C48.3718 17.5 46.3919 19.6151 46.0107 22.7632L44.1661 37.9747C45.568 37.9747 47.056 37.5689 47.8553 36.5359C48.5685 37.4582 49.6384 38.196 51.2247 38.196C55.3319 38.196 58.1479 33.4247 58.1479 28.9486C58.1234 24.866 56.1435 23.5748 54.1637 23.5748ZM53.7825 30.8915C53.3521 33.3878 51.9625 35.0849 50.6221 35.0849C49.2694 35.0849 48.6915 34.4823 48.6915 34.4823C48.9497 32.2934 49.1096 30.953 49.6015 29.7971C50.0933 28.6412 51.2616 26.7966 52.479 26.7966C53.6718 26.7966 54.2129 28.3829 53.7825 30.8915ZM68.4037 23.9068H65.5385L65.5508 23.7592C65.7476 21.8901 66.1903 20.9063 67.6536 20.7464C68.6497 20.6481 69.0924 20.1316 69.203 19.5659C69.2891 19.1232 69.5597 17.5861 69.5597 17.5861C63.8046 17.5492 61.9969 20.0332 61.5297 23.8207L61.5174 23.9068H61.4559C60.5213 23.9068 59.4883 24.9643 59.3162 26.3047L59.2547 26.7966H61.173L59.5621 40.1021L59.0702 42.4877C59.1317 42.4877 59.2055 42.5 59.267 42.5C61.96 42.4016 63.6816 40.2742 64.0629 37.1877L65.3172 26.7966H66.2148C67.1002 26.7966 68.1332 25.9112 68.3176 24.4356L68.4037 23.9068ZM83.3078 23.6608C79.9999 23.6608 76.8764 26.0957 75.9173 29.9201C74.9581 33.7445 76.4091 38.2698 81.2788 38.2698C86.1361 38.2698 88.9399 33.56 88.9399 29.6372C88.9399 25.7391 86.296 23.6608 83.3078 23.6608ZM84.6482 30.7686C84.476 32.5025 83.7136 35.134 81.6231 35.134C79.5203 35.134 79.8154 32.0598 80.0245 30.5964C80.2458 29.0347 81.1189 26.8089 83.0004 26.8089C84.6851 26.8089 84.8449 28.8133 84.6482 30.7686ZM105.283 28.0509C105.283 28.0509 103.623 33.2649 103.487 33.6953C103.438 33.2526 102.221 23.8945 102.221 23.8945C99.3924 23.8945 97.8799 25.9112 97.0806 28.0386C97.0806 28.0386 95.0638 33.2649 94.8917 33.7076C94.8794 33.3018 94.5843 28.1001 94.5843 28.1001C94.4121 25.4931 92.0265 23.9068 90.0958 23.9068L92.42 38.0853C95.3836 38.073 96.9822 36.0686 97.8184 33.9412C97.8184 33.9412 99.6015 29.3298 99.6629 29.1208C99.6875 29.3175 100.942 38.0853 100.942 38.0853C103.918 38.0853 105.516 36.2039 106.377 34.1503L110.546 23.9068C107.619 23.9068 106.07 25.9112 105.283 28.0509ZM71.1091 17.5861L68.6989 37.0278L68.207 39.4257C68.2685 39.4257 68.3422 39.438 68.4037 39.438C70.9984 39.4011 72.843 37.1262 73.1873 34.2609L74.5769 23.1075C74.995 19.7012 72.966 17.5861 71.1091 17.5861Z" fill="#3A60F8"/>
</g>
<defs>
<clipPath id="clip0_1180_54019">
<rect width="99.3974" height="25" fill="white" transform="translate(11.1484 17.5)"/>
</clipPath>
</defs>
</svg>
