<svg width="83" height="60" viewBox="0 0 83 60" fill="none" xmlns="http://www.w3.org/2000/svg">
<rect x="0.283203" width="97.5022" height="60" rx="10" fill="white"/>
<g clip-path="url(#clip0_1180_54035)">
<path d="M55.5888 28.0472H53.9561C53.9226 27.9135 53.8976 27.7585 53.8809 27.5826C53.8477 27.2402 53.8477 26.8953 53.8809 26.5529C53.8976 26.3774 53.9226 26.2225 53.9561 26.0881H58.0251V38.9728C57.8214 39.0082 57.616 39.0332 57.4098 39.0477C57.2049 39.0634 56.9995 39.0717 56.7941 39.0726C56.5972 39.0714 56.4005 39.0631 56.2043 39.0477C55.9981 39.0331 55.7928 39.008 55.5892 38.9724V28.0466V28.0469L55.5888 28.0472ZM69.7539 31.2874C69.7539 30.8184 69.6911 30.3706 69.5658 29.9433C69.4401 29.5166 69.2553 29.1442 69.0132 28.8258C68.77 28.508 68.4604 28.2524 68.0836 28.06C67.707 27.8674 67.259 27.771 66.7399 27.771C65.7186 27.771 64.9357 28.0812 64.3917 28.7005C63.8475 29.3199 63.517 30.1821 63.3996 31.2874H69.7541H69.7539ZM63.3746 33.1458C63.4081 34.5523 63.7723 35.5823 64.4671 36.2349C65.1617 36.8879 66.1875 37.2148 67.5438 37.2148C68.7322 37.2148 69.8625 37.0052 70.9342 36.5867C71.0678 36.8378 71.1765 37.1434 71.2604 37.5034C71.3426 37.8539 71.393 38.2112 71.411 38.5707C70.8588 38.8058 70.2514 38.9808 69.5905 39.0983C68.9286 39.2151 68.1962 39.2741 67.393 39.2741C66.2205 39.2741 65.2157 39.1103 64.379 38.7841C63.5416 38.4573 62.8509 37.9968 62.3067 37.4027C61.7627 36.8085 61.3648 36.1051 61.1137 35.2929C60.8627 34.481 60.7368 33.5893 60.7368 32.6182C60.7368 31.6638 60.8581 30.772 61.101 29.943C61.3433 29.1147 61.7167 28.3946 62.2184 27.7834C62.721 27.172 63.3529 26.6867 64.1149 26.3267C64.8764 25.9667 65.7763 25.7864 66.8149 25.7864C67.7022 25.7864 68.4807 25.9373 69.1507 26.2386C69.8201 26.5399 70.3812 26.9544 70.8334 27.4819C71.2854 28.0094 71.6286 28.6373 71.8631 29.3653C72.0974 30.094 72.215 30.885 72.215 31.7391C72.215 31.9736 72.2061 32.2204 72.1894 32.4798C72.1757 32.7019 72.159 32.9237 72.1394 33.1453H63.374L63.3743 33.1457L63.3746 33.1458ZM74.954 26.0881C75.1288 26.0564 75.3048 26.0313 75.4815 26.0129C75.6485 25.9965 75.8247 25.988 76.0089 25.988C76.1931 25.988 76.377 25.9965 76.5615 26.0129C76.7455 26.0299 76.9131 26.0551 77.0639 26.0881C77.1136 26.3394 77.1639 26.6704 77.214 27.0802C77.2642 27.4905 77.2897 27.8377 77.2897 28.1225C77.6412 27.5534 78.1059 27.0591 78.6833 26.6404C79.2611 26.2221 80.0019 26.0125 80.906 26.0125C81.0398 26.0125 81.1779 26.017 81.3203 26.0254C81.4422 26.0319 81.564 26.0442 81.6845 26.0627C81.7178 26.2136 81.7435 26.3729 81.76 26.5401C81.7765 26.7074 81.7849 26.8833 81.7849 27.0674C81.7849 27.2685 81.7724 27.4779 81.7474 27.6951C81.7232 27.9051 81.694 28.1144 81.6596 28.3229C81.5239 28.2895 81.3847 28.2727 81.245 28.2727H80.9057C80.4537 28.2727 80.0225 28.3356 79.6123 28.461C79.2017 28.5868 78.8336 28.8087 78.5071 29.1265C78.1809 29.4448 77.9212 29.8803 77.729 30.4329C77.536 30.9854 77.44 31.6971 77.44 32.5676V38.9724C77.2363 39.0078 77.0308 39.033 76.8245 39.0476C76.5988 39.0644 76.3935 39.0725 76.2094 39.0725C76.0041 39.0717 75.7988 39.0634 75.594 39.0476C75.3795 39.032 75.1657 39.0069 74.9534 38.9725V26.0882L74.954 26.0881ZM57.3269 19.2083C57.3269 19.5089 57.2726 19.8071 57.1667 20.0884C56.8852 20.1943 56.587 20.2487 56.2863 20.2487H56.2826C55.9819 20.2488 55.6837 20.1945 55.4023 20.0885C55.2961 19.8071 55.2418 19.5089 55.2418 19.2082V19.2042C55.2418 18.8944 55.2987 18.5977 55.4016 18.3239C55.6831 18.2177 55.9814 18.1635 56.2822 18.1637H56.2856C56.5956 18.1637 56.8922 18.2205 57.166 18.3239C57.2721 18.6053 57.3264 18.9035 57.3262 19.2042V19.2082H57.3266L57.3269 19.2083ZM60.3958 18.5113H57.9622L59.6829 16.7906C59.4123 16.4106 59.0801 16.0785 58.7001 15.8081L56.9792 17.5288V15.0951C56.7504 15.0567 56.5187 15.0372 56.2867 15.0371H56.2822C56.0462 15.0371 55.8149 15.0573 55.5896 15.0951V17.5288L53.8684 15.8079C53.6788 15.9429 53.5009 16.0934 53.3365 16.2581L53.3357 16.2589C53.1713 16.4234 53.0209 16.6013 52.886 16.7907L54.6072 18.5113H52.1732C52.1732 18.5113 52.1153 18.9686 52.1153 19.2049V19.2078C52.1153 19.4441 52.1353 19.6757 52.1733 19.9012H54.6073L52.8858 21.6217C53.1566 22.0016 53.4888 22.3337 53.8688 22.6044L55.5898 20.8838V23.3176C55.8148 23.3554 56.0456 23.3753 56.2815 23.3755H56.2873C56.5191 23.3753 56.7505 23.356 56.9791 23.3176V20.8838L58.7002 22.6048C58.8898 22.4698 59.0678 22.3192 59.2325 22.1547H59.2329C59.3972 21.99 59.5476 21.812 59.6825 21.6224L57.9618 19.9013H60.3959C60.4336 19.676 60.4535 19.4451 60.4535 19.2093V19.2033C60.4535 18.9714 60.4342 18.7402 60.3959 18.5116V18.5113H60.3958ZM16.2832 38.6213L23.0645 28.0723H17.0868C17.0367 27.771 17.0117 27.4364 17.0117 27.0679C17.0117 26.7164 17.0371 26.3896 17.0873 26.088H26.7567L26.8825 26.4151L20.051 36.9887H26.4553C26.5055 37.3237 26.5308 37.6667 26.5308 38.0182C26.5308 38.3535 26.5056 38.6715 26.4554 38.9728H16.409L16.2832 38.6209V38.6213ZM35.8482 32.9196C35.597 32.8865 35.2788 32.8533 34.8938 32.8194C34.5087 32.7862 34.1822 32.7692 33.9147 32.7692C32.8763 32.7692 32.0852 32.9618 31.5414 33.3469C30.9968 33.7323 30.7253 34.3181 30.7253 35.105C30.7253 35.6073 30.817 36.0008 31.0013 36.2854C31.1852 36.5704 31.4156 36.7876 31.6919 36.9384C31.9684 37.0891 32.2736 37.1813 32.6083 37.2148C32.943 37.2482 33.2614 37.2649 33.5627 37.2649C33.9478 37.2649 34.3454 37.2439 34.7557 37.202C35.1658 37.1605 35.53 37.0975 35.8483 37.0137V32.9196H35.8482ZM35.8482 30.4837C35.8482 29.4954 35.597 28.8089 35.0949 28.4238C34.5924 28.0386 33.8641 27.8461 32.9098 27.8461C32.3232 27.8461 31.7753 27.8924 31.2647 27.9844C30.7595 28.0751 30.2603 28.1966 29.77 28.3482C29.4516 27.7956 29.2931 27.1347 29.2931 26.364C29.8617 26.1801 30.4894 26.0378 31.1763 25.9373C31.8628 25.8367 32.5241 25.7864 33.1606 25.7864C34.8349 25.7864 36.1073 26.1676 36.9781 26.9294C37.8485 27.6919 38.2842 28.9098 38.2842 30.5839V38.6462C37.6978 38.7801 36.9865 38.9182 36.1494 39.0606C35.3029 39.2035 34.446 39.2749 33.5876 39.2741C32.7672 39.2741 32.026 39.199 31.3649 39.0482C30.7034 38.8972 30.1424 38.655 29.6821 38.3196C29.2212 37.985 28.8659 37.5579 28.6144 37.039C28.3634 36.5199 28.2377 35.8921 28.2377 35.1552C28.2377 34.4355 28.3842 33.8032 28.6773 33.2588C28.9652 32.7208 29.3736 32.2567 29.8705 31.9026C30.3727 31.5431 30.9503 31.2748 31.6034 31.0993C32.2566 30.9234 32.9428 30.8353 33.6628 30.8353C34.1986 30.8353 34.6381 30.8482 34.9815 30.8733C35.3244 30.8982 35.6134 30.9275 35.8479 30.9611V30.4838L35.8482 30.4837ZM43.4831 36.8626C43.8002 36.9797 44.1285 37.0639 44.4628 37.1138C44.7976 37.1643 45.2325 37.1893 45.7689 37.1893C46.3715 37.1893 46.9238 37.0933 47.4261 36.9007C47.9286 36.7085 48.3596 36.411 48.7196 36.0089C49.0796 35.6073 49.3642 35.1011 49.5735 34.4893C49.7827 33.8785 49.8877 33.1546 49.8877 32.317C49.8877 30.9776 49.6403 29.9144 49.1467 29.1273C48.6524 28.3405 47.8445 27.9469 46.7231 27.9469C46.3046 27.9469 45.9024 28.0221 45.5179 28.173C45.1322 28.3237 44.7892 28.5498 44.4878 28.8511C44.1865 29.1524 43.9437 29.5337 43.7597 29.994C43.5749 30.4549 43.4832 31.0027 43.4832 31.6392V36.863V36.8627L43.4831 36.8626ZM40.9967 26.0879C41.167 26.0543 41.3386 26.0293 41.5115 26.0127C41.6911 25.996 41.8713 25.9877 42.0516 25.9878C42.2185 25.9878 42.3942 25.9964 42.5788 26.0127C42.7627 26.0297 42.9385 26.055 43.1062 26.088C43.1227 26.122 43.1439 26.2262 43.1691 26.4021C43.194 26.5781 43.2191 26.7663 43.2444 26.967C43.2696 27.1681 43.2946 27.3611 43.3198 27.5448C43.3449 27.7292 43.3575 27.8465 43.3575 27.8966C43.5245 27.629 43.7256 27.3692 43.9601 27.1181C44.1946 26.8668 44.4753 26.6408 44.8018 26.4401C45.1283 26.239 45.4964 26.0801 45.9068 25.9627C46.3169 25.8456 46.7732 25.7865 47.2756 25.7865C48.0288 25.7865 48.728 25.9123 49.3729 26.1636C50.0172 26.4151 50.5694 26.8038 51.0301 27.3313C51.4904 27.8589 51.8502 28.5287 52.11 29.3406C52.3694 30.1533 52.4991 31.1117 52.4991 32.2166C52.4991 34.4267 51.9004 36.1559 50.703 37.4031C49.5056 38.6506 47.8108 39.2741 45.6174 39.2741C45.2489 39.2741 44.8724 39.2489 44.4873 39.1988C44.1018 39.1483 43.7673 39.0813 43.4825 38.9979V44.9002C43.2703 44.9347 43.0567 44.9599 42.8424 44.9755C42.6161 44.9919 42.4108 45.0004 42.2267 45.0004C42.0214 44.9995 41.8162 44.9912 41.6115 44.9755C41.4052 44.9609 41.1999 44.9358 40.9963 44.9002V26.088L40.9967 26.0879Z" fill="#FF4A00"/>
</g>
<defs>
<clipPath id="clip0_1180_54035">
<rect width="65.5022" height="30" fill="white" transform="translate(16.2832 15)"/>
</clipPath>
</defs>
</svg>
