<svg width="400" height="60" viewBox="0 0 400 84" fill="none" xmlns="http://www.w3.org/2000/svg">
<rect y="0.276367" width="400" height="83" rx="10" fill="white"/>
<rect x="16" y="16.7764" width="50" height="50" rx="8" fill="#1D3A70"/>
<path d="M40.5616 36.2016C39.5396 36.2016 37.9576 35.0396 36.2916 35.0816C34.0936 35.1096 32.0776 36.3556 30.9436 38.3296C28.6616 42.2916 30.3556 48.1436 32.5816 51.3636C33.6736 52.9316 34.9616 54.6956 36.6696 54.6396C38.3076 54.5696 38.9236 53.5756 40.9116 53.5756C42.8856 53.5756 43.4456 54.6396 45.1816 54.5976C46.9456 54.5696 48.0656 53.0016 49.1436 51.4196C50.3896 49.5996 50.9076 47.8356 50.9356 47.7376C50.8936 47.7236 47.5056 46.4216 47.4636 42.5016C47.4356 39.2256 50.1376 37.6576 50.2636 37.5876C48.7236 35.3336 46.3576 35.0816 45.5316 35.0256C43.3756 34.8576 41.5696 36.2016 40.5616 36.2016ZM44.2016 32.8976C45.1116 31.8056 45.7136 30.2796 45.5456 28.7676C44.2436 28.8236 42.6756 29.6356 41.7376 30.7276C40.8976 31.6936 40.1696 33.2476 40.3656 34.7316C41.8076 34.8436 43.2916 33.9896 44.2016 32.8976Z" fill="white"/>
<path d="M82.468 35.2764L87.112 22.6764H89.2L93.808 35.2764H91.792L90.712 32.1984H85.564L84.484 35.2764H82.468ZM86.104 30.6864H90.172L88.138 24.9444L86.104 30.6864ZM94.9531 35.2764V26.3484H96.6451L96.8071 27.6084C97.0951 27.1524 97.4731 26.7924 97.9411 26.5284C98.4211 26.2644 98.9731 26.1324 99.5971 26.1324C101.013 26.1324 101.997 26.6904 102.549 27.8064C102.873 27.2904 103.305 26.8824 103.845 26.5824C104.397 26.2824 104.991 26.1324 105.627 26.1324C106.743 26.1324 107.619 26.4684 108.255 27.1404C108.891 27.8124 109.209 28.8144 109.209 30.1464V35.2764H107.301V30.3444C107.301 28.6164 106.641 27.7524 105.321 27.7524C104.649 27.7524 104.097 28.0044 103.665 28.5084C103.245 29.0124 103.035 29.7324 103.035 30.6684V35.2764H101.127V30.3444C101.127 28.6164 100.461 27.7524 99.1291 27.7524C98.4691 27.7524 97.9231 28.0044 97.4911 28.5084C97.0711 29.0124 96.8611 29.7324 96.8611 30.6684V35.2764H94.9531ZM113.925 35.4924C113.169 35.4924 112.545 35.3664 112.053 35.1144C111.561 34.8624 111.195 34.5324 110.955 34.1244C110.715 33.7044 110.595 33.2484 110.595 32.7564C110.595 31.8924 110.931 31.2084 111.603 30.7044C112.275 30.2004 113.235 29.9484 114.483 29.9484H116.823V29.7864C116.823 29.0904 116.631 28.5684 116.247 28.2204C115.875 27.8724 115.389 27.6984 114.789 27.6984C114.261 27.6984 113.799 27.8304 113.403 28.0944C113.019 28.3464 112.785 28.7244 112.701 29.2284H110.793C110.853 28.5804 111.069 28.0284 111.441 27.5724C111.825 27.1044 112.305 26.7504 112.881 26.5104C113.469 26.2584 114.111 26.1324 114.807 26.1324C116.055 26.1324 117.021 26.4624 117.705 27.1224C118.389 27.7704 118.731 28.6584 118.731 29.7864V35.2764H117.075L116.913 33.7464C116.661 34.2384 116.295 34.6524 115.815 34.9884C115.335 35.3244 114.705 35.4924 113.925 35.4924ZM114.303 33.9444C114.819 33.9444 115.251 33.8244 115.599 33.5844C115.959 33.3324 116.235 33.0024 116.427 32.5944C116.631 32.1864 116.757 31.7364 116.805 31.2444H114.681C113.925 31.2444 113.385 31.3764 113.061 31.6404C112.749 31.9044 112.593 32.2344 112.593 32.6304C112.593 33.0384 112.743 33.3624 113.043 33.6024C113.355 33.8304 113.775 33.9444 114.303 33.9444ZM119.822 35.2764V33.7284L124.592 27.9324H119.894V26.3484H126.752V27.8964L121.946 33.6924H126.842V35.2764H119.822ZM132.437 35.4924C131.585 35.4924 130.817 35.3004 130.133 34.9164C129.461 34.5204 128.927 33.9744 128.531 33.2784C128.135 32.5704 127.937 31.7484 127.937 30.8124C127.937 29.8764 128.135 29.0604 128.531 28.3644C128.939 27.6564 129.485 27.1104 130.169 26.7264C130.853 26.3304 131.615 26.1324 132.455 26.1324C133.307 26.1324 134.069 26.3304 134.741 26.7264C135.425 27.1104 135.965 27.6564 136.361 28.3644C136.769 29.0604 136.973 29.8764 136.973 30.8124C136.973 31.7484 136.769 32.5704 136.361 33.2784C135.965 33.9744 135.425 34.5204 134.741 34.9164C134.057 35.3004 133.289 35.4924 132.437 35.4924ZM132.437 33.8544C132.893 33.8544 133.313 33.7404 133.697 33.5124C134.093 33.2844 134.411 32.9484 134.651 32.5044C134.891 32.0484 135.011 31.4844 135.011 30.8124C135.011 30.1404 134.891 29.5824 134.651 29.1384C134.423 28.6824 134.111 28.3404 133.715 28.1124C133.331 27.8844 132.911 27.7704 132.455 27.7704C131.999 27.7704 131.573 27.8844 131.177 28.1124C130.793 28.3404 130.481 28.6824 130.241 29.1384C130.001 29.5824 129.881 30.1404 129.881 30.8124C129.881 31.4844 130.001 32.0484 130.241 32.5044C130.481 32.9484 130.793 33.2844 131.177 33.5124C131.561 33.7404 131.981 33.8544 132.437 33.8544ZM138.496 35.2764V26.3484H140.188L140.332 27.9144C140.608 27.3624 141.01 26.9304 141.538 26.6184C142.078 26.2944 142.696 26.1324 143.392 26.1324C144.472 26.1324 145.318 26.4684 145.93 27.1404C146.554 27.8124 146.866 28.8144 146.866 30.1464V35.2764H144.976V30.3444C144.976 28.6164 144.268 27.7524 142.852 27.7524C142.144 27.7524 141.556 28.0044 141.088 28.5084C140.632 29.0124 140.404 29.7324 140.404 30.6684V35.2764H138.496Z" fill="black"/>
<path d="M83.2784 60.2764V48.64H90.5739V50.1514H85.0341V53.6968H90.1932V55.2025H85.0341V58.765H90.642V60.2764H83.2784ZM94.4815 48.64V60.2764H92.7827V48.64H94.4815ZM100.528 60.4525C99.6686 60.4525 98.928 60.2688 98.3068 59.9014C97.6894 59.5302 97.2121 59.0093 96.875 58.3389C96.5417 57.6646 96.375 56.8749 96.375 55.9695C96.375 55.0756 96.5417 54.2877 96.875 53.6059C97.2121 52.9241 97.6818 52.3919 98.2841 52.0093C98.8902 51.6267 99.5985 51.4355 100.409 51.4355C100.902 51.4355 101.379 51.5169 101.841 51.6798C102.303 51.8427 102.718 52.0983 103.085 52.4468C103.453 52.7953 103.742 53.248 103.955 53.8048C104.167 54.3578 104.273 55.0302 104.273 55.8218V56.4241H97.3352V55.1514H102.608C102.608 54.7044 102.517 54.3086 102.335 53.9639C102.153 53.6154 101.898 53.3408 101.568 53.14C101.242 52.9392 100.86 52.8389 100.42 52.8389C99.9432 52.8389 99.5265 52.9563 99.1705 53.1911C98.8182 53.4222 98.5455 53.7252 98.3523 54.1002C98.1629 54.4714 98.0682 54.8749 98.0682 55.3105V56.3048C98.0682 56.8881 98.1705 57.3843 98.375 57.7934C98.5833 58.2025 98.8731 58.515 99.2443 58.7309C99.6155 58.943 100.049 59.0491 100.545 59.0491C100.867 59.0491 101.161 59.0036 101.426 58.9127C101.691 58.818 101.92 58.6779 102.114 58.4923C102.307 58.3067 102.455 58.0775 102.557 57.8048L104.165 58.0945C104.036 58.568 103.805 58.9828 103.472 59.3389C103.142 59.6911 102.727 59.9658 102.227 60.1627C101.731 60.3559 101.165 60.4525 100.528 60.4525ZM109.834 60.4525C108.989 60.4525 108.262 60.2612 107.652 59.8786C107.046 59.4923 106.58 58.9601 106.254 58.282C105.929 57.604 105.766 56.8275 105.766 55.9525C105.766 55.0661 105.932 54.2839 106.266 53.6059C106.599 52.9241 107.069 52.3919 107.675 52.0093C108.281 51.6267 108.995 51.4355 109.817 51.4355C110.48 51.4355 111.071 51.5586 111.589 51.8048C112.108 52.0472 112.527 52.3881 112.845 52.8275C113.167 53.2669 113.358 53.7802 113.419 54.3673H111.766C111.675 53.9582 111.466 53.6059 111.141 53.3105C110.819 53.015 110.387 52.8673 109.845 52.8673C109.372 52.8673 108.957 52.9923 108.601 53.2423C108.249 53.4885 107.974 53.8408 107.777 54.2991C107.58 54.7536 107.482 55.2915 107.482 55.9127C107.482 56.5491 107.578 57.0983 107.771 57.5605C107.964 58.0226 108.237 58.3805 108.589 58.6343C108.946 58.8881 109.364 59.015 109.845 59.015C110.167 59.015 110.459 58.9563 110.72 58.8389C110.985 58.7177 111.207 58.5453 111.385 58.3218C111.567 58.0983 111.694 57.8294 111.766 57.515H113.419C113.358 58.0794 113.175 58.5832 112.868 59.0264C112.561 59.4695 112.15 59.818 111.635 60.0718C111.124 60.3256 110.523 60.4525 109.834 60.4525ZM119.31 51.5491V52.9127H114.543V51.5491H119.31ZM115.821 49.4582H117.52V57.7139C117.52 58.0434 117.569 58.2915 117.668 58.4582C117.766 58.6211 117.893 58.7328 118.048 58.7934C118.207 58.8502 118.38 58.8786 118.565 58.8786C118.702 58.8786 118.821 58.8692 118.923 58.8502C119.026 58.8313 119.105 58.8161 119.162 58.8048L119.469 60.2082C119.37 60.2461 119.23 60.2839 119.048 60.3218C118.866 60.3635 118.639 60.3862 118.366 60.39C117.92 60.3976 117.503 60.318 117.116 60.1514C116.73 59.9847 116.418 59.7271 116.179 59.3786C115.94 59.0302 115.821 58.5927 115.821 58.0661V49.4582ZM121.189 60.2764V51.5491H122.831V52.9355H122.922C123.081 52.4658 123.361 52.0964 123.763 51.8275C124.168 51.5548 124.626 51.4184 125.138 51.4184C125.244 51.4184 125.369 51.4222 125.513 51.4298C125.661 51.4374 125.776 51.4468 125.859 51.4582V53.0832C125.791 53.0642 125.67 53.0434 125.496 53.0207C125.321 52.9942 125.147 52.9809 124.973 52.9809C124.571 52.9809 124.214 53.0661 123.899 53.2366C123.589 53.4033 123.342 53.6362 123.161 53.9355C122.979 54.2309 122.888 54.568 122.888 54.9468V60.2764H121.189ZM130.693 60.4525C129.875 60.4525 129.161 60.265 128.551 59.89C127.941 59.515 127.468 58.9904 127.131 58.3161C126.794 57.6419 126.625 56.854 126.625 55.9525C126.625 55.0472 126.794 54.2555 127.131 53.5775C127.468 52.8995 127.941 52.373 128.551 51.998C129.161 51.623 129.875 51.4355 130.693 51.4355C131.511 51.4355 132.225 51.623 132.835 51.998C133.445 52.373 133.919 52.8995 134.256 53.5775C134.593 54.2555 134.761 55.0472 134.761 55.9525C134.761 56.854 134.593 57.6419 134.256 58.3161C133.919 58.9904 133.445 59.515 132.835 59.89C132.225 60.265 131.511 60.4525 130.693 60.4525ZM130.699 59.0264C131.229 59.0264 131.669 58.8862 132.017 58.6059C132.366 58.3256 132.623 57.9525 132.79 57.4866C132.96 57.0207 133.045 56.5074 133.045 55.9468C133.045 55.39 132.96 54.8786 132.79 54.4127C132.623 53.943 132.366 53.5661 132.017 53.282C131.669 52.998 131.229 52.8559 130.699 52.8559C130.165 52.8559 129.722 52.998 129.369 53.282C129.021 53.5661 128.761 53.943 128.591 54.4127C128.424 54.8786 128.341 55.39 128.341 55.9468C128.341 56.5074 128.424 57.0207 128.591 57.4866C128.761 57.9525 129.021 58.3256 129.369 58.6059C129.722 58.8862 130.165 59.0264 130.699 59.0264ZM138.357 55.0945V60.2764H136.658V51.5491H138.288V52.9695H138.396C138.597 52.5074 138.911 52.1362 139.339 51.8559C139.771 51.5756 140.315 51.4355 140.97 51.4355C141.565 51.4355 142.086 51.5605 142.533 51.8105C142.98 52.0567 143.326 52.4241 143.572 52.9127C143.819 53.4014 143.942 54.0055 143.942 54.7252V60.2764H142.243V54.9298C142.243 54.2972 142.078 53.8029 141.749 53.4468C141.419 53.087 140.966 52.907 140.391 52.907C139.997 52.907 139.646 52.9923 139.339 53.1627C139.036 53.3332 138.796 53.5832 138.618 53.9127C138.444 54.2385 138.357 54.6324 138.357 55.0945ZM146.22 60.2764V51.5491H147.919V60.2764H146.22ZM147.078 50.2025C146.783 50.2025 146.529 50.104 146.317 49.907C146.108 49.7063 146.004 49.4677 146.004 49.1911C146.004 48.9108 146.108 48.6722 146.317 48.4752C146.529 48.2745 146.783 48.1741 147.078 48.1741C147.374 48.1741 147.625 48.2745 147.834 48.4752C148.046 48.6722 148.152 48.9108 148.152 49.1911C148.152 49.4677 148.046 49.7063 147.834 49.907C147.625 50.104 147.374 50.2025 147.078 50.2025ZM153.881 60.4525C153.036 60.4525 152.309 60.2612 151.699 59.8786C151.093 59.4923 150.627 58.9601 150.301 58.282C149.975 57.604 149.812 56.8275 149.812 55.9525C149.812 55.0661 149.979 54.2839 150.312 53.6059C150.646 52.9241 151.116 52.3919 151.722 52.0093C152.328 51.6267 153.042 51.4355 153.864 51.4355C154.527 51.4355 155.117 51.5586 155.636 51.8048C156.155 52.0472 156.574 52.3881 156.892 52.8275C157.214 53.2669 157.405 53.7802 157.466 54.3673H155.812C155.722 53.9582 155.513 53.6059 155.188 53.3105C154.866 53.015 154.434 52.8673 153.892 52.8673C153.419 52.8673 153.004 52.9923 152.648 53.2423C152.295 53.4885 152.021 53.8408 151.824 54.2991C151.627 54.7536 151.528 55.2915 151.528 55.9127C151.528 56.5491 151.625 57.0983 151.818 57.5605C152.011 58.0226 152.284 58.3805 152.636 58.6343C152.992 58.8881 153.411 59.015 153.892 59.015C154.214 59.015 154.506 58.9563 154.767 58.8389C155.032 58.7177 155.254 58.5453 155.432 58.3218C155.614 58.0983 155.741 57.8294 155.812 57.515H157.466C157.405 58.0794 157.222 58.5832 156.915 59.0264C156.608 59.4695 156.197 59.818 155.682 60.0718C155.17 60.3256 154.57 60.4525 153.881 60.4525ZM165.822 53.6798L164.283 53.9525C164.218 53.7555 164.116 53.568 163.976 53.39C163.839 53.212 163.654 53.0661 163.419 52.9525C163.184 52.8389 162.891 52.782 162.538 52.782C162.057 52.782 161.656 52.89 161.334 53.1059C161.012 53.318 160.851 53.5927 160.851 53.9298C160.851 54.2214 160.959 54.4563 161.175 54.6343C161.391 54.8124 161.739 54.9582 162.22 55.0718L163.607 55.39C164.41 55.5756 165.008 55.8616 165.402 56.248C165.796 56.6343 165.993 57.1362 165.993 57.7536C165.993 58.2764 165.841 58.7423 165.538 59.1514C165.239 59.5567 164.821 59.8749 164.283 60.1059C163.749 60.337 163.129 60.4525 162.425 60.4525C161.447 60.4525 160.65 60.2442 160.033 59.8275C159.415 59.407 159.036 58.8105 158.896 58.0377L160.538 57.7877C160.641 58.2158 160.851 58.5396 161.169 58.7593C161.487 58.9752 161.902 59.0832 162.413 59.0832C162.97 59.0832 163.415 58.9677 163.749 58.7366C164.082 58.5017 164.249 58.2158 164.249 57.8786C164.249 57.6059 164.146 57.3767 163.942 57.1911C163.741 57.0055 163.432 56.8654 163.016 56.7707L161.538 56.4468C160.724 56.2612 160.122 55.9658 159.732 55.5605C159.345 55.1552 159.152 54.6419 159.152 54.0207C159.152 53.5055 159.296 53.0548 159.584 52.6684C159.872 52.282 160.269 51.9809 160.777 51.765C161.285 51.5453 161.866 51.4355 162.521 51.4355C163.464 51.4355 164.207 51.64 164.749 52.0491C165.29 52.4544 165.648 52.998 165.822 53.6798Z" fill="#1A191E" fill-opacity="0.5"/>
<path d="M323.026 43.8484V42.2464H330.352V43.8484H323.026ZM332.09 48.2764V35.6764H336.428C337.424 35.6764 338.24 35.8444 338.876 36.1804C339.524 36.5164 340.004 36.9724 340.316 37.5484C340.628 38.1124 340.784 38.7424 340.784 39.4384C340.784 40.2184 340.574 40.9264 340.154 41.5624C339.746 42.1984 339.104 42.6544 338.228 42.9304L340.91 48.2764H338.696L336.248 43.2004H333.998V48.2764H332.09ZM333.998 41.7604H336.32C337.184 41.7604 337.814 41.5504 338.21 41.1304C338.618 40.7104 338.822 40.1644 338.822 39.4924C338.822 38.8204 338.624 38.2864 338.228 37.8904C337.832 37.4824 337.19 37.2784 336.302 37.2784H333.998V41.7604ZM345.764 48.4924C344.636 48.4924 343.706 48.2164 342.974 47.6644C342.242 47.1124 341.822 46.3804 341.714 45.4684H343.64C343.736 45.8764 343.964 46.2304 344.324 46.5304C344.684 46.8184 345.158 46.9624 345.746 46.9624C346.322 46.9624 346.742 46.8424 347.006 46.6024C347.27 46.3624 347.402 46.0864 347.402 45.7744C347.402 45.3184 347.216 45.0124 346.844 44.8564C346.484 44.6884 345.98 44.5384 345.332 44.4064C344.828 44.2984 344.324 44.1544 343.82 43.9744C343.328 43.7944 342.914 43.5424 342.578 43.2184C342.254 42.8824 342.092 42.4324 342.092 41.8684C342.092 41.0884 342.392 40.4404 342.992 39.9244C343.592 39.3964 344.432 39.1324 345.512 39.1324C346.508 39.1324 347.312 39.3724 347.924 39.8524C348.548 40.3324 348.914 41.0104 349.022 41.8864H347.186C347.126 41.5024 346.946 41.2024 346.646 40.9864C346.358 40.7704 345.968 40.6624 345.476 40.6624C344.996 40.6624 344.624 40.7644 344.36 40.9684C344.096 41.1604 343.964 41.4124 343.964 41.7244C343.964 42.0364 344.144 42.2824 344.504 42.4624C344.876 42.6424 345.362 42.8044 345.962 42.9484C346.562 43.0804 347.114 43.2364 347.618 43.4164C348.134 43.5844 348.548 43.8364 348.86 44.1724C349.172 44.5084 349.328 45.0004 349.328 45.6484C349.34 46.4644 349.022 47.1424 348.374 47.6824C347.738 48.2224 346.868 48.4924 345.764 48.4924ZM360.68 48.2764V45.7564H354.362V44.2444L360.374 35.6764H362.57V44.1004H364.334V45.7564H362.57V48.2764H360.68ZM356.432 44.1004H360.788V37.7824L356.432 44.1004ZM369.843 48.4924C369.015 48.4924 368.307 48.3304 367.719 48.0064C367.131 47.6824 366.669 47.2504 366.333 46.7104C366.009 46.1704 365.811 45.5824 365.739 44.9464H367.521C367.629 45.5704 367.887 46.0504 368.295 46.3864C368.703 46.7224 369.225 46.8904 369.861 46.8904C370.737 46.8904 371.457 46.4824 372.021 45.6664C372.597 44.8384 372.903 43.5724 372.939 41.8684C372.651 42.3964 372.201 42.8464 371.589 43.2184C370.989 43.5904 370.293 43.7764 369.501 43.7764C368.793 43.7764 368.127 43.6084 367.503 43.2724C366.879 42.9364 366.375 42.4684 365.991 41.8684C365.607 41.2564 365.415 40.5364 365.415 39.7084C365.415 38.9764 365.595 38.2864 365.955 37.6384C366.315 36.9904 366.819 36.4684 367.467 36.0724C368.127 35.6644 368.907 35.4604 369.807 35.4604C370.731 35.4604 371.511 35.6344 372.147 35.9824C372.783 36.3304 373.293 36.7924 373.677 37.3684C374.061 37.9444 374.337 38.5924 374.505 39.3124C374.685 40.0324 374.775 40.7704 374.775 41.5264C374.775 42.9184 374.577 44.1364 374.181 45.1804C373.797 46.2244 373.239 47.0404 372.507 47.6284C371.775 48.2044 370.887 48.4924 369.843 48.4924ZM369.933 42.1384C370.437 42.1384 370.887 42.0244 371.283 41.7964C371.679 41.5684 371.991 41.2684 372.219 40.8964C372.459 40.5124 372.579 40.0924 372.579 39.6364C372.579 39.1444 372.459 38.7124 372.219 38.3404C371.991 37.9564 371.673 37.6564 371.265 37.4404C370.869 37.2244 370.419 37.1164 369.915 37.1164C369.411 37.1164 368.961 37.2244 368.565 37.4404C368.169 37.6564 367.851 37.9564 367.611 38.3404C367.383 38.7124 367.269 39.1384 367.269 39.6184C367.269 40.3864 367.521 40.9984 368.025 41.4544C368.529 41.9104 369.165 42.1384 369.933 42.1384Z" fill="black"/>
</svg>
