<svg width="400" height="60" viewBox="0 0 400 84" fill="none" xmlns="http://www.w3.org/2000/svg">
<rect y="0.276367" width="400" height="83" rx="10" fill="white"/>
<rect x="16" y="16.7764" width="50" height="50" rx="8" fill="#1D3A70"/>
<path d="M40.5616 36.2016C39.5396 36.2016 37.9576 35.0396 36.2916 35.0816C34.0936 35.1096 32.0776 36.3556 30.9436 38.3296C28.6616 42.2916 30.3556 48.1436 32.5816 51.3636C33.6736 52.9316 34.9616 54.6956 36.6696 54.6396C38.3076 54.5696 38.9236 53.5756 40.9116 53.5756C42.8856 53.5756 43.4456 54.6396 45.1816 54.5976C46.9456 54.5696 48.0656 53.0016 49.1436 51.4196C50.3896 49.5996 50.9076 47.8356 50.9356 47.7376C50.8936 47.7236 47.5056 46.4216 47.4636 42.5016C47.4356 39.2256 50.1376 37.6576 50.2636 37.5876C48.7236 35.3336 46.3576 35.0816 45.5316 35.0256C43.3756 34.8576 41.5696 36.2016 40.5616 36.2016ZM44.2016 32.8976C45.1116 31.8056 45.7136 30.2796 45.5456 28.7676C44.2436 28.8236 42.6756 29.6356 41.7376 30.7276C40.8976 31.6936 40.1696 33.2476 40.3656 34.7316C41.8076 34.8436 43.2916 33.9896 44.2016 32.8976Z" fill="white"/>
<path d="M82.468 35.2764L87.112 22.6764H89.2L93.808 35.2764H91.792L90.712 32.1984H85.564L84.484 35.2764H82.468ZM86.104 30.6864H90.172L88.138 24.9444L86.104 30.6864ZM94.9531 39.2364V26.3484H96.6631L96.8611 27.7344C97.1491 27.3144 97.5451 26.9424 98.0491 26.6184C98.5531 26.2944 99.2011 26.1324 99.9931 26.1324C100.857 26.1324 101.619 26.3364 102.279 26.7444C102.939 27.1524 103.455 27.7104 103.827 28.4184C104.211 29.1264 104.403 29.9304 104.403 30.8304C104.403 31.7304 104.211 32.5344 103.827 33.2424C103.455 33.9384 102.939 34.4904 102.279 34.8984C101.619 35.2944 100.851 35.4924 99.9751 35.4924C99.2791 35.4924 98.6611 35.3544 98.1211 35.0784C97.5931 34.8024 97.1731 34.4124 96.8611 33.9084V39.2364H94.9531ZM99.6511 33.8364C100.467 33.8364 101.139 33.5604 101.667 33.0084C102.195 32.4444 102.459 31.7124 102.459 30.8124C102.459 30.2244 102.339 29.7024 102.099 29.2464C101.859 28.7904 101.529 28.4364 101.109 28.1844C100.689 27.9204 100.203 27.7884 99.6511 27.7884C98.8351 27.7884 98.1631 28.0704 97.6351 28.6344C97.1191 29.1984 96.8611 29.9244 96.8611 30.8124C96.8611 31.7124 97.1191 32.4444 97.6351 33.0084C98.1631 33.5604 98.8351 33.8364 99.6511 33.8364ZM105.927 39.2364V26.3484H107.637L107.835 27.7344C108.123 27.3144 108.519 26.9424 109.023 26.6184C109.527 26.2944 110.175 26.1324 110.967 26.1324C111.831 26.1324 112.593 26.3364 113.253 26.7444C113.913 27.1524 114.429 27.7104 114.801 28.4184C115.185 29.1264 115.377 29.9304 115.377 30.8304C115.377 31.7304 115.185 32.5344 114.801 33.2424C114.429 33.9384 113.913 34.4904 113.253 34.8984C112.593 35.2944 111.825 35.4924 110.949 35.4924C110.253 35.4924 109.635 35.3544 109.095 35.0784C108.567 34.8024 108.147 34.4124 107.835 33.9084V39.2364H105.927ZM110.625 33.8364C111.441 33.8364 112.113 33.5604 112.641 33.0084C113.169 32.4444 113.433 31.7124 113.433 30.8124C113.433 30.2244 113.313 29.7024 113.073 29.2464C112.833 28.7904 112.503 28.4364 112.083 28.1844C111.663 27.9204 111.177 27.7884 110.625 27.7884C109.809 27.7884 109.137 28.0704 108.609 28.6344C108.093 29.1984 107.835 29.9244 107.835 30.8124C107.835 31.7124 108.093 32.4444 108.609 33.0084C109.137 33.5604 109.809 33.8364 110.625 33.8364ZM116.9 35.2764V22.3164H118.808V35.2764H116.9ZM124.861 35.4924C123.985 35.4924 123.205 35.3004 122.521 34.9164C121.849 34.5204 121.321 33.9744 120.937 33.2784C120.553 32.5824 120.361 31.7724 120.361 30.8484C120.361 29.9124 120.547 29.0904 120.919 28.3824C121.303 27.6744 121.831 27.1224 122.503 26.7264C123.187 26.3304 123.979 26.1324 124.879 26.1324C125.755 26.1324 126.517 26.3304 127.165 26.7264C127.813 27.1104 128.317 27.6264 128.677 28.2744C129.037 28.9224 129.217 29.6364 129.217 30.4164C129.217 30.5364 129.211 30.6684 129.199 30.8124C129.199 30.9444 129.193 31.0944 129.181 31.2624H122.233C122.293 32.1264 122.575 32.7864 123.079 33.2424C123.595 33.6864 124.189 33.9084 124.861 33.9084C125.401 33.9084 125.851 33.7884 126.211 33.5484C126.583 33.2964 126.859 32.9604 127.039 32.5404H128.947C128.707 33.3804 128.227 34.0824 127.507 34.6464C126.799 35.2104 125.917 35.4924 124.861 35.4924ZM124.861 27.6984C124.225 27.6984 123.661 27.8904 123.169 28.2744C122.677 28.6464 122.377 29.2104 122.269 29.9664H127.309C127.273 29.2704 127.027 28.7184 126.571 28.3104C126.115 27.9024 125.545 27.6984 124.861 27.6984Z" fill="black"/>
<path d="M83.2784 48.64H85.4091L89.1136 57.6855H89.25L92.9545 48.64H95.0852V60.2764H93.4148V51.8559H93.3068L89.875 60.2593H88.4886L85.0568 51.8502H84.9489V60.2764H83.2784V48.64ZM100.041 60.4695C99.4882 60.4695 98.9882 60.3673 98.5412 60.1627C98.0942 59.9544 97.7401 59.6533 97.4787 59.2593C97.2211 58.8654 97.0923 58.3824 97.0923 57.8105C97.0923 57.318 97.187 56.9127 97.3764 56.5945C97.5658 56.2764 97.8215 56.0245 98.1435 55.8389C98.4654 55.6533 98.8253 55.5131 99.223 55.4184C99.6207 55.3237 100.026 55.2517 100.439 55.2025C100.962 55.1419 101.386 55.0927 101.712 55.0548C102.037 55.0131 102.274 54.9468 102.422 54.8559C102.57 54.765 102.643 54.6173 102.643 54.4127V54.373C102.643 53.8767 102.503 53.4923 102.223 53.2195C101.946 52.9468 101.534 52.8105 100.984 52.8105C100.412 52.8105 99.9616 52.9374 99.6321 53.1911C99.3063 53.4411 99.081 53.7195 98.956 54.0264L97.3594 53.6627C97.5488 53.1324 97.8253 52.7044 98.1889 52.3786C98.5563 52.0491 98.9787 51.8105 99.456 51.6627C99.9332 51.5112 100.435 51.4355 100.962 51.4355C101.31 51.4355 101.679 51.4771 102.07 51.5605C102.464 51.64 102.831 51.7877 103.172 52.0036C103.517 52.2195 103.799 52.5283 104.018 52.9298C104.238 53.3275 104.348 53.8445 104.348 54.4809V60.2764H102.689V59.0832H102.621C102.511 59.3029 102.346 59.5188 102.126 59.7309C101.907 59.943 101.625 60.1192 101.28 60.2593C100.935 60.3995 100.522 60.4695 100.041 60.4695ZM100.411 59.1059C100.88 59.1059 101.282 59.0131 101.615 58.8275C101.952 58.6419 102.208 58.3995 102.382 58.1002C102.56 57.7972 102.649 57.4733 102.649 57.1286V56.0036C102.589 56.0642 102.471 56.1211 102.297 56.1741C102.126 56.2233 101.931 56.2669 101.712 56.3048C101.492 56.3389 101.278 56.3711 101.07 56.4014C100.861 56.4279 100.687 56.4506 100.547 56.4695C100.217 56.5112 99.9162 56.5813 99.6435 56.6798C99.3745 56.7783 99.1586 56.9203 98.9957 57.1059C98.8366 57.2877 98.7571 57.5302 98.7571 57.8332C98.7571 58.2536 98.9124 58.5718 99.223 58.7877C99.5336 58.9999 99.9295 59.1059 100.411 59.1059ZM110.287 60.4525C109.442 60.4525 108.715 60.2612 108.105 59.8786C107.499 59.4923 107.033 58.9601 106.707 58.282C106.382 57.604 106.219 56.8275 106.219 55.9525C106.219 55.0661 106.385 54.2839 106.719 53.6059C107.052 52.9241 107.522 52.3919 108.128 52.0093C108.734 51.6267 109.448 51.4355 110.27 51.4355C110.933 51.4355 111.524 51.5586 112.043 51.8048C112.562 52.0472 112.98 52.3881 113.298 52.8275C113.62 53.2669 113.812 53.7802 113.872 54.3673H112.219C112.128 53.9582 111.92 53.6059 111.594 53.3105C111.272 53.015 110.84 52.8673 110.298 52.8673C109.825 52.8673 109.41 52.9923 109.054 53.2423C108.702 53.4885 108.427 53.8408 108.23 54.2991C108.033 54.7536 107.935 55.2915 107.935 55.9127C107.935 56.5491 108.031 57.0983 108.224 57.5605C108.418 58.0226 108.69 58.3805 109.043 58.6343C109.399 58.8881 109.817 59.015 110.298 59.015C110.62 59.015 110.912 58.9563 111.173 58.8389C111.438 58.7177 111.66 58.5453 111.838 58.3218C112.02 58.0983 112.147 57.8294 112.219 57.515H113.872C113.812 58.0794 113.628 58.5832 113.321 59.0264C113.014 59.4695 112.603 59.818 112.088 60.0718C111.577 60.3256 110.976 60.4525 110.287 60.4525ZM115.825 60.2764V48.64H117.524V52.9639H117.626C117.725 52.782 117.867 52.5718 118.053 52.3332C118.238 52.0945 118.496 51.8862 118.825 51.7082C119.155 51.5264 119.59 51.4355 120.132 51.4355C120.837 51.4355 121.465 51.6135 122.018 51.9695C122.571 52.3256 123.005 52.8389 123.32 53.5093C123.638 54.1798 123.797 54.9866 123.797 55.9298C123.797 56.873 123.64 57.6817 123.325 58.3559C123.011 59.0264 122.579 59.5434 122.03 59.907C121.481 60.2669 120.854 60.4468 120.149 60.4468C119.619 60.4468 119.185 60.3578 118.848 60.1798C118.515 60.0017 118.253 59.7934 118.064 59.5548C117.875 59.3161 117.729 59.104 117.626 58.9184H117.484V60.2764H115.825ZM117.49 55.9127C117.49 56.5264 117.579 57.0642 117.757 57.5264C117.935 57.9885 118.193 58.3502 118.53 58.6116C118.867 58.8692 119.28 58.998 119.768 58.998C120.276 58.998 120.7 58.8635 121.041 58.5945C121.382 58.3218 121.64 57.9525 121.814 57.4866C121.992 57.0207 122.081 56.4961 122.081 55.9127C122.081 55.337 121.994 54.8199 121.82 54.3616C121.649 53.9033 121.392 53.5415 121.047 53.2764C120.706 53.0112 120.28 52.8786 119.768 52.8786C119.276 52.8786 118.859 53.0055 118.518 53.2593C118.181 53.5131 117.926 53.8673 117.751 54.3218C117.577 54.7764 117.49 55.3067 117.49 55.9127ZM129.381 60.4525C128.563 60.4525 127.848 60.265 127.239 59.89C126.629 59.515 126.155 58.9904 125.818 58.3161C125.481 57.6419 125.312 56.854 125.312 55.9525C125.312 55.0472 125.481 54.2555 125.818 53.5775C126.155 52.8995 126.629 52.373 127.239 51.998C127.848 51.623 128.563 51.4355 129.381 51.4355C130.199 51.4355 130.913 51.623 131.523 51.998C132.133 52.373 132.606 52.8995 132.943 53.5775C133.28 54.2555 133.449 55.0472 133.449 55.9525C133.449 56.854 133.28 57.6419 132.943 58.3161C132.606 58.9904 132.133 59.515 131.523 59.89C130.913 60.265 130.199 60.4525 129.381 60.4525ZM129.386 59.0264C129.917 59.0264 130.356 58.8862 130.705 58.6059C131.053 58.3256 131.311 57.9525 131.477 57.4866C131.648 57.0207 131.733 56.5074 131.733 55.9468C131.733 55.39 131.648 54.8786 131.477 54.4127C131.311 53.943 131.053 53.5661 130.705 53.282C130.356 52.998 129.917 52.8559 129.386 52.8559C128.852 52.8559 128.409 52.998 128.057 53.282C127.708 53.5661 127.449 53.943 127.278 54.4127C127.112 54.8786 127.028 55.39 127.028 55.9468C127.028 56.5074 127.112 57.0207 127.278 57.4866C127.449 57.9525 127.708 58.3256 128.057 58.6059C128.409 58.8862 128.852 59.0264 129.386 59.0264ZM139.021 60.4525C138.203 60.4525 137.489 60.265 136.879 59.89C136.269 59.515 135.796 58.9904 135.459 58.3161C135.122 57.6419 134.953 56.854 134.953 55.9525C134.953 55.0472 135.122 54.2555 135.459 53.5775C135.796 52.8995 136.269 52.373 136.879 51.998C137.489 51.623 138.203 51.4355 139.021 51.4355C139.839 51.4355 140.554 51.623 141.163 51.998C141.773 52.373 142.247 52.8995 142.584 53.5775C142.921 54.2555 143.089 55.0472 143.089 55.9525C143.089 56.854 142.921 57.6419 142.584 58.3161C142.247 58.9904 141.773 59.515 141.163 59.89C140.554 60.265 139.839 60.4525 139.021 60.4525ZM139.027 59.0264C139.557 59.0264 139.997 58.8862 140.345 58.6059C140.694 58.3256 140.951 57.9525 141.118 57.4866C141.288 57.0207 141.374 56.5074 141.374 55.9468C141.374 55.39 141.288 54.8786 141.118 54.4127C140.951 53.943 140.694 53.5661 140.345 53.282C139.997 52.998 139.557 52.8559 139.027 52.8559C138.493 52.8559 138.05 52.998 137.697 53.282C137.349 53.5661 137.089 53.943 136.919 54.4127C136.752 54.8786 136.669 55.39 136.669 55.9468C136.669 56.5074 136.752 57.0207 136.919 57.4866C137.089 57.9525 137.349 58.3256 137.697 58.6059C138.05 58.8862 138.493 59.0264 139.027 59.0264ZM146.548 57.3161L146.537 55.2423H146.832L150.31 51.5491H152.344L148.378 55.7536H148.111L146.548 57.3161ZM144.986 60.2764V48.64H146.685V60.2764H144.986ZM150.497 60.2764L147.372 56.1286L148.543 54.9411L152.582 60.2764H150.497Z" fill="#1A191E" fill-opacity="0.5"/>
<path d="M308.026 43.8484V42.2464H315.352V43.8484H308.026ZM321.085 48.2764V35.6764H325.423C326.419 35.6764 327.235 35.8444 327.871 36.1804C328.519 36.5164 328.999 36.9724 329.311 37.5484C329.623 38.1124 329.779 38.7424 329.779 39.4384C329.779 40.2184 329.569 40.9264 329.149 41.5624C328.741 42.1984 328.099 42.6544 327.223 42.9304L329.905 48.2764H327.691L325.243 43.2004H322.993V48.2764H321.085ZM322.993 41.7604H325.315C326.179 41.7604 326.809 41.5504 327.205 41.1304C327.613 40.7104 327.817 40.1644 327.817 39.4924C327.817 38.8204 327.619 38.2864 327.223 37.8904C326.827 37.4824 326.185 37.2784 325.297 37.2784H322.993V41.7604ZM334.759 48.4924C333.631 48.4924 332.701 48.2164 331.969 47.6644C331.237 47.1124 330.817 46.3804 330.709 45.4684H332.635C332.731 45.8764 332.959 46.2304 333.319 46.5304C333.679 46.8184 334.153 46.9624 334.741 46.9624C335.317 46.9624 335.737 46.8424 336.001 46.6024C336.265 46.3624 336.397 46.0864 336.397 45.7744C336.397 45.3184 336.211 45.0124 335.839 44.8564C335.479 44.6884 334.975 44.5384 334.327 44.4064C333.823 44.2984 333.319 44.1544 332.815 43.9744C332.323 43.7944 331.909 43.5424 331.573 43.2184C331.249 42.8824 331.087 42.4324 331.087 41.8684C331.087 41.0884 331.387 40.4404 331.987 39.9244C332.587 39.3964 333.427 39.1324 334.507 39.1324C335.503 39.1324 336.307 39.3724 336.919 39.8524C337.543 40.3324 337.909 41.0104 338.017 41.8864H336.181C336.121 41.5024 335.941 41.2024 335.641 40.9864C335.353 40.7704 334.963 40.6624 334.471 40.6624C333.991 40.6624 333.619 40.7644 333.355 40.9684C333.091 41.1604 332.959 41.4124 332.959 41.7244C332.959 42.0364 333.139 42.2824 333.499 42.4624C333.871 42.6424 334.357 42.8044 334.957 42.9484C335.557 43.0804 336.109 43.2364 336.613 43.4164C337.129 43.5844 337.543 43.8364 337.855 44.1724C338.167 44.5084 338.323 45.0004 338.323 45.6484C338.335 46.4644 338.017 47.1424 337.369 47.6824C336.733 48.2224 335.863 48.4924 334.759 48.4924ZM348.163 48.4924C347.335 48.4924 346.627 48.3304 346.039 48.0064C345.451 47.6824 344.989 47.2504 344.653 46.7104C344.329 46.1704 344.131 45.5824 344.059 44.9464H345.841C345.949 45.5704 346.207 46.0504 346.615 46.3864C347.023 46.7224 347.545 46.8904 348.181 46.8904C349.057 46.8904 349.777 46.4824 350.341 45.6664C350.917 44.8384 351.223 43.5724 351.259 41.8684C350.971 42.3964 350.521 42.8464 349.909 43.2184C349.309 43.5904 348.613 43.7764 347.821 43.7764C347.113 43.7764 346.447 43.6084 345.823 43.2724C345.199 42.9364 344.695 42.4684 344.311 41.8684C343.927 41.2564 343.735 40.5364 343.735 39.7084C343.735 38.9764 343.915 38.2864 344.275 37.6384C344.635 36.9904 345.139 36.4684 345.787 36.0724C346.447 35.6644 347.227 35.4604 348.127 35.4604C349.051 35.4604 349.831 35.6344 350.467 35.9824C351.103 36.3304 351.613 36.7924 351.997 37.3684C352.381 37.9444 352.657 38.5924 352.825 39.3124C353.005 40.0324 353.095 40.7704 353.095 41.5264C353.095 42.9184 352.897 44.1364 352.501 45.1804C352.117 46.2244 351.559 47.0404 350.827 47.6284C350.095 48.2044 349.207 48.4924 348.163 48.4924ZM348.253 42.1384C348.757 42.1384 349.207 42.0244 349.603 41.7964C349.999 41.5684 350.311 41.2684 350.539 40.8964C350.779 40.5124 350.899 40.0924 350.899 39.6364C350.899 39.1444 350.779 38.7124 350.539 38.3404C350.311 37.9564 349.993 37.6564 349.585 37.4404C349.189 37.2244 348.739 37.1164 348.235 37.1164C347.731 37.1164 347.281 37.2244 346.885 37.4404C346.489 37.6564 346.171 37.9564 345.931 38.3404C345.703 38.7124 345.589 39.1384 345.589 39.6184C345.589 40.3864 345.841 40.9984 346.345 41.4544C346.849 41.9104 347.485 42.1384 348.253 42.1384ZM358.997 48.4924C358.169 48.4924 357.461 48.3304 356.873 48.0064C356.285 47.6824 355.823 47.2504 355.487 46.7104C355.163 46.1704 354.965 45.5824 354.893 44.9464H356.675C356.783 45.5704 357.041 46.0504 357.449 46.3864C357.857 46.7224 358.379 46.8904 359.015 46.8904C359.891 46.8904 360.611 46.4824 361.175 45.6664C361.751 44.8384 362.057 43.5724 362.093 41.8684C361.805 42.3964 361.355 42.8464 360.743 43.2184C360.143 43.5904 359.447 43.7764 358.655 43.7764C357.947 43.7764 357.281 43.6084 356.657 43.2724C356.033 42.9364 355.529 42.4684 355.145 41.8684C354.761 41.2564 354.569 40.5364 354.569 39.7084C354.569 38.9764 354.749 38.2864 355.109 37.6384C355.469 36.9904 355.973 36.4684 356.621 36.0724C357.281 35.6644 358.061 35.4604 358.961 35.4604C359.885 35.4604 360.665 35.6344 361.301 35.9824C361.937 36.3304 362.447 36.7924 362.831 37.3684C363.215 37.9444 363.491 38.5924 363.659 39.3124C363.839 40.0324 363.929 40.7704 363.929 41.5264C363.929 42.9184 363.731 44.1364 363.335 45.1804C362.951 46.2244 362.393 47.0404 361.661 47.6284C360.929 48.2044 360.041 48.4924 358.997 48.4924ZM359.087 42.1384C359.591 42.1384 360.041 42.0244 360.437 41.7964C360.833 41.5684 361.145 41.2684 361.373 40.8964C361.613 40.5124 361.733 40.0924 361.733 39.6364C361.733 39.1444 361.613 38.7124 361.373 38.3404C361.145 37.9564 360.827 37.6564 360.419 37.4404C360.023 37.2244 359.573 37.1164 359.069 37.1164C358.565 37.1164 358.115 37.2244 357.719 37.4404C357.323 37.6564 357.005 37.9564 356.765 38.3404C356.537 38.7124 356.423 39.1384 356.423 39.6184C356.423 40.3864 356.675 40.9984 357.179 41.4544C357.683 41.9104 358.319 42.1384 359.087 42.1384ZM369.83 48.4924C369.002 48.4924 368.294 48.3304 367.706 48.0064C367.118 47.6824 366.656 47.2504 366.32 46.7104C365.996 46.1704 365.798 45.5824 365.726 44.9464H367.508C367.616 45.5704 367.874 46.0504 368.282 46.3864C368.69 46.7224 369.212 46.8904 369.848 46.8904C370.724 46.8904 371.444 46.4824 372.008 45.6664C372.584 44.8384 372.89 43.5724 372.926 41.8684C372.638 42.3964 372.188 42.8464 371.576 43.2184C370.976 43.5904 370.28 43.7764 369.488 43.7764C368.78 43.7764 368.114 43.6084 367.49 43.2724C366.866 42.9364 366.362 42.4684 365.978 41.8684C365.594 41.2564 365.402 40.5364 365.402 39.7084C365.402 38.9764 365.582 38.2864 365.942 37.6384C366.302 36.9904 366.806 36.4684 367.454 36.0724C368.114 35.6644 368.894 35.4604 369.794 35.4604C370.718 35.4604 371.498 35.6344 372.134 35.9824C372.77 36.3304 373.28 36.7924 373.664 37.3684C374.048 37.9444 374.324 38.5924 374.492 39.3124C374.672 40.0324 374.762 40.7704 374.762 41.5264C374.762 42.9184 374.564 44.1364 374.168 45.1804C373.784 46.2244 373.226 47.0404 372.494 47.6284C371.762 48.2044 370.874 48.4924 369.83 48.4924ZM369.92 42.1384C370.424 42.1384 370.874 42.0244 371.27 41.7964C371.666 41.5684 371.978 41.2684 372.206 40.8964C372.446 40.5124 372.566 40.0924 372.566 39.6364C372.566 39.1444 372.446 38.7124 372.206 38.3404C371.978 37.9564 371.66 37.6564 371.252 37.4404C370.856 37.2244 370.406 37.1164 369.902 37.1164C369.398 37.1164 368.948 37.2244 368.552 37.4404C368.156 37.6564 367.838 37.9564 367.598 38.3404C367.37 38.7124 367.256 39.1384 367.256 39.6184C367.256 40.3864 367.508 40.9984 368.012 41.4544C368.516 41.9104 369.152 42.1384 369.92 42.1384Z" fill="#090909"/>
</svg>
