<svg width="400" height="60" viewBox="0 0 400 84" fill="none" xmlns="http://www.w3.org/2000/svg">
<rect y="0.276367" width="400" height="83" rx="10" fill="white"/>
<rect x="16" y="16.7764" width="50" height="50" rx="8" fill="#1D3A70"/>
<path d="M40.5616 36.2016C39.5396 36.2016 37.9576 35.0396 36.2916 35.0816C34.0936 35.1096 32.0776 36.3556 30.9436 38.3296C28.6616 42.2916 30.3556 48.1436 32.5816 51.3636C33.6736 52.9316 34.9616 54.6956 36.6696 54.6396C38.3076 54.5696 38.9236 53.5756 40.9116 53.5756C42.8856 53.5756 43.4456 54.6396 45.1816 54.5976C46.9456 54.5696 48.0656 53.0016 49.1436 51.4196C50.3896 49.5996 50.9076 47.8356 50.9356 47.7376C50.8936 47.7236 47.5056 46.4216 47.4636 42.5016C47.4356 39.2256 50.1376 37.6576 50.2636 37.5876C48.7236 35.3336 46.3576 35.0816 45.5316 35.0256C43.3756 34.8576 41.5696 36.2016 40.5616 36.2016ZM44.2016 32.8976C45.1116 31.8056 45.7136 30.2796 45.5456 28.7676C44.2436 28.8236 42.6756 29.6356 41.7376 30.7276C40.8976 31.6936 40.1696 33.2476 40.3656 34.7316C41.8076 34.8436 43.2916 33.9896 44.2016 32.8976Z" fill="white"/>
<path d="M83.278 35.2764V22.6764H85.528L89.794 31.0644L94.042 22.6764H96.292V35.2764H94.384V25.9704L90.532 33.4764H89.056L85.186 25.9884V35.2764H83.278ZM99.3202 24.6564C98.9602 24.6564 98.6602 24.5484 98.4202 24.3324C98.1922 24.1044 98.0782 23.8224 98.0782 23.4864C98.0782 23.1504 98.1922 22.8744 98.4202 22.6584C98.6602 22.4304 98.9602 22.3164 99.3202 22.3164C99.6802 22.3164 99.9742 22.4304 100.202 22.6584C100.442 22.8744 100.562 23.1504 100.562 23.4864C100.562 23.8224 100.442 24.1044 100.202 24.3324C99.9742 24.5484 99.6802 24.6564 99.3202 24.6564ZM98.3662 35.2764V26.3484H100.274V35.2764H98.3662ZM106.483 35.4924C105.607 35.4924 104.821 35.2944 104.125 34.8984C103.441 34.5024 102.901 33.9564 102.505 33.2604C102.121 32.5524 101.929 31.7364 101.929 30.8124C101.929 29.8884 102.121 29.0784 102.505 28.3824C102.901 27.6744 103.441 27.1224 104.125 26.7264C104.821 26.3304 105.607 26.1324 106.483 26.1324C107.587 26.1324 108.511 26.4204 109.255 26.9964C110.011 27.5724 110.497 28.3524 110.713 29.3364H108.715C108.595 28.8444 108.331 28.4604 107.923 28.1844C107.515 27.9084 107.035 27.7704 106.483 27.7704C106.015 27.7704 105.583 27.8904 105.187 28.1304C104.791 28.3584 104.473 28.7004 104.233 29.1564C103.993 29.6004 103.873 30.1524 103.873 30.8124C103.873 31.4724 103.993 32.0304 104.233 32.4864C104.473 32.9304 104.791 33.2724 105.187 33.5124C105.583 33.7524 106.015 33.8724 106.483 33.8724C107.035 33.8724 107.515 33.7344 107.923 33.4584C108.331 33.1824 108.595 32.7924 108.715 32.2884H110.713C110.509 33.2484 110.029 34.0224 109.273 34.6104C108.517 35.1984 107.587 35.4924 106.483 35.4924ZM112.242 35.2764V26.3484H113.952L114.114 28.0404C114.426 27.4524 114.858 26.9904 115.41 26.6544C115.974 26.3064 116.652 26.1324 117.444 26.1324V28.1304H116.922C116.394 28.1304 115.92 28.2204 115.5 28.4004C115.092 28.5684 114.762 28.8624 114.51 29.2824C114.27 29.6904 114.15 30.2604 114.15 30.9924V35.2764H112.242ZM122.47 35.4924C121.618 35.4924 120.85 35.3004 120.166 34.9164C119.494 34.5204 118.96 33.9744 118.564 33.2784C118.168 32.5704 117.97 31.7484 117.97 30.8124C117.97 29.8764 118.168 29.0604 118.564 28.3644C118.972 27.6564 119.518 27.1104 120.202 26.7264C120.886 26.3304 121.648 26.1324 122.488 26.1324C123.34 26.1324 124.102 26.3304 124.774 26.7264C125.458 27.1104 125.998 27.6564 126.394 28.3644C126.802 29.0604 127.006 29.8764 127.006 30.8124C127.006 31.7484 126.802 32.5704 126.394 33.2784C125.998 33.9744 125.458 34.5204 124.774 34.9164C124.09 35.3004 123.322 35.4924 122.47 35.4924ZM122.47 33.8544C122.926 33.8544 123.346 33.7404 123.73 33.5124C124.126 33.2844 124.444 32.9484 124.684 32.5044C124.924 32.0484 125.044 31.4844 125.044 30.8124C125.044 30.1404 124.924 29.5824 124.684 29.1384C124.456 28.6824 124.144 28.3404 123.748 28.1124C123.364 27.8844 122.944 27.7704 122.488 27.7704C122.032 27.7704 121.606 27.8844 121.21 28.1124C120.826 28.3404 120.514 28.6824 120.274 29.1384C120.034 29.5824 119.914 30.1404 119.914 30.8124C119.914 31.4844 120.034 32.0484 120.274 32.5044C120.514 32.9484 120.826 33.2844 121.21 33.5124C121.594 33.7404 122.014 33.8544 122.47 33.8544ZM132.093 35.4924C130.965 35.4924 130.035 35.2164 129.303 34.6644C128.571 34.1124 128.151 33.3804 128.043 32.4684H129.969C130.065 32.8764 130.293 33.2304 130.653 33.5304C131.013 33.8184 131.487 33.9624 132.075 33.9624C132.651 33.9624 133.071 33.8424 133.335 33.6024C133.599 33.3624 133.731 33.0864 133.731 32.7744C133.731 32.3184 133.545 32.0124 133.173 31.8564C132.813 31.6884 132.309 31.5384 131.661 31.4064C131.157 31.2984 130.653 31.1544 130.149 30.9744C129.657 30.7944 129.243 30.5424 128.907 30.2184C128.583 29.8824 128.421 29.4324 128.421 28.8684C128.421 28.0884 128.721 27.4404 129.321 26.9244C129.921 26.3964 130.761 26.1324 131.841 26.1324C132.837 26.1324 133.641 26.3724 134.253 26.8524C134.877 27.3324 135.243 28.0104 135.351 28.8864H133.515C133.455 28.5024 133.275 28.2024 132.975 27.9864C132.687 27.7704 132.297 27.6624 131.805 27.6624C131.325 27.6624 130.953 27.7644 130.689 27.9684C130.425 28.1604 130.293 28.4124 130.293 28.7244C130.293 29.0364 130.473 29.2824 130.833 29.4624C131.205 29.6424 131.691 29.8044 132.291 29.9484C132.891 30.0804 133.443 30.2364 133.947 30.4164C134.463 30.5844 134.877 30.8364 135.189 31.1724C135.501 31.5084 135.657 32.0004 135.657 32.6484C135.669 33.4644 135.351 34.1424 134.703 34.6824C134.067 35.2224 133.197 35.4924 132.093 35.4924ZM141.376 35.4924C140.524 35.4924 139.756 35.3004 139.072 34.9164C138.4 34.5204 137.866 33.9744 137.47 33.2784C137.074 32.5704 136.876 31.7484 136.876 30.8124C136.876 29.8764 137.074 29.0604 137.47 28.3644C137.878 27.6564 138.424 27.1104 139.108 26.7264C139.792 26.3304 140.554 26.1324 141.394 26.1324C142.246 26.1324 143.008 26.3304 143.68 26.7264C144.364 27.1104 144.904 27.6564 145.3 28.3644C145.708 29.0604 145.912 29.8764 145.912 30.8124C145.912 31.7484 145.708 32.5704 145.3 33.2784C144.904 33.9744 144.364 34.5204 143.68 34.9164C142.996 35.3004 142.228 35.4924 141.376 35.4924ZM141.376 33.8544C141.832 33.8544 142.252 33.7404 142.636 33.5124C143.032 33.2844 143.35 32.9484 143.59 32.5044C143.83 32.0484 143.95 31.4844 143.95 30.8124C143.95 30.1404 143.83 29.5824 143.59 29.1384C143.362 28.6824 143.05 28.3404 142.654 28.1124C142.27 27.8844 141.85 27.7704 141.394 27.7704C140.938 27.7704 140.512 27.8844 140.116 28.1124C139.732 28.3404 139.42 28.6824 139.18 29.1384C138.94 29.5824 138.82 30.1404 138.82 30.8124C138.82 31.4844 138.94 32.0484 139.18 32.5044C139.42 32.9484 139.732 33.2844 140.116 33.5124C140.5 33.7404 140.92 33.8544 141.376 33.8544ZM147.886 35.2764V27.9504H146.608V26.3484H147.886V25.0524C147.886 24.0804 148.126 23.3844 148.606 22.9644C149.098 22.5324 149.788 22.3164 150.676 22.3164H151.612V23.9364H150.964C150.544 23.9364 150.244 24.0264 150.064 24.2064C149.884 24.3744 149.794 24.6624 149.794 25.0704V26.3484H151.846V27.9504H149.794V35.2764H147.886ZM156.862 35.2764C155.986 35.2764 155.29 35.0664 154.774 34.6464C154.258 34.2144 154 33.4524 154 32.3604V27.9504H152.47V26.3484H154L154.234 24.0804H155.908V26.3484H158.428V27.9504H155.908V32.3604C155.908 32.8524 156.01 33.1944 156.214 33.3864C156.43 33.5664 156.796 33.6564 157.312 33.6564H158.338V35.2764H156.862Z" fill="black"/>
<path d="M93.3864 54.4582C93.3864 55.7006 93.1591 56.7688 92.7045 57.6627C92.25 58.5529 91.6269 59.2385 90.8352 59.7195C90.0473 60.1968 89.1515 60.4355 88.1477 60.4355C87.1402 60.4355 86.2405 60.1968 85.4489 59.7195C84.661 59.2385 84.0398 58.551 83.5852 57.657C83.1307 56.7631 82.9034 55.6968 82.9034 54.4582C82.9034 53.2158 83.1307 52.1495 83.5852 51.2593C84.0398 50.3654 84.661 49.6798 85.4489 49.2025C86.2405 48.7214 87.1402 48.4809 88.1477 48.4809C89.1515 48.4809 90.0473 48.7214 90.8352 49.2025C91.6269 49.6798 92.25 50.3654 92.7045 51.2593C93.1591 52.1495 93.3864 53.2158 93.3864 54.4582ZM91.6477 54.4582C91.6477 53.5112 91.4943 52.7139 91.1875 52.0661C90.8845 51.4146 90.4678 50.9222 89.9375 50.5889C89.411 50.2517 88.8144 50.0832 88.1477 50.0832C87.4773 50.0832 86.8788 50.2517 86.3523 50.5889C85.8258 50.9222 85.4091 51.4146 85.1023 52.0661C84.7992 52.7139 84.6477 53.5112 84.6477 54.4582C84.6477 55.4052 84.7992 56.2044 85.1023 56.8559C85.4091 57.5036 85.8258 57.9961 86.3523 58.3332C86.8788 58.6665 87.4773 58.8332 88.1477 58.8332C88.8144 58.8332 89.411 58.6665 89.9375 58.3332C90.4678 57.9961 90.8845 57.5036 91.1875 56.8559C91.4943 56.2044 91.6477 55.4052 91.6477 54.4582ZM99.5923 51.5491V52.9127H94.6605V51.5491H99.5923ZM96.0128 60.2764V50.5377C96.0128 49.9923 96.1321 49.5396 96.3707 49.1798C96.6094 48.8161 96.9257 48.5453 97.3196 48.3673C97.7135 48.1855 98.1416 48.0945 98.6037 48.0945C98.9446 48.0945 99.2363 48.123 99.4787 48.1798C99.7211 48.2328 99.901 48.282 100.018 48.3275L99.6207 49.7025C99.5412 49.6798 99.4389 49.6533 99.3139 49.623C99.1889 49.5889 99.0374 49.5718 98.8594 49.5718C98.4465 49.5718 98.151 49.6741 97.973 49.8786C97.7988 50.0832 97.7116 50.3786 97.7116 50.765V60.2764H96.0128ZM105.499 51.5491V52.9127H100.567V51.5491H105.499ZM101.919 60.2764V50.5377C101.919 49.9923 102.038 49.5396 102.277 49.1798C102.516 48.8161 102.832 48.5453 103.226 48.3673C103.62 48.1855 104.048 48.0945 104.51 48.0945C104.851 48.0945 105.143 48.123 105.385 48.1798C105.627 48.2328 105.807 48.282 105.925 48.3275L105.527 49.7025C105.447 49.6798 105.345 49.6533 105.22 49.623C105.095 49.5889 104.944 49.5718 104.766 49.5718C104.353 49.5718 104.057 49.6741 103.879 49.8786C103.705 50.0832 103.618 50.3786 103.618 50.765V60.2764H101.919ZM107.251 60.2764V51.5491H108.95V60.2764H107.251ZM108.109 50.2025C107.814 50.2025 107.56 50.104 107.348 49.907C107.14 49.7063 107.036 49.4677 107.036 49.1911C107.036 48.9108 107.14 48.6722 107.348 48.4752C107.56 48.2745 107.814 48.1741 108.109 48.1741C108.405 48.1741 108.657 48.2745 108.865 48.4752C109.077 48.6722 109.183 48.9108 109.183 49.1911C109.183 49.4677 109.077 49.7063 108.865 49.907C108.657 50.104 108.405 50.2025 108.109 50.2025ZM114.912 60.4525C114.067 60.4525 113.34 60.2612 112.73 59.8786C112.124 59.4923 111.658 58.9601 111.332 58.282C111.007 57.604 110.844 56.8275 110.844 55.9525C110.844 55.0661 111.01 54.2839 111.344 53.6059C111.677 52.9241 112.147 52.3919 112.753 52.0093C113.359 51.6267 114.073 51.4355 114.895 51.4355C115.558 51.4355 116.149 51.5586 116.668 51.8048C117.187 52.0472 117.605 52.3881 117.923 52.8275C118.245 53.2669 118.437 53.7802 118.497 54.3673H116.844C116.753 53.9582 116.545 53.6059 116.219 53.3105C115.897 53.015 115.465 52.8673 114.923 52.8673C114.45 52.8673 114.035 52.9923 113.679 53.2423C113.327 53.4885 113.052 53.8408 112.855 54.2991C112.658 54.7536 112.56 55.2915 112.56 55.9127C112.56 56.5491 112.656 57.0983 112.849 57.5605C113.043 58.0226 113.315 58.3805 113.668 58.6343C114.024 58.8881 114.442 59.015 114.923 59.015C115.245 59.015 115.537 58.9563 115.798 58.8389C116.063 58.7177 116.285 58.5453 116.463 58.3218C116.645 58.0983 116.772 57.8294 116.844 57.515H118.497C118.437 58.0794 118.253 58.5832 117.946 59.0264C117.639 59.4695 117.228 59.818 116.713 60.0718C116.202 60.3256 115.601 60.4525 114.912 60.4525ZM124.075 60.4525C123.215 60.4525 122.475 60.2688 121.854 59.9014C121.236 59.5302 120.759 59.0093 120.422 58.3389C120.089 57.6646 119.922 56.8749 119.922 55.9695C119.922 55.0756 120.089 54.2877 120.422 53.6059C120.759 52.9241 121.229 52.3919 121.831 52.0093C122.437 51.6267 123.145 51.4355 123.956 51.4355C124.448 51.4355 124.926 51.5169 125.388 51.6798C125.85 51.8427 126.265 52.0983 126.632 52.4468C127 52.7953 127.289 53.248 127.501 53.8048C127.714 54.3578 127.82 55.0302 127.82 55.8218V56.4241H120.882V55.1514H126.155C126.155 54.7044 126.064 54.3086 125.882 53.9639C125.7 53.6154 125.445 53.3408 125.115 53.14C124.789 52.9392 124.407 52.8389 123.967 52.8389C123.49 52.8389 123.073 52.9563 122.717 53.1911C122.365 53.4222 122.092 53.7252 121.899 54.1002C121.71 54.4714 121.615 54.8749 121.615 55.3105V56.3048C121.615 56.8881 121.717 57.3843 121.922 57.7934C122.13 58.2025 122.42 58.515 122.791 58.7309C123.162 58.943 123.596 59.0491 124.092 59.0491C124.414 59.0491 124.708 59.0036 124.973 58.9127C125.238 58.818 125.467 58.6779 125.661 58.4923C125.854 58.3067 126.001 58.0775 126.104 57.8048L127.712 58.0945C127.583 58.568 127.352 58.9828 127.018 59.3389C126.689 59.6911 126.274 59.9658 125.774 60.1627C125.278 60.3559 124.712 60.4525 124.075 60.4525ZM140.422 51.6968C140.361 51.1589 140.111 50.7423 139.672 50.4468C139.232 50.1476 138.679 49.998 138.013 49.998C137.536 49.998 137.123 50.0737 136.774 50.2252C136.426 50.373 136.155 50.5775 135.962 50.8389C135.772 51.0964 135.678 51.39 135.678 51.7195C135.678 51.9961 135.742 52.2347 135.871 52.4355C136.003 52.6362 136.176 52.8048 136.388 52.9411C136.604 53.0737 136.835 53.1855 137.081 53.2764C137.327 53.3635 137.564 53.4355 137.791 53.4923L138.928 53.7877C139.299 53.8786 139.679 54.0017 140.07 54.157C140.46 54.3124 140.821 54.5169 141.155 54.7707C141.488 55.0245 141.757 55.3389 141.962 55.7139C142.17 56.0889 142.274 56.5377 142.274 57.0605C142.274 57.7195 142.104 58.3048 141.763 58.8161C141.426 59.3275 140.935 59.7309 140.291 60.0264C139.651 60.3218 138.876 60.4695 137.967 60.4695C137.096 60.4695 136.342 60.3313 135.706 60.0548C135.07 59.7783 134.571 59.3862 134.212 58.8786C133.852 58.3673 133.653 57.7612 133.615 57.0605H135.376C135.411 57.4809 135.547 57.8313 135.786 58.1116C136.028 58.3881 136.337 58.5945 136.712 58.7309C137.09 58.8635 137.505 58.9298 137.956 58.9298C138.452 58.9298 138.893 58.8521 139.28 58.6968C139.67 58.5377 139.977 58.318 140.2 58.0377C140.424 57.7536 140.536 57.4222 140.536 57.0434C140.536 56.6987 140.437 56.4165 140.24 56.1968C140.047 55.9771 139.784 55.7953 139.45 55.6514C139.121 55.5074 138.748 55.3805 138.331 55.2707L136.956 54.8957C136.024 54.6419 135.286 54.2688 134.74 53.7764C134.198 53.2839 133.928 52.6324 133.928 51.8218C133.928 51.1514 134.109 50.5661 134.473 50.0661C134.837 49.5661 135.329 49.1779 135.95 48.9014C136.571 48.6211 137.272 48.4809 138.053 48.4809C138.84 48.4809 139.536 48.6192 140.138 48.8957C140.744 49.1722 141.221 49.5529 141.57 50.0377C141.918 50.5188 142.1 51.0718 142.115 51.6968H140.422ZM149.764 56.657V51.5491H151.469V60.2764H149.798V58.765H149.707C149.507 59.2309 149.185 59.6192 148.741 59.9298C148.302 60.2366 147.755 60.39 147.099 60.39C146.539 60.39 146.043 60.2669 145.611 60.0207C145.183 59.7707 144.846 59.4014 144.599 58.9127C144.357 58.4241 144.236 57.8199 144.236 57.1002V51.5491H145.935V56.8957C145.935 57.4904 146.099 57.9639 146.429 58.3161C146.759 58.6684 147.187 58.8445 147.713 58.8445C148.031 58.8445 148.348 58.765 148.662 58.6059C148.98 58.4468 149.243 58.2063 149.452 57.8843C149.664 57.5624 149.768 57.1533 149.764 56.657ZM153.751 60.2764V51.5491H155.45V60.2764H153.751ZM154.609 50.2025C154.314 50.2025 154.06 50.104 153.848 49.907C153.64 49.7063 153.536 49.4677 153.536 49.1911C153.536 48.9108 153.64 48.6722 153.848 48.4752C154.06 48.2745 154.314 48.1741 154.609 48.1741C154.905 48.1741 155.157 48.2745 155.365 48.4752C155.577 48.6722 155.683 48.9108 155.683 49.1911C155.683 49.4677 155.577 49.7063 155.365 49.907C155.157 50.104 154.905 50.2025 154.609 50.2025ZM161.81 51.5491V52.9127H157.043V51.5491H161.81ZM158.321 49.4582H160.02V57.7139C160.02 58.0434 160.069 58.2915 160.168 58.4582C160.266 58.6211 160.393 58.7328 160.548 58.7934C160.707 58.8502 160.88 58.8786 161.065 58.8786C161.202 58.8786 161.321 58.8692 161.423 58.8502C161.526 58.8313 161.605 58.8161 161.662 58.8048L161.969 60.2082C161.87 60.2461 161.73 60.2839 161.548 60.3218C161.366 60.3635 161.139 60.3862 160.866 60.39C160.42 60.3976 160.003 60.318 159.616 60.1514C159.23 59.9847 158.918 59.7271 158.679 59.3786C158.44 59.0302 158.321 58.5927 158.321 58.0661V49.4582ZM167.357 60.4525C166.497 60.4525 165.756 60.2688 165.135 59.9014C164.518 59.5302 164.04 59.0093 163.703 58.3389C163.37 57.6646 163.203 56.8749 163.203 55.9695C163.203 55.0756 163.37 54.2877 163.703 53.6059C164.04 52.9241 164.51 52.3919 165.112 52.0093C165.718 51.6267 166.427 51.4355 167.237 51.4355C167.73 51.4355 168.207 51.5169 168.669 51.6798C169.131 51.8427 169.546 52.0983 169.913 52.4468C170.281 52.7953 170.571 53.248 170.783 53.8048C170.995 54.3578 171.101 55.0302 171.101 55.8218V56.4241H164.163V55.1514H169.436C169.436 54.7044 169.345 54.3086 169.163 53.9639C168.982 53.6154 168.726 53.3408 168.396 53.14C168.071 52.9392 167.688 52.8389 167.249 52.8389C166.771 52.8389 166.355 52.9563 165.999 53.1911C165.646 53.4222 165.374 53.7252 165.18 54.1002C164.991 54.4714 164.896 54.8749 164.896 55.3105V56.3048C164.896 56.8881 164.999 57.3843 165.203 57.7934C165.411 58.2025 165.701 58.515 166.072 58.7309C166.444 58.943 166.877 59.0491 167.374 59.0491C167.696 59.0491 167.989 59.0036 168.254 58.9127C168.519 58.818 168.749 58.6779 168.942 58.4923C169.135 58.3067 169.283 58.0775 169.385 57.8048L170.993 58.0945C170.864 58.568 170.633 58.9828 170.3 59.3389C169.97 59.6911 169.555 59.9658 169.055 60.1627C168.559 60.3559 167.993 60.4525 167.357 60.4525Z" fill="#1A191E" fill-opacity="0.5"/>
<path d="M323.026 43.8484V42.2464H330.352V43.8484H323.026ZM332.09 48.2764V35.6764H336.428C337.424 35.6764 338.24 35.8444 338.876 36.1804C339.524 36.5164 340.004 36.9724 340.316 37.5484C340.628 38.1124 340.784 38.7424 340.784 39.4384C340.784 40.2184 340.574 40.9264 340.154 41.5624C339.746 42.1984 339.104 42.6544 338.228 42.9304L340.91 48.2764H338.696L336.248 43.2004H333.998V48.2764H332.09ZM333.998 41.7604H336.32C337.184 41.7604 337.814 41.5504 338.21 41.1304C338.618 40.7104 338.822 40.1644 338.822 39.4924C338.822 38.8204 338.624 38.2864 338.228 37.8904C337.832 37.4824 337.19 37.2784 336.302 37.2784H333.998V41.7604ZM345.764 48.4924C344.636 48.4924 343.706 48.2164 342.974 47.6644C342.242 47.1124 341.822 46.3804 341.714 45.4684H343.64C343.736 45.8764 343.964 46.2304 344.324 46.5304C344.684 46.8184 345.158 46.9624 345.746 46.9624C346.322 46.9624 346.742 46.8424 347.006 46.6024C347.27 46.3624 347.402 46.0864 347.402 45.7744C347.402 45.3184 347.216 45.0124 346.844 44.8564C346.484 44.6884 345.98 44.5384 345.332 44.4064C344.828 44.2984 344.324 44.1544 343.82 43.9744C343.328 43.7944 342.914 43.5424 342.578 43.2184C342.254 42.8824 342.092 42.4324 342.092 41.8684C342.092 41.0884 342.392 40.4404 342.992 39.9244C343.592 39.3964 344.432 39.1324 345.512 39.1324C346.508 39.1324 347.312 39.3724 347.924 39.8524C348.548 40.3324 348.914 41.0104 349.022 41.8864H347.186C347.126 41.5024 346.946 41.2024 346.646 40.9864C346.358 40.7704 345.968 40.6624 345.476 40.6624C344.996 40.6624 344.624 40.7644 344.36 40.9684C344.096 41.1604 343.964 41.4124 343.964 41.7244C343.964 42.0364 344.144 42.2824 344.504 42.4624C344.876 42.6424 345.362 42.8044 345.962 42.9484C346.562 43.0804 347.114 43.2364 347.618 43.4164C348.134 43.5844 348.548 43.8364 348.86 44.1724C349.172 44.5084 349.328 45.0004 349.328 45.6484C349.34 46.4644 349.022 47.1424 348.374 47.6824C347.738 48.2224 346.868 48.4924 345.764 48.4924ZM360.68 48.2764V45.7564H354.362V44.2444L360.374 35.6764H362.57V44.1004H364.334V45.7564H362.57V48.2764H360.68ZM356.432 44.1004H360.788V37.7824L356.432 44.1004ZM369.843 48.4924C369.015 48.4924 368.307 48.3304 367.719 48.0064C367.131 47.6824 366.669 47.2504 366.333 46.7104C366.009 46.1704 365.811 45.5824 365.739 44.9464H367.521C367.629 45.5704 367.887 46.0504 368.295 46.3864C368.703 46.7224 369.225 46.8904 369.861 46.8904C370.737 46.8904 371.457 46.4824 372.021 45.6664C372.597 44.8384 372.903 43.5724 372.939 41.8684C372.651 42.3964 372.201 42.8464 371.589 43.2184C370.989 43.5904 370.293 43.7764 369.501 43.7764C368.793 43.7764 368.127 43.6084 367.503 43.2724C366.879 42.9364 366.375 42.4684 365.991 41.8684C365.607 41.2564 365.415 40.5364 365.415 39.7084C365.415 38.9764 365.595 38.2864 365.955 37.6384C366.315 36.9904 366.819 36.4684 367.467 36.0724C368.127 35.6644 368.907 35.4604 369.807 35.4604C370.731 35.4604 371.511 35.6344 372.147 35.9824C372.783 36.3304 373.293 36.7924 373.677 37.3684C374.061 37.9444 374.337 38.5924 374.505 39.3124C374.685 40.0324 374.775 40.7704 374.775 41.5264C374.775 42.9184 374.577 44.1364 374.181 45.1804C373.797 46.2244 373.239 47.0404 372.507 47.6284C371.775 48.2044 370.887 48.4924 369.843 48.4924ZM369.933 42.1384C370.437 42.1384 370.887 42.0244 371.283 41.7964C371.679 41.5684 371.991 41.2684 372.219 40.8964C372.459 40.5124 372.579 40.0924 372.579 39.6364C372.579 39.1444 372.459 38.7124 372.219 38.3404C371.991 37.9564 371.673 37.6564 371.265 37.4404C370.869 37.2244 370.419 37.1164 369.915 37.1164C369.411 37.1164 368.961 37.2244 368.565 37.4404C368.169 37.6564 367.851 37.9564 367.611 38.3404C367.383 38.7124 367.269 39.1384 367.269 39.6184C367.269 40.3864 367.521 40.9984 368.025 41.4544C368.529 41.9104 369.165 42.1384 369.933 42.1384Z" fill="black"/>
</svg>
