<svg width="400" height="60" viewBox="0 0 400 84" fill="none" xmlns="http://www.w3.org/2000/svg">
<rect y="0.276367" width="400" height="83" rx="10" fill="white"/>
<rect x="16" y="16.7764" width="50" height="50" rx="8" fill="#FF681E"/>
<path d="M40.5616 36.2016C39.5396 36.2016 37.9576 35.0396 36.2916 35.0816C34.0936 35.1096 32.0776 36.3556 30.9436 38.3296C28.6616 42.2916 30.3556 48.1436 32.5816 51.3636C33.6736 52.9316 34.9616 54.6956 36.6696 54.6396C38.3076 54.5696 38.9236 53.5756 40.9116 53.5756C42.8856 53.5756 43.4456 54.6396 45.1816 54.5976C46.9456 54.5696 48.0656 53.0016 49.1436 51.4196C50.3896 49.5996 50.9076 47.8356 50.9356 47.7376C50.8936 47.7236 47.5056 46.4216 47.4636 42.5016C47.4356 39.2256 50.1376 37.6576 50.2636 37.5876C48.7236 35.3336 46.3576 35.0816 45.5316 35.0256C43.3756 34.8576 41.5696 36.2016 40.5616 36.2016ZM44.2016 32.8976C45.1116 31.8056 45.7136 30.2796 45.5456 28.7676C44.2436 28.8236 42.6756 29.6356 41.7376 30.7276C40.8976 31.6936 40.1696 33.2476 40.3656 34.7316C41.8076 34.8436 43.2916 33.9896 44.2016 32.8976Z" fill="white"/>
<path d="M86.23 35.2764V24.2244H82.504V22.6764H91.846V24.2244H88.138V35.2764H86.23ZM93.8171 35.2764L91.1891 26.3484H93.0971L94.8251 33.0804L96.7691 26.3484H98.8931L100.837 33.0804L102.565 26.3484H104.473L101.845 35.2764H99.8831L97.8311 28.2564L95.7791 35.2764H93.8171ZM106.585 24.6564C106.225 24.6564 105.925 24.5484 105.685 24.3324C105.457 24.1044 105.343 23.8224 105.343 23.4864C105.343 23.1504 105.457 22.8744 105.685 22.6584C105.925 22.4304 106.225 22.3164 106.585 22.3164C106.945 22.3164 107.239 22.4304 107.467 22.6584C107.707 22.8744 107.827 23.1504 107.827 23.4864C107.827 23.8224 107.707 24.1044 107.467 24.3324C107.239 24.5484 106.945 24.6564 106.585 24.6564ZM105.631 35.2764V26.3484H107.539V35.2764H105.631ZM113.262 35.2764C112.386 35.2764 111.69 35.0664 111.174 34.6464C110.658 34.2144 110.4 33.4524 110.4 32.3604V27.9504H108.87V26.3484H110.4L110.634 24.0804H112.308V26.3484H114.828V27.9504H112.308V32.3604C112.308 32.8524 112.41 33.1944 112.614 33.3864C112.83 33.5664 113.196 33.6564 113.712 33.6564H114.738V35.2764H113.262ZM119.999 35.2764C119.123 35.2764 118.427 35.0664 117.911 34.6464C117.395 34.2144 117.137 33.4524 117.137 32.3604V27.9504H115.607V26.3484H117.137L117.371 24.0804H119.045V26.3484H121.565V27.9504H119.045V32.3604C119.045 32.8524 119.147 33.1944 119.351 33.3864C119.567 33.5664 119.933 33.6564 120.449 33.6564H121.475V35.2764H119.999ZM126.94 35.4924C126.064 35.4924 125.284 35.3004 124.6 34.9164C123.928 34.5204 123.4 33.9744 123.016 33.2784C122.632 32.5824 122.44 31.7724 122.44 30.8484C122.44 29.9124 122.626 29.0904 122.998 28.3824C123.382 27.6744 123.91 27.1224 124.582 26.7264C125.266 26.3304 126.058 26.1324 126.958 26.1324C127.834 26.1324 128.596 26.3304 129.244 26.7264C129.892 27.1104 130.396 27.6264 130.756 28.2744C131.116 28.9224 131.296 29.6364 131.296 30.4164C131.296 30.5364 131.29 30.6684 131.278 30.8124C131.278 30.9444 131.272 31.0944 131.26 31.2624H124.312C124.372 32.1264 124.654 32.7864 125.158 33.2424C125.674 33.6864 126.268 33.9084 126.94 33.9084C127.48 33.9084 127.93 33.7884 128.29 33.5484C128.662 33.2964 128.938 32.9604 129.118 32.5404H131.026C130.786 33.3804 130.306 34.0824 129.586 34.6464C128.878 35.2104 127.996 35.4924 126.94 35.4924ZM126.94 27.6984C126.304 27.6984 125.74 27.8904 125.248 28.2744C124.756 28.6464 124.456 29.2104 124.348 29.9664H129.388C129.352 29.2704 129.106 28.7184 128.65 28.3104C128.194 27.9024 127.624 27.6984 126.94 27.6984ZM132.736 35.2764V26.3484H134.446L134.608 28.0404C134.92 27.4524 135.352 26.9904 135.904 26.6544C136.468 26.3064 137.146 26.1324 137.938 26.1324V28.1304H137.416C136.888 28.1304 136.414 28.2204 135.994 28.4004C135.586 28.5684 135.256 28.8624 135.004 29.2824C134.764 29.6904 134.644 30.2604 134.644 30.9924V35.2764H132.736Z" fill="black"/>
<path d="M84.2614 60.2764H82.3977L86.5852 48.64H88.6136L92.8011 60.2764H90.9375L87.6477 50.7536H87.5568L84.2614 60.2764ZM84.5739 55.7195H90.6193V57.1968H84.5739V55.7195ZM97.4716 60.4468C96.767 60.4468 96.1383 60.2669 95.5852 59.907C95.036 59.5434 94.6042 59.0264 94.2898 58.3559C93.9792 57.6817 93.8239 56.873 93.8239 55.9298C93.8239 54.9866 93.9811 54.1798 94.2955 53.5093C94.6136 52.8389 95.0492 52.3256 95.6023 51.9695C96.1553 51.6135 96.7822 51.4355 97.483 51.4355C98.0246 51.4355 98.4602 51.5264 98.7898 51.7082C99.1231 51.8862 99.3807 52.0945 99.5625 52.3332C99.7481 52.5718 99.892 52.782 99.9943 52.9639H100.097V48.64H101.795V60.2764H100.136V58.9184H99.9943C99.892 59.104 99.7443 59.3161 99.5511 59.5548C99.3617 59.7934 99.1004 60.0017 98.767 60.1798C98.4337 60.3578 98.0019 60.4468 97.4716 60.4468ZM97.8466 58.998C98.3352 58.998 98.7481 58.8692 99.0852 58.6116C99.4261 58.3502 99.6837 57.9885 99.858 57.5264C100.036 57.0642 100.125 56.5264 100.125 55.9127C100.125 55.3067 100.038 54.7764 99.8636 54.3218C99.6894 53.8673 99.4337 53.5131 99.0966 53.2593C98.7595 53.0055 98.3428 52.8786 97.8466 52.8786C97.3352 52.8786 96.9091 53.0112 96.5682 53.2764C96.2273 53.5415 95.9697 53.9033 95.7955 54.3616C95.625 54.8199 95.5398 55.337 95.5398 55.9127C95.5398 56.4961 95.6269 57.0207 95.8011 57.4866C95.9754 57.9525 96.233 58.3218 96.5739 58.5945C96.9186 58.8635 97.3428 58.998 97.8466 58.998ZM110.76 53.6798L109.22 53.9525C109.156 53.7555 109.054 53.568 108.913 53.39C108.777 53.212 108.591 53.0661 108.357 52.9525C108.122 52.8389 107.828 52.782 107.476 52.782C106.995 52.782 106.593 52.89 106.271 53.1059C105.949 53.318 105.788 53.5927 105.788 53.9298C105.788 54.2214 105.896 54.4563 106.112 54.6343C106.328 54.8124 106.677 54.9582 107.158 55.0718L108.544 55.39C109.347 55.5756 109.946 55.8616 110.339 56.248C110.733 56.6343 110.93 57.1362 110.93 57.7536C110.93 58.2764 110.779 58.7423 110.476 59.1514C110.177 59.5567 109.758 59.8749 109.22 60.1059C108.686 60.337 108.067 60.4525 107.362 60.4525C106.385 60.4525 105.588 60.2442 104.97 59.8275C104.353 59.407 103.974 58.8105 103.834 58.0377L105.476 57.7877C105.578 58.2158 105.788 58.5396 106.107 58.7593C106.425 58.9752 106.839 59.0832 107.351 59.0832C107.908 59.0832 108.353 58.9677 108.686 58.7366C109.019 58.5017 109.186 58.2158 109.186 57.8786C109.186 57.6059 109.084 57.3767 108.879 57.1911C108.679 57.0055 108.37 56.8654 107.953 56.7707L106.476 56.4468C105.661 56.2612 105.059 55.9658 104.669 55.5605C104.283 55.1552 104.089 54.6419 104.089 54.0207C104.089 53.5055 104.233 53.0548 104.521 52.6684C104.809 52.282 105.207 51.9809 105.714 51.765C106.222 51.5453 106.804 51.4355 107.459 51.4355C108.402 51.4355 109.144 51.64 109.686 52.0491C110.228 52.4544 110.586 52.998 110.76 53.6798Z" fill="#1A191E" fill-opacity="0.5"/>
<path d="M324.026 43.8484V42.2464H331.352V43.8484H324.026ZM333.09 48.2764V35.6764H337.428C338.424 35.6764 339.24 35.8444 339.876 36.1804C340.524 36.5164 341.004 36.9724 341.316 37.5484C341.628 38.1124 341.784 38.7424 341.784 39.4384C341.784 40.2184 341.574 40.9264 341.154 41.5624C340.746 42.1984 340.104 42.6544 339.228 42.9304L341.91 48.2764H339.696L337.248 43.2004H334.998V48.2764H333.09ZM334.998 41.7604H337.32C338.184 41.7604 338.814 41.5504 339.21 41.1304C339.618 40.7104 339.822 40.1644 339.822 39.4924C339.822 38.8204 339.624 38.2864 339.228 37.8904C338.832 37.4824 338.19 37.2784 337.302 37.2784H334.998V41.7604ZM346.764 48.4924C345.636 48.4924 344.706 48.2164 343.974 47.6644C343.242 47.1124 342.822 46.3804 342.714 45.4684H344.64C344.736 45.8764 344.964 46.2304 345.324 46.5304C345.684 46.8184 346.158 46.9624 346.746 46.9624C347.322 46.9624 347.742 46.8424 348.006 46.6024C348.27 46.3624 348.402 46.0864 348.402 45.7744C348.402 45.3184 348.216 45.0124 347.844 44.8564C347.484 44.6884 346.98 44.5384 346.332 44.4064C345.828 44.2984 345.324 44.1544 344.82 43.9744C344.328 43.7944 343.914 43.5424 343.578 43.2184C343.254 42.8824 343.092 42.4324 343.092 41.8684C343.092 41.0884 343.392 40.4404 343.992 39.9244C344.592 39.3964 345.432 39.1324 346.512 39.1324C347.508 39.1324 348.312 39.3724 348.924 39.8524C349.548 40.3324 349.914 41.0104 350.022 41.8864H348.186C348.126 41.5024 347.946 41.2024 347.646 40.9864C347.358 40.7704 346.968 40.6624 346.476 40.6624C345.996 40.6624 345.624 40.7644 345.36 40.9684C345.096 41.1604 344.964 41.4124 344.964 41.7244C344.964 42.0364 345.144 42.2824 345.504 42.4624C345.876 42.6424 346.362 42.8044 346.962 42.9484C347.562 43.0804 348.114 43.2364 348.618 43.4164C349.134 43.5844 349.548 43.8364 349.86 44.1724C350.172 44.5084 350.328 45.0004 350.328 45.6484C350.34 46.4644 350.022 47.1424 349.374 47.6824C348.738 48.2224 347.868 48.4924 346.764 48.4924ZM355.686 48.2764V46.9084C356.502 46.2604 357.282 45.6064 358.026 44.9464C358.77 44.2864 359.43 43.6384 360.006 43.0024C360.594 42.3544 361.056 41.7244 361.392 41.1124C361.728 40.4884 361.896 39.8884 361.896 39.3124C361.896 38.9284 361.83 38.5684 361.698 38.2324C361.566 37.8844 361.35 37.6084 361.05 37.4044C360.75 37.1884 360.348 37.0804 359.844 37.0804C359.088 37.0804 358.518 37.3204 358.134 37.8004C357.762 38.2804 357.582 38.8564 357.594 39.5284H355.74C355.752 38.6404 355.938 37.8964 356.298 37.2964C356.67 36.6964 357.162 36.2404 357.774 35.9284C358.398 35.6164 359.1 35.4604 359.88 35.4604C361.068 35.4604 362.016 35.7964 362.724 36.4684C363.444 37.1284 363.804 38.0524 363.804 39.2404C363.804 39.9484 363.63 40.6504 363.282 41.3464C362.946 42.0424 362.502 42.7144 361.95 43.3624C361.41 43.9984 360.828 44.5984 360.204 45.1624C359.58 45.7264 358.986 46.2364 358.422 46.6924H364.182V48.2764H355.686ZM369.788 48.4924C368.96 48.4924 368.252 48.3304 367.664 48.0064C367.076 47.6824 366.614 47.2504 366.278 46.7104C365.954 46.1704 365.756 45.5824 365.684 44.9464H367.466C367.574 45.5704 367.832 46.0504 368.24 46.3864C368.648 46.7224 369.17 46.8904 369.806 46.8904C370.682 46.8904 371.402 46.4824 371.966 45.6664C372.542 44.8384 372.848 43.5724 372.884 41.8684C372.596 42.3964 372.146 42.8464 371.534 43.2184C370.934 43.5904 370.238 43.7764 369.446 43.7764C368.738 43.7764 368.072 43.6084 367.448 43.2724C366.824 42.9364 366.32 42.4684 365.936 41.8684C365.552 41.2564 365.36 40.5364 365.36 39.7084C365.36 38.9764 365.54 38.2864 365.9 37.6384C366.26 36.9904 366.764 36.4684 367.412 36.0724C368.072 35.6644 368.852 35.4604 369.752 35.4604C370.676 35.4604 371.456 35.6344 372.092 35.9824C372.728 36.3304 373.238 36.7924 373.622 37.3684C374.006 37.9444 374.282 38.5924 374.45 39.3124C374.63 40.0324 374.72 40.7704 374.72 41.5264C374.72 42.9184 374.522 44.1364 374.126 45.1804C373.742 46.2244 373.184 47.0404 372.452 47.6284C371.72 48.2044 370.832 48.4924 369.788 48.4924ZM369.878 42.1384C370.382 42.1384 370.832 42.0244 371.228 41.7964C371.624 41.5684 371.936 41.2684 372.164 40.8964C372.404 40.5124 372.524 40.0924 372.524 39.6364C372.524 39.1444 372.404 38.7124 372.164 38.3404C371.936 37.9564 371.618 37.6564 371.21 37.4404C370.814 37.2244 370.364 37.1164 369.86 37.1164C369.356 37.1164 368.906 37.2244 368.51 37.4404C368.114 37.6564 367.796 37.9564 367.556 38.3404C367.328 38.7124 367.214 39.1384 367.214 39.6184C367.214 40.3864 367.466 40.9984 367.97 41.4544C368.474 41.9104 369.11 42.1384 369.878 42.1384Z" fill="black"/>
</svg>
