<svg width="64" height="64" viewBox="0 0 64 64" fill="none" xmlns="http://www.w3.org/2000/svg">
<g clip-path="url(#clip0_1180_54109)">
<path d="M60.4425 51.7266C59.7012 50.0145 58.8496 48.1568 56.8869 48.1568H55.1092C57.0718 48.1568 58.6647 46.5585 58.6647 44.587V14.2368C58.6656 13.7689 58.5744 13.3055 58.3962 12.8729C58.2181 12.4403 57.9564 12.047 57.6263 11.7155C57.2961 11.384 56.9039 11.1208 56.472 10.9409C56.0401 10.761 55.577 10.6679 55.1092 10.667H8.88694C6.92427 10.667 5.33138 12.2652 5.33138 14.2368V44.587C5.33138 46.5585 6.92427 48.1568 8.88694 48.1568H7.10916C5.14649 48.1568 4.1456 49.9417 3.5536 51.7266L-0.00195312 60.4288C-0.00195312 62.4021 1.59094 64.0003 3.5536 64.0003H60.4425C62.4052 64.0003 63.998 62.4021 63.998 60.4305L60.4425 51.7266Z" fill="#CCD6DD"/>
<path d="M0.0136719 60.5781L0.0243385 60.6795L0.326561 61.9097C0.607165 62.5313 1.06082 63.0591 1.63332 63.4298C2.20582 63.8005 2.87295 63.9986 3.55501 64.0003H60.4439C61.3618 63.9973 62.2429 63.6394 62.903 63.0016C63.563 62.3638 63.9508 61.4954 63.9852 60.5781H0.0136719Z" fill="#9AAAB4"/>
<path d="M55.1109 42.8001C55.1109 43.7867 54.3162 44.5849 53.3331 44.5849H10.6664C9.68512 44.5849 8.88867 43.7867 8.88867 42.8001V16.0232C8.88867 15.0365 9.68512 14.2383 10.6664 14.2383H53.3331C54.3162 14.2383 55.1109 15.0383 55.1109 16.0232V42.8001Z" fill="#1D3A70"/>
<path d="M58.4978 55.1857L57.1467 51.3191C56.7218 50.5013 56.0178 49.8311 55.0347 49.8311H9.08268C8.10135 49.8311 7.47202 50.5564 7.02757 51.6728L5.80446 55.1875C5.41513 56.2471 6.60091 56.9724 7.58224 56.9724H21.0542C21.0542 56.9724 22.72 56.8888 23.0151 55.8915C23.3565 54.7395 23.7529 53.0044 23.8382 52.6986C23.9698 52.2293 24.528 51.7546 25.36 51.7546H40.6098C41.4987 51.7546 41.936 52.2044 42.0516 52.7608C42.1262 53.1235 42.6062 54.7893 42.8302 55.9288C43.0276 56.9439 45.0009 56.9706 45.0009 56.9706H56.7236C57.7031 56.9706 58.8871 56.1333 58.4978 55.1857Z" fill="#AEBBC1"/>
<path d="M39.7757 58.8672H25.9428C25.2762 58.8672 24.9864 58.2574 25.0824 57.6672C25.1784 57.0787 25.7206 54.4796 25.7633 54.1774C25.8042 53.8734 26.2504 53.5107 26.6948 53.5107H39.1659C39.6939 53.5107 40.0371 53.8005 40.1437 54.3801C40.2486 54.9614 40.6806 57.2974 40.7144 57.8307C40.7482 58.3659 40.4139 58.8672 39.7757 58.8672Z" fill="#9AAAB4"/>
</g>
<defs>
<clipPath id="clip0_1180_54109">
<rect width="64" height="64" fill="white" transform="translate(-0.00195312)"/>
</clipPath>
</defs>
</svg>
