<svg width="72" height="72" viewBox="0 0 72 72" fill="none" xmlns="http://www.w3.org/2000/svg">
<g clip-path="url(#clip0_1180_54120)">
<path d="M13.9992 48C17.9132 48 21.2652 50.27 22.9092 53.544L29.8632 50.066C26.9752 44.116 20.8912 40 13.8312 40C11.3144 40.0006 8.82652 40.5371 6.5332 41.574L9.8692 48.914C11.1644 48.3166 12.5729 48.0049 13.9992 48ZM57.9992 48C60.9332 48 63.5432 49.286 65.3752 51.296L71.1692 46.026C69.5014 44.132 67.4493 42.6149 65.1495 41.5759C62.8497 40.5368 60.3549 39.9996 57.8312 40C50.6792 40 44.5272 44.222 41.6852 50.3L48.9812 53.744C50.5852 50.36 54.0052 48 57.9992 48Z" fill="#EA596E"/>
<path d="M13.998 44C12.1595 44 10.339 44.3621 8.64048 45.0657C6.94192 45.7693 5.39857 46.8005 4.09855 48.1005C2.79853 49.4005 1.7673 50.9439 1.06373 52.6424C0.360167 54.341 -0.00195312 56.1615 -0.00195312 58C-0.00195312 59.8385 0.360167 61.659 1.06373 63.3576C1.7673 65.0561 2.79853 66.5995 4.09855 67.8995C5.39857 69.1995 6.94192 70.2307 8.64048 70.9343C10.339 71.6379 12.1595 72 13.998 72C17.7111 72 21.272 70.525 23.8975 67.8995C26.5231 65.274 27.998 61.713 27.998 58C27.998 54.287 26.5231 50.726 23.8975 48.1005C21.272 45.475 17.7111 44 13.998 44ZM13.998 68C11.3459 68 8.80234 66.9464 6.92698 65.0711C5.05162 63.1957 3.99805 60.6522 3.99805 58C3.99805 55.3478 5.05162 52.8043 6.92698 50.9289C8.80234 49.0536 11.3459 48 13.998 48C16.6502 48 19.1938 49.0536 21.0691 50.9289C22.9445 52.8043 23.998 55.3478 23.998 58C23.998 60.6522 22.9445 63.1957 21.0691 65.0711C19.1938 66.9464 16.6502 68 13.998 68ZM57.998 44C54.2848 44.0003 50.7236 45.4756 48.0981 48.1015C45.4726 50.7274 43.9978 54.2887 43.998 58.002C43.9983 61.7153 45.4737 65.2764 48.0996 67.9019C50.7254 70.5274 54.2868 72.0023 58 72.002C59.8387 72.0019 61.6593 71.6396 63.3579 70.9359C65.0565 70.2321 66.5999 69.2007 67.9 67.9005C69.2 66.6003 70.2312 65.0568 70.9347 63.358C71.6382 61.6593 72.0002 59.8386 72 58C71.9999 56.1614 71.6376 54.3408 70.9339 52.6421C70.2302 50.9435 69.1988 49.4001 67.8985 48.1001C66.5983 46.8001 65.0548 45.7689 63.3561 45.0654C61.6573 44.3619 59.8367 43.9999 57.998 44ZM57.998 68C55.3459 68 52.8023 66.9464 50.927 65.0711C49.0516 63.1957 47.998 60.6522 47.998 58C47.998 55.3478 49.0516 52.8043 50.927 50.9289C52.8023 49.0536 55.3459 48 57.998 48C60.6502 48 63.1938 49.0536 65.0691 50.9289C66.9445 52.8043 67.998 55.3478 67.998 58C67.998 60.6522 66.9445 63.1957 65.0691 65.0711C63.1938 66.9464 60.6502 68 57.998 68Z" fill="#292F33"/>
<path d="M59.966 57.844C59.9531 57.7096 59.9263 57.5769 59.886 57.448C59.851 57.3197 59.8034 57.1951 59.744 57.076C59.718 57.028 59.714 56.972 59.686 56.926L45.686 34.926C45.5451 34.7043 45.3618 34.5125 45.1467 34.3616C44.9315 34.2107 44.6888 34.1037 44.4323 34.0467C44.1758 33.9897 43.9105 33.9837 43.6518 34.0293C43.393 34.0748 43.1457 34.1709 42.924 34.312C42.6447 34.4943 42.4165 34.7448 42.2607 35.0398C42.105 35.3347 42.027 35.6645 42.034 35.998H23.998C23.4676 35.998 22.9589 36.2087 22.5838 36.5838C22.2088 36.9589 21.998 37.4676 21.998 37.998C21.998 38.5284 22.2088 39.0371 22.5838 39.4122C22.9589 39.7873 23.4676 39.998 23.998 39.998H43.998C44.052 39.998 44.098 39.97 44.152 39.966L54.354 56H35.998C35.4676 56 34.9589 56.2107 34.5838 56.5858C34.2088 56.9609 33.998 57.4696 33.998 58C33.998 58.5304 34.2088 59.0391 34.5838 59.4142C34.9589 59.7893 35.4676 60 35.998 60H58C58.3066 59.9932 58.6076 59.9166 58.88 59.776C58.942 59.742 59.012 59.728 59.074 59.688C59.134 59.648 59.17 59.586 59.224 59.544C59.4306 59.3828 59.6016 59.1806 59.726 58.95C59.786 58.838 59.836 58.73 59.876 58.606C59.9167 58.4752 59.9435 58.3404 59.956 58.204C59.964 58.132 59.998 58.072 59.998 58C59.998 57.946 59.97 57.898 59.966 57.844Z" fill="#1D3A70"/>
<path d="M43.1618 32L37.3638 48.234L25.5058 34.684C25.3339 34.483 25.1237 34.3182 24.8876 34.199C24.6515 34.0798 24.3941 34.0086 24.1303 33.9896C23.8665 33.9706 23.6015 34.004 23.3507 34.0881C23.0999 34.1722 22.8683 34.3051 22.6692 34.4793C22.4702 34.6535 22.3077 34.8654 22.1911 35.1029C22.0745 35.3403 22.0062 35.5985 21.99 35.8625C21.9739 36.1265 22.0103 36.3911 22.0971 36.6409C22.184 36.8907 22.3195 37.1209 22.4958 37.318L35.8238 52.548L34.1158 57.328C33.9376 57.8277 33.9652 58.3777 34.1925 58.857C34.4198 59.3364 34.8282 59.7058 35.3278 59.884C35.8275 60.0622 36.3775 60.0347 36.8569 59.8074C37.3362 59.5801 37.7056 59.1717 37.8838 58.672L47.4098 32H43.1618Z" fill="#1D3A70"/>
<path d="M13.9989 59.9996C13.6583 59.9991 13.3234 59.9115 13.0261 59.7454C12.7288 59.5792 12.4789 59.3398 12.3 59.0499C12.1211 58.7601 12.0192 58.4293 12.004 58.0891C11.9887 57.7488 12.0606 57.4103 12.2129 57.1056L18.3369 44.8936C18.3709 44.8376 21.9989 39.3016 21.9989 33.9996C21.9989 27.5156 17.4129 25.9136 17.3669 25.8976C17.1145 25.8171 16.8807 25.6872 16.6789 25.5156C16.4772 25.344 16.3115 25.134 16.1916 24.8979C16.0716 24.6617 15.9998 24.4041 15.9802 24.1399C15.9607 23.8758 15.9937 23.6104 16.0776 23.3591C16.1614 23.1079 16.2943 22.8758 16.4686 22.6763C16.6429 22.4768 16.855 22.314 17.0928 22.1972C17.3305 22.0804 17.5891 22.0119 17.8534 21.9959C18.1178 21.9798 18.3828 22.0164 18.6329 22.1036C18.9329 22.2036 25.9989 24.6656 25.9989 33.9996C25.9989 40.1356 22.3269 46.0836 21.7369 46.9936L15.7889 58.8916C15.6236 59.2248 15.3683 59.5052 15.052 59.701C14.7357 59.8968 14.3709 60.0003 13.9989 59.9996Z" fill="#1D3A70"/>
<path d="M29.222 27.3264C29.1113 27.327 29.0009 27.3176 28.892 27.2984L16.892 25.2984C16.3687 25.2112 15.9015 24.9196 15.5932 24.4879C15.2849 24.0562 15.1607 23.5197 15.248 22.9964C15.3352 22.4732 15.6268 22.006 16.0585 21.6977C16.4902 21.3894 17.0267 21.2652 17.55 21.3524L29.55 23.3524C30.0465 23.4333 30.4944 23.6983 30.8042 24.0947C31.1141 24.491 31.2632 24.9896 31.2218 25.491C31.1804 25.9924 30.9516 26.4597 30.5809 26.7999C30.2103 27.1401 29.7251 27.3281 29.222 27.3264ZM52.764 34.0004C52.7044 34.0004 52.645 33.9964 52.586 33.9884L41.242 32.5724C40.8729 32.5418 40.5306 32.3678 40.2883 32.0877C40.046 31.8077 39.9231 31.4439 39.9459 31.0743C39.9686 30.7047 40.1353 30.3587 40.4101 30.1105C40.6849 29.8623 41.046 29.7316 41.416 29.7464C41.498 29.7464 49.55 29.7104 53.394 27.1484C53.6402 26.9854 53.931 26.9028 54.2262 26.9121C54.5214 26.9214 54.8065 27.0222 55.042 27.2004C55.2758 27.3808 55.4478 27.6293 55.5341 27.9116C55.6205 28.194 55.6169 28.4962 55.524 28.7764L54.106 33.0304C54.0131 33.313 53.8334 33.559 53.5923 33.7332C53.3513 33.9074 53.0614 34.001 52.764 34.0004Z" fill="#292F33"/>
<path d="M39.998 58C39.998 59.0609 39.5766 60.0783 38.8265 60.8284C38.0763 61.5786 37.0589 62 35.998 62C34.9372 62 33.9198 61.5786 33.1696 60.8284C32.4195 60.0783 31.998 59.0609 31.998 58C31.998 56.9391 32.4195 55.9217 33.1696 55.1716C33.9198 54.4214 34.9372 54 35.998 54C37.0589 54 38.0763 54.4214 38.8265 55.1716C39.5766 55.9217 39.998 56.9391 39.998 58Z" fill="#66757F"/>
</g>
<defs>
<clipPath id="clip0_1180_54120">
<rect width="72" height="72" fill="white" transform="translate(-0.00195312)"/>
</clipPath>
</defs>
</svg>
