<svg width="103" height="60" viewBox="0 0 103 60" fill="none" xmlns="http://www.w3.org/2000/svg">
<rect x="-23.0918" width="125.939" height="60" rx="10" fill="white"/>
<g clip-path="url(#clip0_1180_54039)">
<path d="M27.9171 22.6133H22.7361C22.3815 22.6133 22.08 22.8709 22.0247 23.2209L19.9293 36.5065C19.8876 36.7686 20.0906 37.0049 20.3565 37.0049H22.83C23.1846 37.0049 23.4861 36.7474 23.5414 36.3966L24.1065 32.8133C24.1611 32.4625 24.4634 32.2049 24.8171 32.2049H26.4573C29.8702 32.2049 31.8399 30.5534 32.3543 27.2807C32.5861 25.8489 32.3641 24.7239 31.6937 23.936C30.9573 23.0709 29.6512 22.6133 27.9171 22.6133ZM28.5149 27.4656C28.2315 29.3246 26.8111 29.3246 25.4376 29.3246H24.6558L25.2043 25.8527C25.2368 25.6428 25.4187 25.4883 25.6308 25.4883H25.9891C26.9247 25.4883 27.8073 25.4883 28.2634 26.0216C28.5353 26.3398 28.6187 26.8125 28.5149 27.4656Z" fill="#253B80"/>
<path d="M43.4047 27.4052H40.9237C40.7123 27.4052 40.5297 27.5598 40.4972 27.7696L40.3873 28.4635L40.2138 28.212C39.6767 27.4325 38.479 27.1719 37.2835 27.1719C34.5419 27.1719 32.2002 29.2484 31.7441 32.1613C31.507 33.6143 31.8441 35.0037 32.6684 35.9726C33.4244 36.8635 34.5063 37.2348 35.7934 37.2348C38.0025 37.2348 39.2275 35.8143 39.2275 35.8143L39.1169 36.5037C39.0752 36.7673 39.2782 37.0037 39.5426 37.0037H41.7775C42.1328 37.0037 42.4328 36.7461 42.4888 36.3954L43.8297 27.9037C43.8722 27.6423 43.6699 27.4052 43.4047 27.4052ZM39.9464 32.234C39.707 33.6514 38.582 34.6029 37.1472 34.6029C36.4267 34.6029 35.851 34.3719 35.4813 33.934C35.1146 33.4991 34.9752 32.8802 35.0919 32.1908C35.3154 30.7855 36.4593 29.8029 37.8722 29.8029C38.5767 29.8029 39.1494 30.037 39.5267 30.4787C39.9047 30.9249 40.0547 31.5476 39.9464 32.234Z" fill="#253B80"/>
<path d="M56.6162 27.4053H54.123C53.8851 27.4053 53.6617 27.5235 53.5268 27.7212L50.0882 32.7863L48.6306 27.9189C48.5389 27.6144 48.2579 27.4053 47.9397 27.4053H45.4897C45.192 27.4053 44.9851 27.6962 45.0798 27.9765L47.826 36.0356L45.2442 39.6803C45.0412 39.9674 45.2458 40.3621 45.5965 40.3621H48.0867C48.323 40.3621 48.5442 40.2469 48.6783 40.053L56.9707 28.0833C57.1692 27.7969 56.9654 27.4053 56.6162 27.4053Z" fill="#253B80"/>
<path d="M64.8703 22.6133H59.6885C59.3347 22.6133 59.0331 22.8709 58.9778 23.2209L56.8824 36.5065C56.8407 36.7686 57.0438 37.0049 57.3082 37.0049H59.9672C60.2142 37.0049 60.4256 36.8246 60.4642 36.5792L61.0589 32.8133C61.1135 32.4625 61.4157 32.2049 61.7695 32.2049H63.4089C66.8225 32.2049 68.7915 30.5534 69.3066 27.2807C69.5392 25.8489 69.3157 24.7239 68.6453 23.936C67.9097 23.0709 66.6044 22.6133 64.8703 22.6133ZM65.468 27.4656C65.1854 29.3246 63.765 29.3246 62.3907 29.3246H61.6097L62.1589 25.8527C62.1915 25.6428 62.3718 25.4883 62.5847 25.4883H62.943C63.8778 25.4883 64.7612 25.4883 65.2172 26.0216C65.4892 26.3398 65.5718 26.8125 65.468 27.4656Z" fill="#179BD7"/>
<path d="M80.3585 27.4052H77.879C77.6661 27.4052 77.4851 27.5598 77.4532 27.7696L77.3434 28.4635L77.1691 28.212C76.632 27.4325 75.4351 27.1719 74.2396 27.1719C71.4979 27.1719 69.157 29.2484 68.701 32.1613C68.4646 33.6143 68.8002 35.0037 69.6244 35.9726C70.382 36.8635 71.4623 37.2348 72.7494 37.2348C74.9585 37.2348 76.1835 35.8143 76.1835 35.8143L76.0729 36.5037C76.0313 36.7673 76.2343 37.0037 76.5002 37.0037H78.7343C79.0881 37.0037 79.3896 36.7461 79.4449 36.3954L80.7866 27.9037C80.8275 27.6423 80.6244 27.4052 80.3585 27.4052ZM76.9002 32.234C76.6623 33.6514 75.5358 34.6029 74.101 34.6029C73.382 34.6029 72.8048 34.3719 72.4351 33.934C72.0684 33.4991 71.9305 32.8802 72.0457 32.1908C72.2707 30.7855 73.4131 29.8029 74.826 29.8029C75.5305 29.8029 76.1032 30.037 76.4805 30.4787C76.8601 30.9249 77.0101 31.5476 76.9002 32.234Z" fill="#179BD7"/>
<path d="M83.2823 22.9775L81.1558 36.5062C81.1142 36.7684 81.3172 37.0047 81.5816 37.0047H83.7195C84.0748 37.0047 84.3763 36.7472 84.4308 36.3964L86.5278 23.1115C86.5695 22.8494 86.3664 22.6123 86.102 22.6123H83.7081C83.4967 22.6131 83.3149 22.7676 83.2823 22.9775Z" fill="#179BD7"/>
<path d="M-1.58635 39.586L-1.19014 37.0693L-2.07272 37.0489H-6.28711L-3.35832 18.4784C-3.34923 18.4224 -3.31969 18.3701 -3.2765 18.333C-3.23332 18.2958 -3.17802 18.2754 -3.12044 18.2754H3.98562C6.34471 18.2754 7.97274 18.7663 8.82274 19.7352C9.22122 20.1898 9.47501 20.6648 9.59774 21.1875C9.72652 21.736 9.7288 22.3913 9.60304 23.1905L9.59395 23.2489V23.761L9.99243 23.9868C10.328 24.1648 10.5947 24.3686 10.7993 24.6019C11.1402 24.9905 11.3606 25.4845 11.4538 26.0701C11.55 26.6724 11.5182 27.389 11.3606 28.2004C11.1788 29.1337 10.8849 29.9466 10.4879 30.6118C10.1227 31.2246 9.65758 31.733 9.10531 32.1269C8.57804 32.5011 7.95152 32.7852 7.24319 32.9671C6.55683 33.1458 5.77425 33.236 4.91592 33.236H4.36289C3.96743 33.236 3.58334 33.3784 3.28183 33.6337C2.97956 33.8943 2.77956 34.2504 2.71819 34.6398L2.67653 34.8663L1.97653 39.3019L1.94471 39.4648C1.93637 39.5163 1.92198 39.5421 1.90077 39.5595C1.88183 39.5754 1.85456 39.586 1.82804 39.586H-1.58635Z" fill="#253B80"/>
<path d="M10.3682 23.3086C10.347 23.4442 10.3227 23.5828 10.2954 23.7253C9.35833 28.5366 6.15227 30.1987 2.05757 30.1987H-0.0272768C-0.528034 30.1987 -0.950004 30.5624 -1.02803 31.0563L-2.09546 37.826L-2.39773 39.745C-2.44849 40.0692 -2.19849 40.3616 -1.87122 40.3616H1.82651C2.26439 40.3616 2.63636 40.0434 2.7053 39.6116L2.74166 39.4237L3.43787 35.0056L3.48257 34.7631C3.55075 34.3298 3.92348 34.0116 4.36136 34.0116H4.91439C8.49696 34.0116 11.3015 32.5571 12.1212 28.348C12.4636 26.5897 12.2864 25.1215 11.3803 24.0889C11.1061 23.7775 10.7659 23.5192 10.3682 23.3086Z" fill="#179BD7"/>
<path d="M9.38661 22.9174C9.24343 22.8758 9.0957 22.8379 8.94419 22.8038C8.79191 22.7704 8.63585 22.7409 8.47525 22.7151C7.91313 22.6242 7.29722 22.5811 6.63737 22.5811H1.06767C0.930551 22.5811 0.800248 22.6121 0.683581 22.6682C0.426763 22.7917 0.235855 23.0348 0.189642 23.3326L-0.995206 30.8371L-1.0293 31.0561C-0.951267 30.5621 -0.529297 30.1985 -0.0285394 30.1985H2.05631C6.15101 30.1985 9.35706 28.5356 10.2942 23.725C10.3222 23.5826 10.3457 23.4439 10.3669 23.3083C10.1298 23.1826 9.87297 23.075 9.59646 22.9833C9.52828 22.9606 9.45782 22.9386 9.38661 22.9174Z" fill="#222D65"/>
<path d="M0.191527 23.3326C0.23774 23.0348 0.428648 22.7917 0.685466 22.6689C0.802891 22.6129 0.932436 22.5818 1.06956 22.5818H6.63925C7.2991 22.5818 7.91501 22.625 8.47713 22.7159C8.63774 22.7417 8.7938 22.7712 8.94607 22.8045C9.09759 22.8386 9.24531 22.8765 9.3885 22.9182C9.45971 22.9394 9.53016 22.9614 9.5991 22.9833C9.87562 23.075 10.1324 23.1833 10.3696 23.3083C10.6483 21.5303 10.3673 20.3197 9.40592 19.2235C8.34607 18.0167 6.43319 17.5 3.98547 17.5H-3.12059C-3.62059 17.5 -4.04711 17.8636 -4.12438 18.3583L-7.08423 37.1197C-7.14256 37.4909 -6.8562 37.8258 -6.48196 37.8258H-2.09484L-0.993321 30.8371L0.191527 23.3326Z" fill="#253B80"/>
</g>
<defs>
<clipPath id="clip0_1180_54039">
<rect width="93.9394" height="25" fill="white" transform="translate(-7.0918 17.5)"/>
</clipPath>
</defs>
</svg>
