<svg width="74" height="60" viewBox="0 0 74 60" fill="none" xmlns="http://www.w3.org/2000/svg">
<rect x="0.847656" width="72.625" height="60" rx="10" fill="white"/>
<g clip-path="url(#clip0_1180_54051)">
<path d="M42.397 20.1621H31.5078V39.7256H42.397V20.1621Z" fill="#FF5A00"/>
<path d="M32.231 29.9436C32.231 25.9689 34.0996 22.4412 36.9669 20.1619C34.8567 18.5027 32.1948 17.5 29.2913 17.5C22.4131 17.5 16.8477 23.0654 16.8477 29.9436C16.8477 36.8218 22.4131 42.3872 29.2913 42.3872C32.1948 42.3872 34.8567 41.3845 36.9669 39.7254C34.0956 37.4783 32.231 33.9183 32.231 29.9436Z" fill="#EB001B"/>
<path d="M57.0879 29.9436C57.0879 36.8218 51.5226 42.3872 44.6443 42.3872C41.7408 42.3872 39.0789 41.3845 36.9688 39.7254C39.8723 37.442 41.7046 33.9183 41.7046 29.9436C41.7046 25.9689 39.836 22.4412 36.9688 20.1619C39.0749 18.5027 41.7368 17.5 44.6403 17.5C51.5225 17.5 57.0879 23.1016 57.0879 29.9436Z" fill="#F79E1B"/>
</g>
<defs>
<clipPath id="clip0_1180_54051">
<rect width="40.625" height="25" fill="white" transform="translate(16.8477 17.5)"/>
</clipPath>
</defs>
</svg>
