<svg width="95" height="60" viewBox="0 0 95 60" fill="none" xmlns="http://www.w3.org/2000/svg">
<rect x="0.472656" width="93.5984" height="60" rx="10" fill="white"/>
<g clip-path="url(#clip0_1180_54057)">
<path d="M56.5851 20.0312C52.2158 20.0312 48.3111 22.296 48.3111 26.4802C48.3111 31.2787 55.2362 31.6102 55.2362 34.0208C55.2362 35.0359 54.0729 35.9445 52.0862 35.9445C49.2667 35.9445 47.1593 34.6749 47.1593 34.6749L46.2576 38.8972C46.2576 38.8972 48.6852 39.9696 51.9083 39.9696C56.6854 39.9696 60.4444 37.5937 60.4444 33.3379C60.4444 28.2674 53.4905 27.9458 53.4905 25.7084C53.4905 24.9132 54.4454 24.042 56.4264 24.042C58.6616 24.042 60.4853 24.9654 60.4853 24.9654L61.3677 20.8873C61.3677 20.8873 59.3834 20.0312 56.5851 20.0312ZM16.6097 20.339L16.5039 20.9546C16.5039 20.9546 18.3421 21.291 19.9977 21.9621C22.1294 22.7316 22.2813 23.1796 22.6403 24.571L26.5525 39.6522H31.7968L39.876 20.339H34.6437L29.4523 33.4702L27.3339 22.3396C27.1397 21.0657 26.1556 20.339 24.951 20.339H16.6097ZM41.98 20.339L37.8754 39.6522H42.8648L46.9549 20.339H41.98ZM69.8076 20.339C68.6045 20.339 67.9671 20.9832 67.4993 22.1088L60.1895 39.6522H65.4218L66.4341 36.7283H72.8085L73.4241 39.6522H78.0408L74.0132 20.339H69.8076ZM70.4881 25.5569L72.0391 32.8041H67.884L70.4881 25.5569Z" fill="#1434CB"/>
</g>
<defs>
<clipPath id="clip0_1180_54057">
<rect width="61.5984" height="20" fill="white" transform="translate(16.4727 20)"/>
</clipPath>
</defs>
</svg>
