<svg width="62" height="60" viewBox="0 0 62 60" fill="none" xmlns="http://www.w3.org/2000/svg">
<rect x="0.0703125" width="94.9541" height="60" rx="10" fill="white"/>
<g clip-path="url(#clip0_1180_54060)">
<path d="M45.8444 29.713V37.0413H43.5195V18.9436H49.6854C50.4214 18.9282 51.1532 19.0588 51.8384 19.3277C52.5237 19.5966 53.149 19.9985 53.6781 20.5103C54.2125 20.9911 54.6379 21.5807 54.9256 22.2394C55.2132 22.8982 55.3566 23.6109 55.3459 24.3297C55.3612 25.0523 55.2201 25.7697 54.9322 26.4327C54.6443 27.0957 54.2165 27.6886 53.6781 28.1708C52.5999 29.1989 51.269 29.7125 49.6854 29.7115H45.8444V29.713ZM45.8444 21.1717V27.4892H49.7432C50.1706 27.5019 50.596 27.4252 50.9921 27.2641C51.3882 27.1029 51.7463 26.8609 52.0435 26.5535C52.3391 26.266 52.5741 25.9222 52.7346 25.5424C52.8951 25.1625 52.9778 24.7544 52.9778 24.342C52.9778 23.9296 52.8951 23.5215 52.7346 23.1416C52.5741 22.7618 52.3391 22.418 52.0435 22.1305C51.75 21.8166 51.3931 21.5686 50.9966 21.4031C50.6 21.2375 50.1727 21.1582 49.7432 21.1702H45.8444V21.1717Z" fill="#5F6368"/>
<path d="M60.7053 24.2549C62.4237 24.2549 63.7801 24.7141 64.7745 25.6325C65.7689 26.5508 66.2657 27.81 66.2647 29.41V37.0415H64.0409V35.3232H63.9399C62.9772 36.7383 61.6968 37.4458 60.0988 37.4458C58.7347 37.4458 57.5935 37.0415 56.6751 36.2329C56.2344 35.8617 55.882 35.3969 55.6437 34.8723C55.4054 34.3477 55.2871 33.7766 55.2975 33.2005C55.2975 31.9192 55.7817 30.9002 56.7502 30.1435C57.7186 29.3869 59.0115 29.0076 60.6288 29.0056C62.0092 29.0056 63.1461 29.2583 64.0395 29.7637V29.2324C64.0421 28.8396 63.9573 28.4512 63.7912 28.0953C63.6251 27.7394 63.3819 27.4249 63.0792 27.1747C62.4644 26.62 61.6632 26.3173 60.8353 26.327C59.5366 26.327 58.509 26.8748 57.7523 27.9703L55.7047 26.6808C56.831 25.0635 58.4979 24.2549 60.7053 24.2549ZM57.6974 33.251C57.6959 33.5469 57.765 33.8389 57.8992 34.1026C58.0333 34.3663 58.2285 34.5942 58.4685 34.7672C58.9827 35.1717 59.6209 35.3859 60.275 35.3737C61.256 35.3721 62.1964 34.9816 62.8901 34.2878C63.6602 33.5629 64.0453 32.7124 64.0453 31.7363C63.3204 31.1587 62.3096 30.8699 61.0129 30.8699C60.0685 30.8699 59.281 31.0975 58.6505 31.5529C58.0137 32.0149 57.6974 32.5767 57.6974 33.251Z" fill="#5F6368"/>
<path d="M36.4526 28.1335C36.4535 27.4251 36.3935 26.7178 36.2735 26.0195H26.4688V30.0237H32.0845C31.9696 30.6633 31.7263 31.2729 31.3695 31.8159C31.0126 32.3589 30.5495 32.824 30.008 33.1832V35.7824H33.3595C35.3219 33.9731 36.4526 31.2974 36.4526 28.1335Z" fill="#4285F4"/>
<path d="M26.469 38.2937C29.2746 38.2937 31.637 37.3724 33.3597 35.784L30.0082 33.1848C29.0754 33.8173 27.874 34.1783 26.469 34.1783C23.7571 34.1783 21.4554 32.3502 20.6323 29.8867H17.1797V32.5653C18.045 34.2873 19.3719 35.7348 21.0123 36.7464C22.6526 37.7579 24.5418 38.2936 26.469 38.2937Z" fill="#34A853"/>
<path d="M20.63 29.8868C20.1949 28.5959 20.1949 27.198 20.63 25.9071V23.2285H17.1774C16.4494 24.6771 16.0703 26.2758 16.0703 27.897C16.0703 29.5182 16.4494 31.1169 17.1774 32.5654L20.63 29.8868Z" fill="#FBBC04"/>
<path d="M26.469 21.6151C27.9516 21.5909 29.3843 22.1511 30.4573 23.1746L33.4247 20.2072C31.5431 18.4399 29.0503 17.4696 26.469 17.4997C24.5418 17.4998 22.6526 18.0355 21.0123 19.047C19.3719 20.0586 18.045 21.5061 17.1797 23.2281L20.6323 25.9067C21.4554 23.4432 23.7571 21.6151 26.469 21.6151Z" fill="#EA4335"/>
</g>
<defs>
<clipPath id="clip0_1180_54060">
<rect width="62.9541" height="25" fill="white" transform="translate(16.0703 17.5)"/>
</clipPath>
</defs>
</svg>
