<svg width="30" height="30" viewBox="0 0 44 46" fill="none" xmlns="http://www.w3.org/2000/svg">
<g clip-path="url(#clip0_185_34024)">
<g clip-path="url(#clip1_185_34024)">
<path fill-rule="evenodd" clip-rule="evenodd" d="M20.8743 16.0235L13.3398 11.667V19.6829L20.8743 24.2137V16.0235Z" fill="#FF681E"/>
<path fill-rule="evenodd" clip-rule="evenodd" d="M30.5114 9.05352L21.9256 4L13.3398 9.05352L21.9256 14.107L30.5114 9.05352Z" fill="#FF681E"/>
<path fill-rule="evenodd" clip-rule="evenodd" d="M30.5071 19.6829V11.667L22.9727 16.0235V24.2137L30.5071 19.6829Z" fill="#FF681E"/>
<path fill-rule="evenodd" clip-rule="evenodd" d="M21.9207 31.3583C19.1171 31.3583 16.6641 33.6237 16.6641 36.4119C16.6641 39.3743 19.1171 41.6396 21.9207 41.6396C24.7242 41.6396 27.1773 39.3743 27.1773 36.4119C27.1773 33.6237 24.7242 31.3583 21.9207 31.3583Z" fill="#FF681E"/>
<path fill-rule="evenodd" clip-rule="evenodd" d="M8.08139 31.3583C5.27787 31.3583 3 33.6237 3 36.4119C3 39.3743 5.27787 41.6396 8.08139 41.6396C11.0601 41.6396 13.338 39.3743 13.338 36.4119C13.338 33.6237 11.0601 31.3583 8.08139 31.3583Z" fill="#FF681E"/>
<path fill-rule="evenodd" clip-rule="evenodd" d="M35.7605 31.3584C32.7818 31.3584 30.5039 33.6238 30.5039 36.4119C30.5039 39.3743 32.7818 41.6397 35.7605 41.6397C38.564 41.6397 40.8419 39.3743 40.8419 36.4119C40.8419 33.6238 38.564 31.3584 35.7605 31.3584Z" fill="#FF681E"/>
<path fill-rule="evenodd" clip-rule="evenodd" d="M9.30912 29.2676V28.7449H20.8737V29.2676C21.2241 29.0934 21.5745 29.0934 21.925 29.0934C22.2754 29.0934 22.6259 29.0934 22.9763 29.2676V28.7449H34.5409V29.2676C34.8913 29.0934 35.2417 29.0934 35.7674 29.0934C36.1178 29.0934 36.4683 29.0934 36.8187 29.2676V26.4795H7.03125V29.2676C7.38169 29.0934 7.73213 29.0934 8.08257 29.0934C8.60823 29.0934 8.95867 29.0934 9.30912 29.2676Z" fill="#FF681E"/>
</g>
</g>
<defs>
<clipPath id="clip0_185_34024">
<rect width="44" height="44" fill="white" transform="translate(0 1.2002)"/>
</clipPath>
<clipPath id="clip1_185_34024">
<rect width="44" height="44" fill="white" transform="translate(0 1.2002)"/>
</clipPath>
</defs>
</svg>
