<svg width="30" height="30" viewBox="0 0 44 51" fill="none" xmlns="http://www.w3.org/2000/svg">
<rect opacity="0.01" width="44" height="50.5371" fill="#FF681E"/>
<path d="M16.5 6.31714H9.16667C7.14162 6.31714 5.5 8.20266 5.5 10.5286V18.9514C5.5 21.2773 7.14162 23.1629 9.16667 23.1629H16.5C18.525 23.1629 20.1667 21.2773 20.1667 18.9514V10.5286C20.1667 8.20266 18.525 6.31714 16.5 6.31714Z" fill="#FF681E"/>
<path d="M34.832 6.31714H27.4987C25.4737 6.31714 23.832 8.20266 23.832 10.5286V18.9514C23.832 21.2773 25.4737 23.1629 27.4987 23.1629H34.832C36.8571 23.1629 38.4987 21.2773 38.4987 18.9514V10.5286C38.4987 8.20266 36.8571 6.31714 34.832 6.31714Z" fill="#FF681E"/>
<path d="M16.5 27.3743H9.16667C7.14162 27.3743 5.5 29.2598 5.5 31.5857V40.0086C5.5 42.3345 7.14162 44.22 9.16667 44.22H16.5C18.525 44.22 20.1667 42.3345 20.1667 40.0086V31.5857C20.1667 29.2598 18.525 27.3743 16.5 27.3743Z" fill="#FF681E"/>
<path d="M34.832 27.3743H27.4987C25.4737 27.3743 23.832 29.2598 23.832 31.5857V40.0086C23.832 42.3345 25.4737 44.22 27.4987 44.22H34.832C36.8571 44.22 38.4987 42.3345 38.4987 40.0086V31.5857C38.4987 29.2598 36.8571 27.3743 34.832 27.3743Z" fill="#FF681E"/>
</svg>
