<svg width="30" height="30" viewBox="0 0 44 44" fill="none" xmlns="http://www.w3.org/2000/svg">
<rect opacity="0.01" x="44" y="44" width="44" height="44" transform="rotate(180 44 44)" fill="#FF681E"/>
<path d="M5.94169 13.365L21.5617 21.8533C21.8367 22 22.1667 22 22.4417 21.8533L38.0617 13.365C38.3531 13.2211 38.5297 12.9164 38.5096 12.592C38.4896 12.2677 38.2769 11.987 37.97 11.88L22.35 5.50001C22.1268 5.40832 21.8765 5.40832 21.6534 5.50001L6.03335 11.88C5.72647 11.987 5.51375 12.2677 5.49373 12.592C5.4737 12.9164 5.65029 13.2211 5.94169 13.365Z" fill="#FF681E"/>
<path d="M37.9701 19.5433L34.6151 18.1133L22.4418 24.7317C22.1668 24.8783 21.8368 24.8783 21.5618 24.7317L9.38848 18.1133L6.03348 19.5433C5.74389 19.6954 5.5625 19.9954 5.5625 20.3225C5.5625 20.6496 5.74389 20.9497 6.03348 21.1017L21.6535 30.085C21.9236 30.2502 22.2634 30.2502 22.5335 30.085L38.1535 21.1017C38.4293 20.9181 38.5786 20.5953 38.5399 20.2663C38.5012 19.9373 38.281 19.6579 37.9701 19.5433Z" fill="#FF681E"/>
<path d="M37.9684 27.6833L35.1084 26.4367L22.44 33.33C22.165 33.4767 21.835 33.4767 21.56 33.33L8.89169 26.4367L6.03169 27.6833C5.73384 27.8378 5.54688 28.1453 5.54688 28.4808C5.54688 28.8164 5.73384 29.1239 6.03169 29.2783L21.6517 38.445C21.9267 38.5917 22.2567 38.5917 22.5317 38.445L38.1517 29.2783C38.4358 29.0922 38.5907 28.7618 38.5519 28.4243C38.5131 28.0869 38.2873 27.8001 37.9684 27.6833Z" fill="#FF681E"/>
</svg>
