<svg width="30" height="30" viewBox="0 0 44 44" fill="none" xmlns="http://www.w3.org/2000/svg">
<rect opacity="0.01" width="44" height="44" fill="#FF681E"/>
<path d="M20.3659 42.1667C20.1533 42.1664 19.9424 42.1292 19.7426 42.0567C18.9493 41.7662 18.4571 40.9713 18.5509 40.1317L19.9626 27.1334H9.16423C8.48551 27.1344 7.86175 26.7603 7.54295 26.1611C7.22415 25.562 7.26248 24.8357 7.64256 24.2734L22.1076 2.64002C22.5783 1.94346 23.4624 1.65631 24.2526 1.94335C25.0106 2.22479 25.4948 2.96964 25.4442 3.77668L24.0326 16.8667H34.8309C35.5096 16.8657 36.1334 17.2397 36.4522 17.8389C36.771 18.4381 36.7326 19.1644 36.3526 19.7267L21.8876 41.36C21.5461 41.8652 20.9757 42.1676 20.3659 42.1667Z" fill="#FF681E"/>
</svg>
