<svg width="92" height="91" viewBox="0 0 92 91" fill="none" xmlns="http://www.w3.org/2000/svg">
<g clip-path="url(#clip0_541_77814)">
<path d="M68.4399 0.136169H23.0633C10.5329 0.136169 0.375 10.2941 0.375 22.8245V68.2011C0.375 80.7315 10.5329 90.8894 23.0633 90.8894H68.4399C80.9703 90.8894 91.1282 80.7315 91.1282 68.2011V22.8245C91.1282 10.2941 80.9703 0.136169 68.4399 0.136169Z" fill="#1D3A70"/>
<path opacity="0.2" d="M28.6641 44.4438V54.4081C28.6641 55.1632 28.964 55.8873 29.498 56.4213C30.0318 56.9551 30.756 57.2551 31.5111 57.2551H34.358C35.1131 57.2551 35.8372 56.9551 36.371 56.4213C36.905 55.8873 37.205 55.1632 37.205 54.4081V47.2908C37.205 46.5358 36.905 45.8116 36.371 45.2777C35.8372 44.7437 35.1131 44.4438 34.358 44.4438H28.6641Z" fill="white"/>
<path opacity="0.2" d="M63.0877 44.4438H57.3938C56.6387 44.4438 55.9146 44.7437 55.3807 45.2777C54.8468 45.8116 54.5469 46.5358 54.5469 47.2908V54.4081C54.5469 55.1632 54.8468 55.8873 55.3807 56.4213C55.9146 56.9551 56.6387 57.2551 57.3938 57.2551H60.2407C60.9958 57.2551 61.7199 56.9551 62.2539 56.4213C62.7877 55.8873 63.0877 55.1632 63.0877 54.4081V44.4438Z" fill="white"/>
<path d="M63.0865 44.4435H57.3926C56.6375 44.4435 55.9134 44.7434 55.3795 45.2774C54.8456 45.8112 54.5456 46.5353 54.5456 47.2904V54.4078C54.5456 55.1628 54.8456 55.887 55.3795 56.4208C55.9134 56.9548 56.6375 57.2548 57.3926 57.2548H60.2395C60.9945 57.2548 61.7188 56.9548 62.2526 56.4208C62.7866 55.887 63.0865 55.1628 63.0865 54.4078V44.4435ZM63.0865 44.4435C63.0865 42.1894 62.6404 39.9575 61.7738 37.8767C60.9072 35.7958 59.6374 33.907 58.0375 32.3192C56.4376 30.7313 54.5392 29.4759 52.4518 28.6252C50.3644 27.7744 48.1294 27.3452 45.8753 27.3622C43.6212 27.3452 41.3862 27.7744 39.2987 28.6252C37.2113 29.4759 35.313 30.7313 33.7131 32.3192C32.1131 33.907 30.8434 35.7958 29.9768 37.8767C29.1102 39.9575 28.6641 42.1894 28.6641 44.4435M28.6641 44.4435V54.4078C28.6641 55.1628 28.964 55.887 29.498 56.4208C30.0318 56.9548 30.756 57.2548 31.5111 57.2548H34.358C35.1131 57.2548 35.8372 56.9548 36.371 56.4208C36.905 55.887 37.205 55.1628 37.205 54.4078V47.2904C37.205 46.5353 36.905 45.8112 36.371 45.2774C35.8372 44.7434 35.1131 44.4435 34.358 44.4435H28.6641Z" stroke="white" stroke-width="2.83604" stroke-linecap="round" stroke-linejoin="round"/>
<path d="M63.0892 54.4077V58.678C63.0892 60.1882 62.4893 61.6365 61.4215 62.7043C60.3537 63.7721 58.9054 64.372 57.3952 64.372H47.1719" stroke="white" stroke-width="2.83604" stroke-linecap="round" stroke-linejoin="round"/>
</g>
<defs>
<clipPath id="clip0_541_77814">
<rect width="90.7532" height="90.7532" fill="white" transform="translate(0.375 0.136169)"/>
</clipPath>
</defs>
</svg>
