<svg width="91" height="91" viewBox="0 0 91 91" fill="none" xmlns="http://www.w3.org/2000/svg">
<g clip-path="url(#clip0_541_77833)">
<path d="M68.3149 0.135803H22.9383C10.4079 0.135803 0.25 10.2937 0.25 22.8241V68.2007C0.25 80.7311 10.4079 90.889 22.9383 90.889H68.3149C80.8453 90.889 91.0032 80.7311 91.0032 68.2007V22.8241C91.0032 10.2937 80.8453 0.135803 68.3149 0.135803Z" fill="#1D3A70"/>
<path opacity="0.2" d="M40.239 64.371L42.9332 50.8998L32.1562 46.8584L51.0159 26.6517L48.3217 40.1228L59.0986 44.1642L40.239 64.371Z" fill="white"/>
<path d="M40.239 64.371L42.9332 50.8998L32.1562 46.8584L51.0159 26.6517L48.3217 40.1228L59.0986 44.1642L40.239 64.371Z" stroke="white" stroke-width="2.83604" stroke-linecap="round" stroke-linejoin="round"/>
</g>
<defs>
<clipPath id="clip0_541_77833">
<rect width="90.7532" height="90.7532" fill="white" transform="translate(0.25 0.135986)"/>
</clipPath>
</defs>
</svg>
