<svg width="630" height="196" viewBox="0 0 630 196" fill="none" xmlns="http://www.w3.org/2000/svg">
<g clip-path="url(#clip0_5_420)">
<path d="M24.1051 0V105.029H74.6109L84.3677 126.839H0V0H24.1051Z" fill="#293C7A"/>
<path d="M168.162 37.8792L100.438 195.71H75.7594L105.604 125.691L69.4462 37.8792H95.273L109.047 76.3325L117.656 101.585L126.839 76.9064L143.483 37.8792H168.162ZM204.894 37.8792L206.615 48.2099C213.503 37.3052 222.686 35.5835 231.868 35.5835C241.051 35.5835 250.234 39.027 254.826 44.1924L245.069 63.1321C240.477 59.1146 236.46 57.3928 228.999 57.3928C217.52 57.3928 206.615 63.706 206.615 79.7761V126.838H184.232V37.3052L204.894 37.8792ZM334.028 37.8792H355.263V127.412H334.602L333.454 114.212C328.289 124.543 314.514 129.708 304.184 129.708C277.783 129.708 258.269 113.638 258.269 82.0718C258.269 51.0796 278.931 35.0095 304.758 35.5835C316.81 35.5835 328.289 41.3228 333.454 49.9317L334.028 37.8792ZM280.079 82.0718C280.079 99.2897 292.131 109.047 306.479 109.047C341.489 109.047 341.489 55.0971 306.479 55.0971C292.131 55.0971 280.079 65.4278 280.079 82.0718Z" fill="#293C7A"/>
</g>
<defs>
<clipPath id="clip0_5_420">
<rect width="630" height="195.71" fill="white"/>
</clipPath>
</defs>
</svg>
