<svg width="60" height="60" viewBox="0 0 71 71" fill="none" xmlns="http://www.w3.org/2000/svg">
<path d="M27 26C32.5228 26 37 23.7614 37 21C37 18.2386 32.5228 16 27 16C21.4772 16 17 18.2386 17 21C17 23.7614 21.4772 26 27 26Z" stroke="#1D3A70" stroke-width="4" stroke-linecap="round" stroke-linejoin="round"/>
<path d="M17 21V28C17 30.761 21.477 33 27 33C32.523 33 37 30.761 37 28V21" stroke="#1D3A70" stroke-width="4" stroke-linecap="round" stroke-linejoin="round"/>
<path d="M17 28V35C17 37.761 21.477 40 27 40C32.523 40 37 37.761 37 35V28" stroke="#1D3A70" stroke-width="4" stroke-linecap="round" stroke-linejoin="round"/>
<path d="M17 35V42C17 44.761 21.477 47 27 47C32.523 47 37 44.761 37 42V35" stroke="#1D3A70" stroke-width="4" stroke-linecap="round" stroke-linejoin="round"/>
<path d="M17 42V49C17 51.761 21.477 54 27 54C32.523 54 37 51.761 37 49V42" stroke="#1D3A70" stroke-width="4" stroke-linecap="round" stroke-linejoin="round"/>
<path d="M47 40C52.5228 40 57 37.7614 57 35C57 32.2386 52.5228 30 47 30C41.4772 30 37 32.2386 37 35C37 37.7614 41.4772 40 47 40Z" stroke="#1D3A70" stroke-width="4" stroke-linecap="round" stroke-linejoin="round"/>
<path d="M37 35V42C37 44.761 41.477 47 47 47C52.523 47 57 44.761 57 42V35" stroke="#1D3A70" stroke-width="4" stroke-linecap="round" stroke-linejoin="round"/>
<path d="M37 42V49C37 51.761 41.477 54 47 54C52.523 54 57 51.761 57 49V42" stroke="#1D3A70" stroke-width="4" stroke-linecap="round" stroke-linejoin="round"/>
</svg>
