<svg width="60" height="60" viewBox="0 0 70 71" fill="none" xmlns="http://www.w3.org/2000/svg">
<g clip-path="url(#clip0_1999_9535)">
<path d="M8.96875 37.7468C8.96875 30.5511 11.7542 24.0518 16.6287 19.4094C21.271 14.5349 27.7704 11.7495 34.7339 11.7495V6.875L48.1968 13.6064L34.7339 20.57V15.9276C28.931 15.9276 23.3601 18.4809 19.6462 22.1948C15.7002 26.373 13.1469 31.7117 13.1469 37.7468C13.1469 43.7819 15.7002 49.3527 19.6462 53.2987C23.5922 57.2448 28.931 59.7981 34.966 59.7981C41.0011 59.7981 46.3399 57.2448 50.2859 53.2987C54.2319 49.3527 56.7852 43.7819 56.7852 37.7468C56.7852 32.4081 54.9283 27.5336 51.6786 23.5875H56.7852C59.5706 27.7657 60.9633 32.6402 60.9633 37.7468C60.9633 44.9425 58.1779 51.4418 53.3034 56.3163C48.6611 60.9587 42.1617 63.9762 34.966 63.9762C27.7704 63.9762 21.271 60.9587 16.6287 56.3163C11.7542 51.4418 8.96875 44.9425 8.96875 37.7468Z" fill="#1D3A70" stroke="#FAFAFA" stroke-width="1.85687"/>
<path fill-rule="evenodd" clip-rule="evenodd" d="M36.5971 33.8009H27.5444C26.3839 33.8009 25.6875 34.0331 25.6875 34.9615C25.6875 36.1221 26.616 36.1221 27.5444 36.1221C29.8656 36.1221 34.7401 36.1221 36.5971 36.1221C36.365 37.0506 35.6686 37.747 35.2044 37.9791C34.2759 38.6754 33.5795 38.6754 32.4189 38.6754C31.7226 38.6754 29.8656 38.6754 29.1693 38.6754C28.2408 38.9076 27.7766 40.0682 28.4729 40.7645C31.2583 43.5499 34.2759 46.3354 36.8292 49.1208C37.2934 49.585 37.9898 50.5135 38.6861 50.7456C39.3825 51.442 40.5431 50.7456 40.5431 49.8171C40.5431 49.1208 39.6146 48.1923 39.1504 47.9602L34.0438 42.8536C33.8117 42.6215 32.6511 41.4609 32.4189 41.2287C35.2044 40.9966 37.0613 40.3003 38.2219 38.4433C38.9183 37.5148 38.6861 37.2827 39.1504 36.3543C40.5431 36.1221 42.8643 36.8185 43.0964 34.9615C43.0964 32.8725 39.8467 34.2652 39.1504 33.5688C39.1504 33.5688 39.1504 33.5688 39.1504 33.3367L38.6861 32.4082C38.6861 32.1761 38.2219 31.7119 38.2219 31.2476C39.1504 31.2476 41.9358 31.4798 42.4 31.0155C43.3285 30.5513 43.3285 28.6943 41.4716 28.6943H27.3123C25.4554 28.6943 25.4554 30.5513 26.1517 31.0155C27.0802 31.7119 32.6511 30.7834 34.2759 31.4798C35.2044 31.7119 36.365 32.6404 36.5971 33.8009Z" fill="#FF681E" stroke="#FAFAFA" stroke-width="0.928298"/>
</g>
<defs>
<clipPath id="clip0_1999_9535">
<rect width="69.6356" height="69.6356" fill="white" transform="translate(0.140625 0.607422)"/>
</clipPath>
</defs>
</svg>
