<svg width="60" height="60" viewBox="0 0 70 70" fill="none" xmlns="http://www.w3.org/2000/svg">
<g clip-path="url(#clip0_1999_9516)">
<path fill-rule="evenodd" clip-rule="evenodd" d="M16.1435 30.3401V50.3023C13.3581 50.3023 11.7333 52.3914 11.7333 55.1768C11.7333 59.8192 11.0369 59.1229 17.072 59.1229C21.2501 59.1229 58.6212 59.355 59.5497 59.1229C60.9424 58.8907 60.4782 56.8017 60.4782 55.409C60.4782 52.6235 59.0855 50.3023 56.0679 50.3023V30.3401C61.1745 30.3401 60.4782 31.0365 60.4782 25.4656C60.4782 24.3051 60.4782 24.0729 59.5497 23.6087L44.2299 14.3239C42.8372 13.6276 41.6766 12.9312 40.2839 12.2349C39.3554 11.5385 37.7306 10.3779 36.1057 10.3779C34.4809 10.3779 33.0882 11.5385 31.9276 12.2349L20.3217 18.9663C17.7683 20.5912 15.215 21.9839 12.6617 23.6087C11.7333 24.0729 11.7333 24.0729 11.7333 25.4656C11.7333 28.4832 11.269 30.3401 12.8939 30.3401C14.0544 30.3401 14.9829 30.3401 16.1435 30.3401ZM49.3365 50.3023H53.9789V49.8381V30.3401H49.3365V50.3023ZM33.7845 49.8381V50.3023H38.4269V49.8381V30.3401H33.7845V49.8381ZM18.2326 49.8381V50.3023H22.875V30.3401H22.1786H18.2326V49.8381ZM47.2474 50.0702V30.3401C47.0153 30.108 46.5511 30.108 45.6226 30.108C44.462 30.108 41.2123 30.108 40.516 30.3401C40.2839 31.0365 40.2839 49.8381 40.516 50.3023H46.7832C47.2474 50.3023 47.0153 50.3023 47.2474 50.0702ZM24.964 30.3401V50.0702C25.1961 50.5345 25.6604 50.3023 26.5889 50.3023H31.6955C31.9276 49.8381 31.9276 31.0365 31.6955 30.3401L25.6604 30.108C24.964 30.108 25.1961 30.108 24.964 30.3401ZM13.8223 57.0338H58.3891C58.6212 51.2308 56.5322 52.3914 49.5686 52.3914C40.516 52.3914 31.6955 52.3914 22.875 52.3914C20.5538 52.3914 18.2326 52.3914 16.1435 52.3914C13.8223 52.6235 13.8223 54.7126 13.8223 57.0338ZM13.8223 25.4656V28.019H58.3891V25.4656C54.6752 23.1445 50.9613 21.0554 47.2474 18.7342L39.1233 13.8597C35.4094 11.7706 36.57 12.0028 30.5349 15.4845L13.8223 25.4656Z" fill="#1D3A70"/>
<path fill-rule="evenodd" clip-rule="evenodd" d="M35.1652 17.1079C33.0762 17.5722 30.9871 19.6612 31.6835 22.4467C33.3083 28.2496 41.8967 25.9284 40.504 20.3576C39.8076 18.2685 37.7186 16.4116 35.1652 17.1079ZM35.3974 19.197C32.6119 20.1255 33.7725 24.3036 36.7901 23.6073C37.7186 23.143 38.647 21.9824 38.1828 20.8218C37.9507 19.6612 36.7901 18.9649 35.3974 19.197Z" fill="#FF681E"/>
<path fill-rule="evenodd" clip-rule="evenodd" d="M47.2415 50.0706L40.51 50.3027V30.3405C42.1349 30.3405 46.0809 30.1084 47.2415 30.3405C47.0094 30.1084 46.5451 30.1084 45.6166 30.1084C44.456 30.1084 41.2064 30.1084 40.51 30.3405C40.2779 31.0369 40.2779 49.8385 40.51 50.3027H46.7772C47.2415 50.3027 47.0094 50.3027 47.2415 50.0706Z" fill="#354BBD"/>
<path fill-rule="evenodd" clip-rule="evenodd" d="M24.9531 50.0706C25.1852 50.5348 25.6495 50.3027 26.578 50.3027H31.6846C31.9167 49.8385 31.9167 31.0369 31.6846 30.3405L25.6495 30.1084C24.9531 30.1084 25.1852 30.1084 24.9531 30.3405C26.1137 30.1084 30.0597 30.3405 31.6846 30.3405V50.3027L24.9531 50.0706Z" fill="#354BBD"/>
</g>
<defs>
<clipPath id="clip0_1999_9516">
<rect width="69.6348" height="69.6348" fill="white"/>
</clipPath>
</defs>
</svg>
