<svg width="60" height="60" viewBox="0 0 71 71" fill="none"
    xmlns="http://www.w3.org/2000/svg">
    <g clip-path="url(#clip0_1999_9544)">
        <path d="M39.5323 60.3435C39.0681 60.3435 38.8359 59.8793 38.8359 59.4151C38.8359 59.183 38.8359 58.9508 39.0681 58.7187L49.7454 46.6487C50.2096 46.4166 50.6738 46.4166 51.1381 46.6487C51.3702 46.8808 51.3702 47.5772 51.1381 47.8093L40.2286 60.1114C40.2286 60.1114 39.9965 60.3435 39.5323 60.3435Z" fill="#1D3A70"/>
        <path d="M27.9312 30.1689C27.467 30.1689 27.0027 29.7047 27.0027 29.2405C27.0027 26.6872 24.9137 24.5981 22.5925 24.5981C22.1283 24.5981 21.6641 24.1339 21.6641 23.6697C21.6641 23.2054 22.1283 22.7412 22.5925 22.7412C26.0743 22.7412 28.8597 25.7587 28.8597 29.2405C28.8597 29.7047 28.3954 30.1689 27.9312 30.1689Z" fill="#1D3A70"/>
        <path d="M22.5925 54.309C22.1283 54.309 21.6641 53.8447 21.6641 53.3805V23.6697C21.6641 23.2054 21.8962 22.7412 22.5925 22.7412C23.0568 22.7412 23.2889 23.2054 23.521 23.6697V53.3805C23.521 53.8447 23.0568 54.309 22.5925 54.309Z" fill="#1D3A70"/>
        <path d="M51.3722 48.273H29.7854C28.1606 48.273 27 46.8804 27 45.4877V9.27758C27 7.65277 28.1606 6.49219 29.7854 6.49219H51.3722C52.7649 6.49219 54.1576 7.65277 54.1576 9.27758C54.1576 9.74181 53.6933 10.206 53.2291 10.206C52.7649 10.206 52.3006 9.74181 52.3006 9.27758C52.3006 8.58123 51.8364 8.34911 51.3722 8.34911H29.7854C29.3212 8.34911 28.8569 8.58123 28.8569 9.27758V45.4877C28.8569 45.9519 29.3212 46.4161 29.7854 46.4161H51.3722C51.8364 46.4161 52.3006 45.9519 52.3006 45.4877C52.3006 45.0234 52.7649 44.5592 53.2291 44.5592C53.6933 44.5592 54.1576 45.0234 54.1576 45.4877C54.1576 46.8804 52.7649 48.273 51.3722 48.273Z" fill="#1D3A70"/>
        <path d="M53.2253 23.6695C52.7611 23.6695 52.2969 23.2052 52.2969 22.741V9.27829C52.2969 8.58194 52.7611 8.34983 53.2253 8.34983C53.6896 8.11771 54.1538 8.58194 54.1538 9.04617C54.1538 9.04617 54.1538 9.04617 54.1538 9.27829V22.741C54.1538 23.2052 53.6896 23.6695 53.2253 23.6695Z" fill="#1D3A70"/>
        <path d="M53.2373 40.1484C51.1482 40.1484 49.5234 38.5236 49.5234 36.4346C49.5234 34.3455 51.1482 32.7207 53.2373 32.7207C53.7015 32.7207 54.1658 33.1849 54.1658 33.6492C54.1658 34.1134 53.7015 34.5776 53.2373 34.5776C52.0767 34.5776 51.3804 35.5061 51.3804 36.4346C51.3804 37.363 52.0767 38.2915 53.2373 38.2915C53.7015 38.2915 54.1658 38.7557 54.1658 39.2199C53.9336 39.6842 53.7015 39.9163 53.2373 40.1484Z" fill="#1D3A70"/>
        <path d="M53.2373 45.4886C51.1482 45.4886 49.5234 43.8637 49.5234 41.7747C49.5234 39.9178 51.1482 38.293 53.2373 38.293C53.7015 38.293 54.1658 38.5251 54.1658 39.2214C54.1658 39.6857 53.7015 39.9178 53.2373 40.1499C52.0767 40.1499 51.3804 40.8462 51.3804 41.7747C51.3804 42.9353 52.0767 43.6316 53.2373 43.6316C53.7015 43.6316 54.1658 44.0959 54.1658 44.5601C54.1658 45.0243 53.7015 45.4886 53.2373 45.4886Z" fill="#1D3A70"/>
        <path d="M53.2253 40.1484C52.7611 40.1484 52.2969 39.6842 52.2969 39.2199C52.2969 38.7557 52.529 38.2915 53.2253 38.2915C54.1538 38.2915 55.0823 37.363 55.0823 36.4346C55.0823 35.5061 54.1538 34.5776 53.2253 34.5776C52.7611 34.5776 52.2969 34.1134 52.2969 33.6492C52.2969 33.1849 52.7611 32.7207 53.2253 32.7207C55.0823 32.7207 56.7071 34.3455 56.7071 36.4346C56.7071 38.5236 55.0823 40.1484 53.2253 40.1484Z" fill="#1D3A70"/>
        <path d="M53.2253 45.4886C52.7611 45.4886 52.2969 45.0243 52.2969 44.5601C52.2969 44.0959 52.7611 43.6316 53.2253 43.6316C54.1538 43.6316 55.0823 42.9353 55.0823 41.7747C55.0823 40.8462 54.1538 40.1499 53.2253 40.1499C52.7611 40.1499 52.2969 39.6857 52.2969 39.2214C52.2969 38.7572 52.529 38.293 53.2253 38.293C55.0823 38.293 56.7071 39.9178 56.7071 41.7747V42.0068C56.7071 43.8637 55.0823 45.4886 53.2253 45.4886Z" fill="#1D3A70"/>
        <path d="M53.2373 34.5784C51.1482 34.5784 49.5234 32.9536 49.5234 30.8646C49.5234 29.0076 51.1482 27.3828 53.2373 27.3828C53.7015 27.3828 54.1658 27.847 54.1658 28.3113C53.9336 28.7755 53.7015 29.2397 53.2373 29.2397C52.0767 29.2397 51.3804 29.9361 51.3804 30.8646C51.3804 32.0251 52.0767 32.7215 53.2373 32.7215C53.7015 32.7215 54.1658 33.1857 54.1658 33.6499C54.1658 34.1142 53.7015 34.5784 53.2373 34.5784Z" fill="#1D3A70"/>
        <path d="M53.2373 29.2392C51.1482 29.2392 49.5234 27.6144 49.5234 25.5254C49.5234 23.4363 51.1482 21.8115 53.2373 21.8115C53.7015 21.8115 54.1658 22.2758 54.1658 22.74C53.9336 23.2042 53.7015 23.6685 53.2373 23.6685C52.0767 23.6685 51.3804 24.5969 51.3804 25.5254C51.3804 26.4538 52.0767 27.3823 53.2373 27.3823C53.7015 27.3823 54.1658 27.6144 54.1658 28.3108C54.1658 28.775 53.7015 29.2392 53.2373 29.2392Z" fill="#1D3A70"/>
        <path d="M53.2253 34.5784C52.7611 34.5784 52.2969 34.1142 52.2969 33.6499C52.2969 33.1857 52.7611 32.7215 53.2253 32.7215C54.1538 32.7215 55.0823 32.0251 55.0823 30.8646C55.0823 29.9361 54.1538 29.2397 53.2253 29.2397C52.7611 29.2397 52.2969 28.7755 52.2969 28.3113C52.2969 27.847 52.529 27.3828 53.2253 27.3828C55.0823 27.3828 56.7071 29.0076 56.7071 30.8646V31.0967C56.7071 32.9536 55.0823 34.5784 53.2253 34.5784Z" fill="#1D3A70"/>
        <path d="M53.2253 29.2392C52.7611 29.2392 52.2969 28.775 52.2969 28.3108C52.2969 27.8465 52.529 27.3823 53.2253 27.3823C54.1538 27.3823 55.0823 26.4538 55.0823 25.5254C55.0823 24.5969 54.1538 23.6685 53.2253 23.6685C52.7611 23.6685 52.2969 23.4363 52.2969 22.74C52.2969 22.2758 52.529 21.8115 53.2253 21.8115C55.0823 21.8115 56.7071 23.4363 56.7071 25.5254C56.7071 27.6144 55.0823 29.2392 53.2253 29.2392Z" fill="#1D3A70"/>
        <path d="M41.3915 60.807H41.1593L20.501 53.6114C20.0368 53.3793 19.8047 52.915 19.8047 52.4508C20.0368 51.9866 20.501 51.7545 20.9653 51.9866L41.8557 59.1822C42.3199 59.4143 42.552 59.8785 42.3199 60.3427C42.0878 60.5749 41.8557 60.807 41.3915 60.807Z" fill="#1D3A70"/>
        <path d="M15.3972 64.5208C14.933 64.5208 14.4688 64.2887 14.4688 63.8245V63.5924C14.4688 63.3602 14.4688 63.3602 14.4688 63.1281L19.8074 52.4508C20.0395 51.9866 20.7359 51.7545 21.2001 51.9866C21.6643 52.2187 21.6643 52.6829 21.4322 53.1471L16.0936 64.0566C15.8614 64.2887 15.6293 64.5208 15.3972 64.5208Z" fill="#1D3A70"/>
        <path d="M39.5323 64.5215C39.0681 64.5215 38.8359 64.0573 38.8359 63.5931V63.3609L40.6929 59.6471C40.925 59.1829 41.3892 58.9507 41.8534 59.1829C42.3177 59.415 42.5498 59.8792 42.3177 60.3434L40.4607 64.0573C40.2286 64.2894 39.9965 64.5215 39.5323 64.5215Z" fill="#1D3A70"/>
        <path d="M22.5925 60.1099C22.1283 60.1099 21.6641 59.6456 21.6641 59.1814C21.6641 58.7172 22.1283 58.2529 22.5925 58.2529C23.0568 58.2529 23.521 58.485 23.521 59.1814C23.521 59.6456 23.0568 60.1099 22.5925 60.1099Z" fill="#FF681E"/>
        <path d="M40.4673 45.4881C39.0746 45.4881 37.9141 44.3275 37.9141 42.7027C37.9141 41.31 39.0746 40.1494 40.4673 40.1494C42.0921 40.1494 43.2527 41.31 43.2527 42.7027C43.2527 44.3275 42.0921 45.4881 40.4673 45.4881ZM40.4673 41.7742C40.0031 41.7742 39.5389 42.2385 39.5389 42.7027C39.5389 43.1669 40.0031 43.6312 40.4673 43.6312C41.1637 43.6312 41.3958 43.1669 41.3958 42.7027C41.3958 42.2385 41.1637 41.7742 40.4673 41.7742Z" fill="#FF681E"/>
        <path d="M37.9128 11.8306C37.4486 11.8306 36.9844 11.3663 36.9844 10.9021C36.9844 10.4379 37.4486 10.2057 37.9128 9.97363C38.3771 10.2057 38.8413 10.4379 38.8413 11.1342C38.8413 11.5984 38.3771 11.8306 37.9128 11.8306Z" fill="#FF681E"/>
        <path d="M43.2552 11.8306H40.4698C40.0056 11.8306 39.7734 11.3663 39.7734 10.9021C39.7734 10.4379 40.0056 10.2057 40.4698 9.97363H43.2552C43.7194 10.2057 44.1836 10.4379 44.1836 11.1342C44.1836 11.5984 43.7194 11.8306 43.2552 11.8306Z" fill="#FF681E"/>
        <path d="M44.8773 19.9551L45.8058 20.8835V28.5434L44.8773 29.7039H37.4496L36.2891 28.5434V20.8835L37.4496 19.9551H44.8773ZM37.9139 22.2762L38.6102 22.0441L38.3781 22.2762L38.6102 21.5799V28.0791L38.3781 27.1507L38.6102 27.6149L37.9139 27.1507H44.181L43.4847 27.6149L43.9489 27.1507L43.4847 28.0791V21.5799L43.9489 22.2762L43.4847 22.0441L44.181 22.2762H37.9139Z" fill="#FF681E"/>
    </g>
    <defs>
        <clipPath id="clip0_1999_9544">
            <rect width="69.6348" height="69.6348" fill="white" transform="translate(0.78125 0.6875)"/>
        </clipPath>
    </defs>
</svg>
