<svg version="1.2" xmlns="http://www.w3.org/2000/svg" viewBox="0 0 60 60" width="60" height="50"><style>.a{fill:#ddeafb}.b{fill:#a2c6f5}.c{fill:#3852ba}.d{fill:#5364a8}.e{fill:#6977a3}.f{fill:#01295c}.g{opacity:.3;fill:#ddeafb}</style><path class="a" d="m28.7 59.9c15.7 0 28.4-12.7 28.4-28.4 0-15.7-12.7-28.4-28.4-28.4-15.6 0-28.3 12.7-28.3 28.4 0 15.7 12.7 28.4 28.3 28.4z"/><path class="b" d="m28.7 44.5c7.2 0 13.1-5.8 13.1-13 0-7.2-5.9-13-13.1-13-7.2 0-13 5.8-13 13 0 7.2 5.8 13 13 13z"/><path class="c" d="m39.9 2v13.2q0 0.1 0 0.1 0 0 0 0.1v0.1c-0.1 0.8-0.8 1.4-1.7 1.4h-13.2c-0.9 0-1.6-0.7-1.6-1.6v-13.2c0-1 0.7-1.7 1.6-1.7h13.2c1 0 1.7 0.7 1.7 1.6z"/><path class="d" d="m58.5 2v13.3c0 0.9-0.7 1.6-1.6 1.6h-13.2c-0.9 0-1.7-0.7-1.7-1.6v-13.3c0-0.9 0.8-1.6 1.7-1.6h13.2c0.9 0 1.6 0.7 1.6 1.6z"/><path class="e" d="m39.9 20.5v13.2c0 1-0.7 1.7-1.7 1.7h-13.2c-0.9 0-1.6-0.7-1.6-1.7v-13.2c0-0.9 0.7-1.6 1.6-1.6h13.2c1 0 1.7 0.7 1.7 1.6z"/><path class="f" d="m59.2 38h-15.1c-1.2 0-2.1-0.9-2.1-2v-15.1c0-1.1 0.9-2 2.1-2h15.1c1.1 0 2 0.9 2 2v15.1c0 1.1-0.9 2-2 2z"/><path class="g" d="m25 18.9h9.8l-11.4 7.9v-6.3c0-0.9 0.7-1.6 1.6-1.6z"/><path class="g" d="m39.9 2v13.2q0 0.1 0 0.1 0 0 0 0.1v0.1c-0.1 0.8-0.8 1.4-1.7 1.4h-13.2c-0.9 0-1.6-0.7-1.6-1.6v-13.2c0-1 0.7-1.7 1.6-1.7h13.2c1 0 1.7 0.7 1.7 1.6z"/><path class="g" d="m58.5 2v0.3l-16.5 11.5v-11.8c0-0.9 0.7-1.6 1.7-1.6h13.2c0.9 0 1.6 0.7 1.6 1.6z"/></svg>