<svg width="40" height="40" viewBox="0 0 55 55" fill="none" xmlns="http://www.w3.org/2000/svg">
<circle cx="27.5" cy="27.5" r="27.5" fill="#01295C"/>
<path d="M31.82 27.5C31.82 28.3544 31.5666 29.1896 31.0919 29.9001C30.6173 30.6105 29.9426 31.1642 29.1532 31.4912C28.3638 31.8181 27.4952 31.9037 26.6572 31.737C25.8192 31.5703 25.0495 31.1589 24.4453 30.5547C23.8411 29.9505 23.4297 29.1808 23.263 28.3428C23.0963 27.5048 23.1819 26.6362 23.5088 25.8468C23.8358 25.0574 24.3895 24.3827 25.0999 23.9081C25.8104 23.4334 26.6456 23.18 27.5 23.18C28.6453 23.1813 29.7434 23.6369 30.5533 24.4467C31.3631 25.2566 31.8187 26.3547 31.82 27.5ZM41 21.56V33.44C40.9977 35.4443 40.2005 37.3659 38.7832 38.7832C37.3659 40.2005 35.4443 40.9977 33.44 41H21.56C19.5557 40.9977 17.6341 40.2005 16.2168 38.7832C14.7995 37.3659 14.0023 35.4443 14 33.44V21.56C14.0023 19.5557 14.7995 17.6341 16.2168 16.2168C17.6341 14.7995 19.5557 14.0023 21.56 14H33.44C35.4443 14.0023 37.3659 14.7995 38.7832 16.2168C40.2005 17.6341 40.9977 19.5557 41 21.56ZM33.98 27.5C33.98 26.2184 33.6 24.9655 32.8879 23.8999C32.1759 22.8343 31.1639 22.0037 29.9798 21.5133C28.7957 21.0228 27.4928 20.8945 26.2358 21.1445C24.9788 21.3945 23.8242 22.0117 22.9179 22.9179C22.0117 23.8242 21.3945 24.9788 21.1445 26.2358C20.8945 27.4928 21.0228 28.7957 21.5133 29.9798C22.0037 31.1639 22.8343 32.1759 23.8999 32.8879C24.9655 33.6 26.2184 33.98 27.5 33.98C29.218 33.9781 30.8651 33.2947 32.0799 32.0799C33.2947 30.8651 33.9781 29.218 33.98 27.5ZM36.14 20.48C36.14 20.1596 36.045 19.8464 35.867 19.58C35.689 19.3136 35.436 19.1059 35.1399 18.9833C34.8439 18.8607 34.5182 18.8286 34.204 18.8911C33.8897 18.9536 33.601 19.1079 33.3745 19.3345C33.1479 19.561 32.9936 19.8497 32.9311 20.164C32.8686 20.4782 32.9007 20.8039 33.0233 21.0999C33.1459 21.396 33.3536 21.649 33.62 21.827C33.8864 22.005 34.1996 22.1 34.52 22.1C34.9497 22.1 35.3617 21.9293 35.6655 21.6255C35.9693 21.3217 36.14 20.9097 36.14 20.48Z" fill="white"/>
</svg>
