<svg width="40" height="40" viewBox="0 0 55 55" fill="none" xmlns="http://www.w3.org/2000/svg">
<circle cx="27.5" cy="27.5" r="27.5" fill="#01295C"/>
<path fill-rule="evenodd" clip-rule="evenodd" d="M17.9346 18.3501C15.8442 18.5143 14.2643 20.214 14.1626 22.3084C14.0787 24.034 14 26.0195 14 27.3902C14 28.7766 14.0806 30.7922 14.1655 32.5312C14.2664 34.5988 15.8101 36.2871 17.8714 36.4775C20.1531 36.6881 23.4542 36.9003 27.5 36.9003C31.5352 36.9003 34.8297 36.6893 37.1108 36.4792C39.18 36.2886 40.7269 34.5891 40.8263 32.5136C40.9142 30.6826 41 28.5874 41 27.3902C41 26.206 40.9161 24.1428 40.8292 22.3259C40.7288 20.2234 39.1463 18.5133 37.048 18.3488C34.8022 18.1729 31.5628 18 27.4998 18C23.4265 18 20.1808 18.1737 17.9345 18.3501L17.9346 18.3501ZM24.8004 23.3829L31.7605 27.3902L24.8004 31.3976V23.3829Z" fill="white"/>
</svg>
