<svg width="40" height="40" viewBox="0 0 55 55" fill="#01295C"
    xmlns="http://www.w3.org/2000/svg">
    <path d="M27.5 0C12.3131 0 0 12.3131 0 27.5C0 42.6869 12.3131 55 27.5 55C42.6869 55 55 42.6869 55 27.5C55 12.3131 42.6869 0 27.5 0ZM37.0815 18.3333H33.1192C30.6533 18.3333 29.7917 19.635 29.7917 22.2704V25.2083H37.0196L36.0387 32.0833H29.7917V50.3021C29.0377 50.3754 28.2746 50.4167 27.5 50.4167C25.9302 50.4167 24.3971 50.2563 22.9167 49.956V32.0833H16.0417V25.2083H22.9167V21.5165C22.9167 14.5269 26.3221 11.4583 32.1315 11.4583C34.9135 11.4583 36.3848 11.6646 37.0815 11.7585V18.3333Z" fill="#01295C"/>
</svg>
