<svg width="40" height="40" viewBox="0 0 55 55" fill="none" xmlns="http://www.w3.org/2000/svg">
<circle cx="27.5" cy="27.5" r="27.5" fill="#01295C"/>
<path d="M16.2348 19.0211L26.0294 26.7286C26.4726 27.0764 27.0876 27.2078 27.6792 27.1798C28.2746 27.2078 28.8847 27.0422 29.3328 26.6896L39.1274 19.0277C39.9089 18.4075 39.7332 18 38.7365 18H16.6247C15.6293 18 15.4523 18.401 16.2345 19.0212L16.2348 19.0211Z" fill="white"/>
<path d="M15.4873 20.9627C14.6905 20.3609 14 20.6856 14 21.6814V35.0137C14 35.27 14.0973 35.5143 14.1942 35.7364L23.1503 26.7803L15.4873 20.9627Z" fill="white"/>
<path d="M39.8193 20.9623L32.3438 26.6418L41.1914 35.4993C41.2349 35.344 41.2495 35.1812 41.2495 35.0131V21.6814C41.2495 20.6856 40.6151 20.3609 39.8194 20.9627L39.8193 20.9623Z" fill="white"/>
<path d="M29.1277 29.0894C28.7274 29.3895 28.2029 29.5373 27.6841 29.5325C27.1592 29.5373 26.6347 29.3899 26.2343 29.0894L24.4142 27.7077L15.3711 36.7566C15.5374 36.8078 15.7135 36.8407 15.8956 36.8407H39.4666C39.736 36.8407 39.991 36.774 40.2215 36.6667L31.1299 27.5723L29.1277 29.0894Z" fill="white"/>
</svg>
