<svg width="35" height="35" viewBox="0 0 35 35" fill="none" xmlns="http://www.w3.org/2000/svg">
<path d="M17.5 35C27.165 35 35 27.165 35 17.5C35 7.83502 27.165 0 17.5 0C7.83502 0 0 7.83502 0 17.5C0 27.165 7.83502 35 17.5 35Z" fill="#F6DCFB"/>
<path d="M18.834 14.6109V15.4998H19.8895V16.3331H18.8062C18.7229 16.972 18.4729 17.4442 18.0284 17.7498C17.584 18.0831 16.9173 18.222 16.0007 18.222V18.8887C16.0007 19.6109 16.3062 19.972 16.8895 19.972C17.1951 19.972 17.3895 19.8887 17.5284 19.6942C17.6673 19.4998 17.7507 19.2498 17.7507 18.8887H19.1118C19.084 19.5831 18.8895 20.1109 18.5284 20.4998C18.1673 20.9165 17.6395 21.1109 16.9451 21.1109C16.1951 21.1109 15.6118 20.9165 15.1951 20.4998C14.8062 20.1109 14.584 19.4998 14.584 18.6942V17.2776C15.334 17.2776 15.9173 17.2498 16.2784 17.222C16.6673 17.1664 16.9173 17.0831 17.084 16.9442C17.2507 16.8053 17.3618 16.6109 17.3895 16.3331H14.334V15.4998H17.3895V14.6109H14.334V13.6387H19.834V14.6109H18.834Z" fill="#9E43B6"/>
<path d="M17.1402 26.8334C11.918 26.8334 7.66797 22.5834 7.66797 17.3611C7.66797 12.1389 11.918 7.88892 17.1402 7.88892C22.3624 7.88892 26.6124 12.1389 26.6124 17.3611C26.6124 22.5834 22.3624 26.8334 17.1402 26.8334ZM17.1402 9.30558C12.6957 9.30558 9.05686 12.9167 9.05686 17.3889C9.05686 21.8611 12.668 25.4722 17.1402 25.4722C21.5846 25.4722 25.2235 21.8611 25.2235 17.3889C25.2235 12.9167 21.5846 9.30558 17.1402 9.30558Z" fill="#9E43B6"/>
<path d="M25.8885 14.9443L21.5273 17.4721V22.5277L25.8885 25.0555L30.2773 22.5277V17.4721L25.8885 14.9443Z" fill="#F6DCFB"/>
<path d="M25.8895 25.8612L20.834 22.9167V17.0834L25.8895 14.1667L30.9451 17.0834V22.9445L25.8895 25.8612ZM22.2229 22.139L25.8895 24.2501L29.5562 22.139V17.8612L25.8895 15.7501L22.2229 17.8612V22.139Z" fill="#9E43B6"/>
<path d="M25.8896 21.5C26.7181 21.5 27.3896 20.8284 27.3896 20C27.3896 19.1716 26.7181 18.5 25.8896 18.5C25.0612 18.5 24.3896 19.1716 24.3896 20C24.3896 20.8284 25.0612 21.5 25.8896 21.5Z" fill="#9E43B6"/>
</svg>
