<svg width="35" height="35" viewBox="0 0 35 35" fill="none" xmlns="http://www.w3.org/2000/svg">
<path d="M17.5 35C27.165 35 35 27.165 35 17.5C35 7.83502 27.165 0 17.5 0C7.83502 0 0 7.83502 0 17.5C0 27.165 7.83502 35 17.5 35Z" fill="#FCF1E4"/>
<path d="M30.4722 18.8056L29.1944 10.2222C29.0555 9.33332 28.5833 8.52777 27.8611 7.99999C27.1389 7.47221 26.25 7.22221 25.3333 7.3611L11.2778 9.44444C10.3889 9.58333 9.58333 10.0555 9.05555 10.7778C8.75 11.1944 8.52778 11.6944 8.44444 12.1944H7.88889C6.02778 12.1944 4.5 13.7222 4.5 15.5833V24.2778C4.5 26.1389 6.02778 27.6667 7.88889 27.6667H22.1389C24 27.6667 25.5278 26.1389 25.5278 24.2778V22.9722L27.6389 22.6667C28.5278 22.5278 29.3333 22.0556 29.8611 21.3333C30.3889 20.6111 30.6111 19.6944 30.4722 18.8056ZM24.3333 23.1389V24.2778C24.3333 25.5 23.3333 26.5 22.1111 26.5H7.88889C6.66667 26.5 5.66667 25.5 5.66667 24.2778V15.5833C5.66667 14.3611 6.66667 13.3611 7.88889 13.3611H8.41667H9.61111H22.1389C23.3611 13.3611 24.3611 14.3611 24.3611 15.5833V21.9444V23.1389H24.3333ZM27.4444 21.5L25.5 21.7778V15.5833C25.5 13.7222 23.9722 12.1944 22.1111 12.1944H9.61111C9.83333 11.3611 10.5278 10.7222 11.4167 10.5833L25.5 8.49999C25.6111 8.47221 25.7222 8.47221 25.8333 8.47221C26.3055 8.47221 26.7778 8.63887 27.1667 8.91665C27.6389 9.27776 27.9444 9.77777 28.0555 10.3611L29.3333 18.9444C29.5 20.1944 28.6667 21.3333 27.4444 21.5Z" fill="#C07211"/>
<path d="M22.2779 21.5833H19.139C18.8057 21.5833 18.5557 21.8332 18.5557 22.1666C18.5557 22.4721 18.7779 22.7221 19.0557 22.7499C19.0834 22.7499 19.1112 22.7499 19.139 22.7499H22.2779C22.5834 22.7499 22.8612 22.4999 22.8612 22.1944V22.1666C22.889 21.8332 22.6112 21.5833 22.2779 21.5833Z" fill="#C07211"/>
<path d="M16.582 21.5833H13.4154C13.082 21.5833 12.832 21.8332 12.832 22.1666C12.832 22.4999 13.1098 22.7499 13.4154 22.7499H16.5542C16.8876 22.7499 17.1376 22.4721 17.1376 22.1666C17.1654 21.8332 16.8876 21.5833 16.582 21.5833Z" fill="#C07211"/>
<path d="M10.8609 21.5833H10.8331H9.63867H7.722C7.38867 21.5833 7.13867 21.8332 7.13867 22.1666C7.13867 22.4999 7.41645 22.7499 7.722 22.7499H9.94423H10.8609C10.9998 22.7499 11.1109 22.6944 11.1942 22.6388C11.3331 22.5277 11.4442 22.361 11.4442 22.1666C11.4442 21.8332 11.1664 21.5833 10.8609 21.5833Z" fill="#C07211"/>
<path d="M11.0273 15.3889H9.88845H9.36068C9.13846 15.3889 8.91623 15.4445 8.72179 15.5C8.02734 15.75 7.52734 16.4445 7.52734 17.2222C7.52734 18.1945 8.27734 19 9.24957 19.0556C9.27734 19.0556 9.3329 19.0556 9.36068 19.0556H10.4162H11.0273C12.0273 19.0556 12.8607 18.2222 12.8607 17.2222C12.8607 16.2222 12.0551 15.3889 11.0273 15.3889ZM11.0273 17.8889H10.2773H9.38845C9.27734 17.8889 9.16623 17.8611 9.0829 17.8056C8.86068 17.6945 8.72179 17.4722 8.72179 17.2222C8.72179 17.0278 8.80512 16.8611 8.91623 16.75C9.02734 16.6389 9.19401 16.5556 9.38845 16.5556H10.0829H11.0551C11.4162 16.5556 11.7218 16.8611 11.7218 17.2222C11.7218 17.5834 11.4162 17.8889 11.0273 17.8889Z" fill="#C07211"/>
</svg>
