<svg width="36" height="35" viewBox="0 0 36 35" fill="none" xmlns="http://www.w3.org/2000/svg">
<path d="M18.4512 35C28.1162 35 35.9512 27.165 35.9512 17.5C35.9512 7.83502 28.1162 0 18.4512 0C8.78619 0 0.951172 7.83502 0.951172 17.5C0.951172 27.165 8.78619 35 18.4512 35Z" fill="#E1F8E2"/>
<path d="M25.5062 16.8887C25.1173 16.8887 24.8117 17.1942 24.8117 17.5831V25.4164H12.0617V17.5831C12.0617 17.1942 11.7562 16.8887 11.3673 16.8887C10.9784 16.8887 10.6729 17.1942 10.6729 17.5831V26.8053H26.2006V17.5831C26.2006 17.1942 25.8951 16.8887 25.5062 16.8887Z" fill="#1F8B24"/>
<path d="M28.3944 15.4443L18.5611 8.19434L8.5055 15.611C8.19995 15.8332 8.14439 16.2777 8.36661 16.5832C8.5055 16.7777 8.69995 16.861 8.92217 16.861C9.06106 16.861 9.19995 16.8054 9.33883 16.7221L18.5611 9.91656L27.5611 16.5832C27.8666 16.8054 28.3111 16.7499 28.5333 16.4443C28.7555 16.111 28.6999 15.6666 28.3944 15.4443Z" fill="#1F8B24"/>
<path d="M16.0615 17.0834V17.8889H19.006C18.9782 18.1389 18.8671 18.3334 18.7004 18.4723C18.5338 18.6112 18.2838 18.6945 17.9226 18.7223C17.5615 18.7501 17.006 18.7778 16.2837 18.7778V20.1389C16.2837 20.9167 16.4782 21.5001 16.8671 21.8889C17.256 22.2778 17.8115 22.4723 18.5338 22.4723C19.2004 22.4723 19.7004 22.2778 20.0615 21.9167C20.4226 21.5556 20.6171 21.0278 20.6449 20.3612H19.3393C19.3393 20.7223 19.2838 20.9723 19.1449 21.1389C19.006 21.3056 18.7838 21.3889 18.506 21.3889C17.9226 21.3889 17.6449 21.0278 17.6449 20.3334V19.7223C18.506 19.7223 19.1726 19.5556 19.5893 19.2501C20.006 18.9445 20.256 18.4723 20.3393 17.8889H21.3949V17.0834H20.3671V16.2223H21.3949V15.2778H16.0893V16.2223H19.006V17.0834H16.0615Z" fill="#1F8B24"/>
</svg>
