<svg width="36" height="36" viewBox="0 0 36 36" fill="none" xmlns="http://www.w3.org/2000/svg">
<path d="M17.5076 35.216C27.1768 35.216 35.0153 27.3775 35.0153 17.7083C35.0153 8.03912 27.1768 0.200684 17.5076 0.200684C7.83844 0.200684 0 8.03912 0 17.7083C0 27.3775 7.83844 35.216 17.5076 35.216Z" fill="#E2EEFD"/>
<path d="M19.8724 9.29541C19.6451 10.0685 19.3722 10.8415 19.0994 11.6146C18.8265 12.3877 18.5082 13.1153 18.1899 13.8428C17.8716 14.5704 17.5532 15.298 17.2349 16.0711C16.9166 16.7987 16.5528 17.5263 16.189 18.2539L15.2341 16.9806C16.5073 16.6623 17.8261 16.4349 19.1448 16.162L20.7365 15.8892L20.1453 17.3444C19.5541 18.845 18.9175 20.3457 18.1899 21.8009C17.8261 22.5285 17.4623 23.256 17.0985 23.9836C16.7347 24.7112 16.3254 25.4388 15.8707 26.1209C16.0071 25.3024 16.189 24.4839 16.3709 23.7108C16.5528 22.8922 16.7802 22.1192 17.0076 21.3461C17.4623 19.8 17.9625 18.2084 18.5082 16.7077L19.5086 17.8901C18.2354 18.1629 16.9166 18.4358 15.5978 18.6631L13.7334 18.9815L14.5974 17.3899C15.0067 16.7077 15.3705 15.9801 15.7797 15.298C16.189 14.6159 16.5983 13.9338 17.053 13.2517C17.5078 12.5696 17.917 11.8875 18.4173 11.2508C18.872 10.5687 19.3722 9.93205 19.8724 9.29541Z" fill="#1057B4"/>
<path d="M9.77648 17.5263H7.95751C7.59371 17.5263 7.27539 17.208 7.27539 16.8442C7.27539 16.4804 7.59371 16.1621 7.95751 16.1621H9.77648C10.1403 16.1621 10.4586 16.4804 10.4586 16.8442C10.4586 17.208 10.1403 17.5263 9.77648 17.5263Z" fill="#1057B4"/>
<path d="M11.5502 14.2066C11.4138 14.2066 11.2774 14.1611 11.1409 14.0702L9.68576 13.0243C9.36744 12.7969 9.32196 12.3876 9.54933 12.0693C9.77671 11.751 10.186 11.7055 10.5043 11.9329L11.9595 12.9788C12.2778 13.2062 12.3233 13.6154 12.0959 13.9337C11.9595 14.1156 11.7321 14.2066 11.5502 14.2066Z" fill="#1057B4"/>
<path d="M10.0495 22.3009C9.82213 22.3009 9.59476 22.2099 9.45833 21.9826C9.23096 21.6643 9.32191 21.255 9.64023 21.0276L11.1409 20.0272C11.4592 19.7998 11.8685 19.8908 12.0958 20.2091C12.3232 20.5274 12.2323 20.9367 11.914 21.164L10.4133 22.1645C10.2769 22.2554 10.1859 22.3009 10.0495 22.3009Z" fill="#1057B4"/>
<path d="M27.0577 17.5261H25.2388C24.875 17.5261 24.5566 17.2078 24.5566 16.844C24.5566 16.4802 24.875 16.1619 25.2388 16.1619H27.0577C27.4215 16.1619 27.7398 16.4802 27.7398 16.844C27.7398 17.2078 27.4215 17.5261 27.0577 17.5261Z" fill="#1057B4"/>
<path d="M23.4646 14.2065C23.2372 14.2065 23.0553 14.1156 22.9189 13.9337C22.6915 13.6154 22.7825 13.2061 23.0553 12.9787L24.5105 11.9328C24.8288 11.7055 25.2381 11.7964 25.4655 12.0692C25.6928 12.3876 25.6019 12.7968 25.329 13.0242L23.8739 14.0701C23.7829 14.1611 23.6465 14.2065 23.4646 14.2065Z" fill="#1057B4"/>
<path d="M24.9656 22.3011C24.8292 22.3011 24.6928 22.2556 24.6018 22.2101L23.1012 21.2097C22.7828 20.9823 22.6919 20.5731 22.9193 20.2547C23.1466 19.9364 23.5559 19.8455 23.8742 20.0728L25.3749 21.0733C25.6932 21.3006 25.7842 21.7099 25.5568 22.0282C25.4204 22.2101 25.193 22.3011 24.9656 22.3011Z" fill="#1057B4"/>
</svg>
