<svg width="35" height="35" viewBox="0 0 35 35" fill="none" xmlns="http://www.w3.org/2000/svg">
<path d="M17.5 35C27.165 35 35 27.165 35 17.5C35 7.83502 27.165 0 17.5 0C7.83502 0 0 7.83502 0 17.5C0 27.165 7.83502 35 17.5 35Z" fill="#FCF1E4"/>
<path d="M25.4722 8.30566C24.0278 8.30566 22.8333 9.50011 22.8333 10.9446C22.8333 11.3334 22.9167 11.7223 23.0833 12.0557L20.5 14.639V18.4723C20.5 18.8612 20.8056 19.1668 21.1944 19.1668C21.5833 19.1668 21.8889 18.8612 21.8889 18.4723V15.1946L23.9722 13.1112C24.3889 13.4168 24.9167 13.5834 25.4722 13.5834C26.9167 13.5834 28.1111 12.389 28.1111 10.9446C28.1111 9.50011 26.9167 8.30566 25.4722 8.30566ZM25.4722 12.1946C24.7778 12.1946 24.2222 11.639 24.2222 10.9446C24.2222 10.2501 24.7778 9.69455 25.4722 9.69455C26.1667 9.69455 26.7222 10.2501 26.7222 10.9446C26.7222 11.639 26.1667 12.1946 25.4722 12.1946Z" fill="#C07211"/>
<path d="M14.6664 10.9446C14.6664 9.50011 13.472 8.30566 12.0276 8.30566C10.5831 8.30566 9.38867 9.50011 9.38867 10.9446C9.38867 12.389 10.5831 13.5834 12.0276 13.5834C12.5831 13.5834 13.0831 13.4168 13.5276 13.1112L15.6109 15.1946V18.4723C15.6109 18.8612 15.9164 19.1668 16.3053 19.1668C16.6942 19.1668 16.9998 18.8612 16.9998 18.4723V14.639L14.4164 12.0557C14.5831 11.7223 14.6664 11.3612 14.6664 10.9446ZM12.0276 12.1946C11.3331 12.1946 10.7776 11.639 10.7776 10.9446C10.7776 10.2501 11.3331 9.69455 12.0276 9.69455C12.722 9.69455 13.2776 10.2501 13.2776 10.9446C13.2776 11.639 12.722 12.1946 12.0276 12.1946Z" fill="#C07211"/>
<path d="M13.8053 15.8057C13.4164 15.8057 13.1109 16.1112 13.1109 16.5001V19.7779L11.0276 21.8612C10.6109 21.5557 10.0831 21.389 9.52756 21.389C8.08312 21.389 6.88867 22.5835 6.88867 24.0279C6.88867 25.4723 8.08312 26.6668 9.52756 26.6668C10.972 26.6668 12.1664 25.4723 12.1664 24.0279C12.1664 23.639 12.0831 23.2501 11.9165 22.9168L14.4998 20.3334V16.5001C14.4998 16.139 14.1942 15.8057 13.8053 15.8057ZM9.52756 25.3057C8.83312 25.3057 8.27756 24.7501 8.27756 24.0557C8.27756 23.3612 8.83312 22.8057 9.52756 22.8057C10.222 22.8057 10.7776 23.3612 10.7776 24.0557C10.7776 24.7501 10.222 25.3057 9.52756 25.3057Z" fill="#C07211"/>
<path d="M22.9722 21.4168C22.4167 21.4168 21.9167 21.5835 21.4722 21.8891L19.3889 19.8057V16.5279C19.3889 16.1391 19.0833 15.8335 18.6944 15.8335C18.3056 15.8335 18 16.1391 18 16.5279V20.3613L20.5833 22.9446C20.4167 23.278 20.3333 23.6668 20.3333 24.0557C20.3333 25.5002 21.5278 26.6946 22.9722 26.6946C24.4167 26.6946 25.6111 25.5002 25.6111 24.0557C25.6111 22.6113 24.4167 21.4168 22.9722 21.4168ZM22.9722 25.3057C22.2778 25.3057 21.7222 24.7502 21.7222 24.0557C21.7222 23.3613 22.2778 22.8057 22.9722 22.8057C23.6667 22.8057 24.2222 23.3613 24.2222 24.0557C24.2222 24.7502 23.6667 25.3057 22.9722 25.3057Z" fill="#C07211"/>
</svg>
