<svg width="36" height="36" viewBox="0 0 36 36" fill="none" xmlns="http://www.w3.org/2000/svg">
<path d="M18.492 35.0153C28.1612 35.0153 35.9996 27.1768 35.9996 17.5076C35.9996 7.83844 28.1612 0 18.492 0C8.82281 0 0.984375 7.83844 0.984375 17.5076C0.984375 27.1768 8.82281 35.0153 18.492 35.0153Z" fill="#F6DCFB"/>
<path d="M23.8578 22.9646H13.1259C10.1246 22.9646 7.66895 20.509 7.66895 17.5077C7.66895 14.5064 10.1246 12.0508 13.1259 12.0508H23.8578C26.8591 12.0508 29.3148 14.5064 29.3148 17.5077C29.3148 20.509 26.8591 22.9646 23.8578 22.9646ZM13.1713 13.415C10.9431 13.415 9.07865 15.234 9.07865 17.5077C9.07865 19.7814 10.8976 21.6004 13.1713 21.6004H23.9033C26.1315 21.6004 27.996 19.7814 27.996 17.5077C27.996 15.234 26.177 13.415 23.9033 13.415H13.1713Z" fill="#9E43B6"/>
<path d="M22.9939 20.5545C21.3568 20.5545 20.0381 19.2357 20.0381 17.5987C20.0381 15.9616 21.3568 14.6428 22.9939 14.6428C24.631 14.6428 25.9498 15.9616 25.9498 17.5987C25.9498 19.2357 24.631 20.5545 22.9939 20.5545Z" fill="#9E43B6"/>
</svg>
