<svg width="36" height="36" viewBox="0 0 36 36" fill="none" xmlns="http://www.w3.org/2000/svg">
<path d="M17.5076 35.0153C27.1768 35.0153 35.0153 27.1768 35.0153 17.5076C35.0153 7.83844 27.1768 0 17.5076 0C7.83844 0 0 7.83844 0 17.5076C0 27.1768 7.83844 35.0153 17.5076 35.0153Z" fill="#E2EEFD"/>
<path d="M24.2836 24.1015H10.7323C8.68591 24.1015 7.04883 22.4645 7.04883 20.4181V14.1427C7.04883 12.0963 8.68591 10.4592 10.7323 10.4592H24.2381C26.2845 10.4592 27.9216 12.0963 27.9216 14.1427V20.3726C27.967 22.4645 26.33 24.1015 24.2836 24.1015ZM10.7323 11.8235C9.45897 11.8235 8.41306 12.8694 8.41306 14.1427V20.3726C8.41306 21.6459 9.45897 22.6918 10.7323 22.6918H24.2381C25.5114 22.6918 26.5573 21.6459 26.5573 20.3726V14.1427C26.5573 12.8694 25.5114 11.8235 24.2381 11.8235H10.7323Z" fill="#1057B4"/>
<path d="M17.0074 15.4614H11.7778C11.414 15.4614 11.0957 15.1431 11.0957 14.7793C11.0957 14.4155 11.414 14.0972 11.7778 14.0972H17.0528C17.4166 14.0972 17.735 14.4155 17.735 14.7793C17.735 15.1431 17.4166 15.4614 17.0074 15.4614Z" fill="#1057B4"/>
<path d="M23.3282 15.4612H21.1909C20.8271 15.4612 20.5088 15.1428 20.5088 14.779C20.5088 14.4152 20.8271 14.0969 21.1909 14.0969H23.3282C23.692 14.0969 24.0103 14.4152 24.0103 14.779C24.0103 15.1428 23.7375 15.4612 23.3282 15.4612Z" fill="#1057B4"/>
<path d="M23.3284 20.0085H11.687C11.3232 20.0085 11.0049 19.6902 11.0049 19.3264C11.0049 18.9626 11.3232 18.6443 11.687 18.6443H23.3739C23.7377 18.6443 24.056 18.9626 24.056 19.3264C24.056 19.6902 23.7377 20.0085 23.3284 20.0085Z" fill="#1057B4"/>
</svg>
