<svg width="36" height="36" viewBox="0 0 36 36" fill="none" xmlns="http://www.w3.org/2000/svg">
<path d="M17.7401 35.0153C27.4093 35.0153 35.2477 27.1768 35.2477 17.5076C35.2477 7.83844 27.4093 0 17.7401 0C8.07086 0 0.232422 7.83844 0.232422 17.5076C0.232422 27.1768 8.07086 35.0153 17.7401 35.0153Z" fill="#FCF1E4"/>
<path d="M12.9195 24.2833C12.4193 24.2833 11.9191 24.1924 11.4189 23.965C10.4639 23.5558 9.69087 22.7372 9.19065 21.7368C8.69043 20.7363 8.55401 19.645 8.78139 18.5991C9.00876 17.5531 9.6454 16.6891 10.5549 16.2799L15.3752 13.9152C17.1941 13.0057 19.5133 14.0061 20.5592 16.1434C20.7411 16.4618 20.6047 16.871 20.2409 17.0529C19.9226 17.2348 19.5133 17.0984 19.3314 16.7346C18.6493 15.3249 17.1032 14.5973 16.0118 15.143L11.1915 17.5077C10.6913 17.7805 10.282 18.2807 10.1456 18.9174C9.96372 19.645 10.1001 20.418 10.4185 21.1001C10.7822 21.8277 11.3279 22.3734 12.0101 22.6463C12.6467 22.9191 13.2379 22.9191 13.7836 22.6917L16.1937 21.5094C16.512 21.3275 16.9213 21.4639 17.1032 21.8277C17.2851 22.1461 17.1487 22.5553 16.7849 22.7372L14.3747 23.9196C13.8745 24.1924 13.4198 24.2833 12.9195 24.2833Z" fill="#C07211"/>
<path d="M18.7398 21.4184C17.2846 21.4184 15.7839 20.4634 15.0109 18.8718C14.829 18.5535 14.9654 18.1442 15.3292 17.9623C15.6475 17.7804 16.0568 17.9169 16.2387 18.2806C16.9208 19.6904 18.4669 20.4179 19.5583 19.8723L24.3786 17.5076C24.8788 17.2347 25.2881 16.7345 25.4245 16.0979C25.6064 15.3703 25.47 14.5972 25.1517 13.9151C24.7879 13.1875 24.2422 12.6418 23.5601 12.369C22.9234 12.0961 22.3323 12.0961 21.7866 12.3235L19.3764 13.5058C19.0581 13.6877 18.6488 13.5513 18.4669 13.1875C18.285 12.8692 18.4215 12.4599 18.7853 12.278L21.1954 11.0957C22.1049 10.641 23.1053 10.641 24.1058 11.0957C25.0607 11.505 25.8338 12.3235 26.334 13.3239C26.8342 14.3244 26.9707 15.4158 26.7433 16.4617C26.5159 17.5076 25.8793 18.3716 24.9698 18.7809L20.1495 21.1455C19.6948 21.3274 19.24 21.4184 18.7398 21.4184Z" fill="#C07211"/>
</svg>
