<svg width="36" height="36" viewBox="0 0 36 36" fill="none" xmlns="http://www.w3.org/2000/svg">
<path d="M18.492 35.216C28.1612 35.216 35.9996 27.3775 35.9996 17.7083C35.9996 8.03912 28.1612 0.200684 18.492 0.200684C8.82281 0.200684 0.984375 8.03912 0.984375 17.7083C0.984375 27.3775 8.82281 35.216 18.492 35.216Z" fill="#F6DCFB"/>
<path d="M18.1738 26.9397C13.0352 26.9397 8.85156 22.756 8.85156 17.6174C8.85156 12.4788 13.0352 8.29517 18.1738 8.29517C23.3124 8.29517 27.4961 12.4788 27.4961 17.6174C27.4961 17.9812 27.1777 18.2995 26.8139 18.2995C26.4501 18.2995 26.1318 17.9812 26.1318 17.6174C26.1318 13.2064 22.5394 9.6594 18.1738 9.6594C13.8083 9.6594 10.2158 13.2519 10.2158 17.6174C10.2158 21.983 13.8083 25.5754 18.1738 25.5754C19.5835 25.5754 20.9932 25.2116 22.221 24.484C22.5393 24.3021 22.9486 24.3931 23.176 24.7114C23.3579 25.0297 23.2669 25.439 22.9486 25.6664C21.4934 26.4849 19.8564 26.9397 18.1738 26.9397Z" fill="#9E43B6"/>
<path d="M19.7205 15.0253V15.8894H20.7664V16.7079H19.7205C19.6295 17.2991 19.4021 17.7538 18.9474 18.0721C18.5381 18.3904 17.856 18.5269 16.992 18.5269V19.1635C16.992 19.8456 17.2648 20.2094 17.856 20.2094C18.1289 20.2094 18.3562 20.1185 18.4926 19.9366C18.6291 19.7547 18.72 19.4818 18.72 19.1635H20.0388C19.9933 19.8456 19.8114 20.3458 19.4476 20.7096C19.0838 21.0734 18.5836 21.2553 17.9015 21.2553C17.1739 21.2553 16.5827 21.0734 16.2189 20.6642C15.8097 20.2549 15.6278 19.7092 15.6278 18.9361V17.5719C16.3554 17.5719 16.901 17.5719 17.2648 17.5264C17.6286 17.481 17.9015 17.39 18.0379 17.2536C18.1743 17.1172 18.3108 16.9353 18.3562 16.6624H15.4004V15.8439H18.4017V14.9799H15.4004V14.0249H20.7664V14.9799H19.7205V15.0253Z" fill="#9E43B6"/>
<path d="M30.5423 22.9834H24.4487C24.0849 22.9834 23.7666 22.6651 23.7666 22.3013C23.7666 21.9375 24.0849 21.6191 24.4487 21.6191H30.5423C30.9061 21.6191 31.2244 21.9375 31.2244 22.3013C31.2244 22.6651 30.9516 22.9834 30.5423 22.9834Z" fill="#9E43B6"/>
<path d="M28.6775 24.8478C28.4956 24.8478 28.3137 24.8023 28.1773 24.6659C27.9044 24.3931 27.9044 23.9838 28.1773 23.7109L29.587 22.3012L28.1773 20.8915C27.9044 20.6187 27.9044 20.2094 28.1773 19.9366C28.4501 19.6637 28.8594 19.6637 29.1322 19.9366L31.4969 22.3012L29.1322 24.6659C28.9958 24.8023 28.8139 24.8478 28.6775 24.8478Z" fill="#9E43B6"/>
</svg>
