<svg width="36" height="35" viewBox="0 0 36 35" fill="none" xmlns="http://www.w3.org/2000/svg">
<path d="M18.1617 34.6711C27.7359 34.6711 35.4973 26.9097 35.4973 17.3356C35.4973 7.76139 27.7359 0 18.1617 0C8.58756 0 0.826172 7.76139 0.826172 17.3356C0.826172 26.9097 8.58756 34.6711 18.1617 34.6711Z" fill="#E1F8E2"/>
<path d="M16.2081 13.5657V18.1885C16.2081 18.9314 16.1255 19.4818 15.9604 19.867C15.7953 20.2247 15.4651 20.5274 15.0249 20.7751C14.5571 21.0227 13.9792 21.1328 13.2638 21.1328C12.5484 21.1328 11.9705 21.0227 11.5578 20.8301C11.145 20.61 10.8148 20.3073 10.5947 19.922C10.3745 19.5368 10.292 18.959 10.292 18.216V13.5657H12.1906V18.1885C12.1906 18.6012 12.2182 18.8764 12.3007 19.069C12.3557 19.2616 12.4933 19.3992 12.7135 19.5093C12.9061 19.6194 13.1537 19.6744 13.4564 19.6744C13.7866 19.6744 14.0618 19.6194 14.2544 19.5093C14.447 19.3992 14.5846 19.2616 14.6672 19.069C14.7222 18.8764 14.7772 18.6012 14.7772 18.161V13.5657H16.2081Z" fill="#1F8B24"/>
<path d="M19.3451 18.2435V20.9952H17.584V13.5657H20.5283C21.1887 13.5657 21.684 13.6482 22.0417 13.7858C22.3994 13.9234 22.7021 14.171 22.9773 14.5288C23.2524 14.8865 23.39 15.3267 23.39 15.8496C23.39 16.2073 23.3075 16.565 23.1699 16.9227C23.0323 17.2804 22.8122 17.5556 22.5645 17.7482C22.2893 17.9408 22.0417 18.0784 21.794 18.1335C21.5464 18.1885 21.1612 18.2435 20.6383 18.2435H19.3451ZM19.29 16.8952H20.4182C20.8585 16.8952 21.1612 16.7851 21.3263 16.5925C21.4914 16.3999 21.6014 16.1522 21.6014 15.9046C21.6014 15.6019 21.4914 15.3543 21.2987 15.1892C21.1061 15.0241 20.8034 14.914 20.4182 14.914H19.29V16.8952Z" fill="#1F8B24"/>
<path d="M26.0588 13.5657V20.9952H24.3252V13.5657H26.0588Z" fill="#1F8B24"/>
</svg>
