<svg width="35" height="35" viewBox="0 0 35 35" fill="none" xmlns="http://www.w3.org/2000/svg">
<path d="M17.5 35C27.165 35 35 27.165 35 17.5C35 7.83502 27.165 0 17.5 0C7.83502 0 0 7.83502 0 17.5C0 27.165 7.83502 35 17.5 35Z" fill="#E2EEFD"/>
<path d="M22.5835 7.8335H9.00022C6.72244 7.8335 4.86133 9.69461 4.86133 11.9724V19.8335C4.86133 22.1113 6.72244 23.9724 9.00022 23.9724H22.5835C24.8613 23.9724 26.7224 22.1113 26.7224 19.8335V11.9724C26.7224 9.69461 24.8613 7.8335 22.5835 7.8335ZM25.0558 19.8335C25.0558 21.1946 23.9724 22.2779 22.6113 22.2779H9.00022C7.63911 22.2779 6.55577 21.1946 6.55577 19.8335V11.9724C6.55577 10.6113 7.63911 9.52793 9.00022 9.52793H22.5835C23.9447 9.52793 25.028 10.6113 25.028 11.9724V19.8335H25.0558Z" fill="#1057B4"/>
<path d="M24.6949 25.7778H6.9171C6.52821 25.7778 6.22266 26.0834 6.22266 26.4723C6.22266 26.8612 6.52821 27.1667 6.9171 27.1667H24.6671C25.056 27.1667 25.3615 26.8612 25.3615 26.4723C25.3615 26.0834 25.056 25.7778 24.6949 25.7778Z" fill="#1057B4"/>
<path d="M29.4168 25.75H27.7501C27.3612 25.75 27.0557 26.0556 27.0557 26.4444C27.0557 26.8333 27.3612 27.1389 27.7501 27.1389H29.4168C29.8057 27.1389 30.1112 26.8333 30.1112 26.4444C30.1112 26.0556 29.8057 25.75 29.4168 25.75Z" fill="#1057B4"/>
<path d="M15.7497 15.6668C16.9441 15.6668 17.9163 14.6946 17.9163 13.5002C17.9163 12.3057 16.9441 11.3335 15.7497 11.3335C14.5552 11.3335 13.583 12.3057 13.583 13.5002C13.583 14.6946 14.5552 15.6668 15.7497 15.6668Z" fill="#1057B4"/>
<path d="M17.1121 16.3057H14.501C13.1399 16.3057 12.001 17.4168 12.001 18.8057V20.2223H19.5843V18.8057C19.6121 17.4168 18.4732 16.3057 17.1121 16.3057Z" fill="#1057B4"/>
</svg>
